<svg xmlns="http://www.w3.org/2000/svg" width="102" height="19" fill="none"><mask id="a" width="20" height="19" x="0" y="0" maskUnits="userSpaceOnUse" style="mask-type:luminance"><path fill="#fff" d="M2.633 11.889a10.612 10.612 0 0 0-1.788-.47c.18.961.51 1.91 1.01 2.813a9.348 9.348 0 0 0 6.76 4.723c-.1-2.888-2.44-5.796-5.982-7.066ZM2.97 8.96c4.676-.408 8.274-4.05 8.708-8.48a9.324 9.324 0 0 0-6.157 1.024 9.356 9.356 0 0 0-4.8 7.39c.729.107 1.482.133 2.25.066Zm7.091 2.903c-.12 2.6.701 5.026 2.16 6.95A9.366 9.366 0 0 0 16.23 2.66a10.69 10.69 0 0 0-6.168 9.202Z"/></mask><g mask="url(#a)"><path fill="url(#b)" d="M2.633 11.889a10.612 10.612 0 0 0-1.788-.47c.18.961.51 1.91 1.01 2.813a9.348 9.348 0 0 0 6.76 4.723c-.1-2.888-2.44-5.796-5.982-7.066ZM2.97 8.96c4.676-.408 8.274-4.05 8.708-8.48a9.324 9.324 0 0 0-6.157 1.024 9.356 9.356 0 0 0-4.8 7.39c.729.107 1.482.133 2.25.066Zm7.091 2.903c-.12 2.6.701 5.026 2.16 6.95A9.366 9.366 0 0 0 16.23 2.66a10.69 10.69 0 0 0-6.168 9.202Z"/></g><path fill="url(#c)" d="M50.318 17.298h2.7V1.694h-2.7v15.604Z"/><path fill="url(#d)" d="M61.166 5.97c-1.344 0-2.63.508-3.46 1.862V6.208h-2.431v11.091h2.6v-5.875c0-.46.04-.899.122-1.22.299-1.197 1.151-1.892 2.406-1.892 1.296 0 2.043.649 2.283 1.946.058.31.086.753.086 1.164V17.3h2.6v-6.563c0-.736-.073-1.402-.245-1.97-.564-1.885-2.07-2.795-3.96-2.795Z"/><path fill="url(#e)" d="M74.059 14.758c-.282.066-.753.091-1.057.091h-2.99v-4.4h3.216c.288 0 .618.03.851.082 1.264.28 1.748 1.277 1.748 2.115 0 1.109-.712 1.863-1.768 2.112ZM70.013 4.144h2.397c.547 0 1.128.075 1.501.247.651.3 1.002.86 1.002 1.702 0 .846-.374 1.425-1.037 1.723-.332.149-.817.228-1.377.228H70.013v-3.9Zm6.072 4.815c1.056-.811 1.5-1.74 1.5-3.07 0-1.987-1.233-3.478-3.11-3.986-.488-.131-1.28-.208-2.202-.208h-4.932v15.603h5.525c1.076 0 1.798-.102 2.505-.352 1.851-.653 3.128-2.09 3.128-4.2 0-1.76-.837-3.014-2.414-3.787Z"/><path fill="url(#f)" d="m98.96 6.207-2.777 7.923-2.818-7.923h-2.817l4.405 11.091h2.4l4.396-11.091h-2.788Z"/><path fill="url(#g)" d="M82.043 10.882c.187-1.597 1.48-2.646 3.054-2.646 1.652 0 2.908 1.094 3.093 2.646h-6.147Zm3.03-4.91c-3.157 0-5.61 2.54-5.61 5.86 0 3.064 2.415 5.705 5.72 5.705 2.415 0 4.284-1.39 5.24-3.64h-2.645c-.595.891-1.394 1.375-2.55 1.375-1.724 0-2.85-1.014-3.193-2.574h8.656c.065-.368.083-.678.079-1.053-.028-2.98-2.314-5.674-5.697-5.674Z"/><path fill="url(#h)" d="M43.467 14.848h-3.213v-4.485a22.28 22.28 0 0 1 1.193-.022c2.922.038 4.623.889 4.623 2.403 0 1.362-1.218 2.104-2.603 2.104ZM40.254 4.145h2.291c.524 0 .963.06 1.263.157.871.284 1.346.94 1.346 1.997 0 .98-.493 1.623-1.275 1.919a15.051 15.051 0 0 0-2.506-.197c-.348 0-.731.005-1.12.017V4.145Zm-14.468 9.61 3.467-8.974 2.016 5.38c-2.086.958-3.946 2.185-5.483 3.594Zm20.517-4.774c1.124-.822 1.522-2.053 1.522-3.09 0-1.988-1.232-3.48-3.11-3.987-.487-.131-1.278-.208-2.2-.208h-4.933V8.28a23.784 23.784 0 0 0-3.98.96l-3.079-7.545H28.045L21.678 17.3h2.599c2.245-2.373 4.925-4.077 7.717-5.207l1.952 5.207h2.947l-2.467-6.043c1.056-.3 2.113-.524 3.157-.676v6.72h1.34v.003h4.71c3.327 0 5.112-1.952 5.112-4.554 0-1.579-.782-2.92-2.441-3.768Z"/><defs><linearGradient id="b" x1="10.07" x2="10.07" y1="18.955" y2=".335" gradientUnits="userSpaceOnUse"><stop stop-color="#EAEAF5"/><stop offset="1" stop-color="#C9D2F4"/></linearGradient><linearGradient id="c" x1="51.668" x2="51.668" y1="17.298" y2="1.694" gradientUnits="userSpaceOnUse"><stop stop-color="#EAEAF5"/><stop offset="1" stop-color="#C9D2F4"/></linearGradient><linearGradient id="d" x1="60.324" x2="60.324" y1="17.299" y2="5.971" gradientUnits="userSpaceOnUse"><stop stop-color="#EAEAF5"/><stop offset="1" stop-color="#C9D2F4"/></linearGradient><linearGradient id="e" x1="72.92" x2="72.92" y1="17.298" y2="1.695" gradientUnits="userSpaceOnUse"><stop stop-color="#EAEAF5"/><stop offset="1" stop-color="#C9D2F4"/></linearGradient><linearGradient id="f" x1="96.149" x2="96.149" y1="17.298" y2="6.207" gradientUnits="userSpaceOnUse"><stop stop-color="#EAEAF5"/><stop offset="1" stop-color="#C9D2F4"/></linearGradient><linearGradient id="g" x1="85.116" x2="85.116" y1="17.537" y2="5.971" gradientUnits="userSpaceOnUse"><stop stop-color="#EAEAF5"/><stop offset="1" stop-color="#C9D2F4"/></linearGradient><linearGradient id="h" x1="35.21" x2="35.21" y1="17.303" y2="1.695" gradientUnits="userSpaceOnUse"><stop stop-color="#EAEAF5"/><stop offset="1" stop-color="#C9D2F4"/></linearGradient></defs></svg>