<svg xmlns="http://www.w3.org/2000/svg" width="78" height="25" fill="none"><path fill="url(#a)" d="M63.364 1.018h4.537l.146.073-.146.804-.366 1.17-.073.147-4.537.073-.366 1.17.293-.073 3.878.073-.146.731-.293 1.097-.146.147h-4.098l-.22.877-.146.366h4.61l.512.073.293-1.243 1.39-5.193.22-.292h2.342l1.756.073.805.146.732.293.585.438.366.44.293.73.073.805-.147.878-.365.731-.44.512-.585.439-.951.365h-.147l1.318 2.78-.074.219h-2.634l-.512-1.024-.659-1.536-.585-.073h-.44l-.146.658-.146.512v.439l.293.146.658.585.586.878.366.95.073.293v1.536l-.22.878-.585 1.17-.586.878-.585.73-.585.513-.805.658-1.244.731-.952.44-1.536.511-1.537.293-.878.073H60.51l-1.537-.073-.146-.073.073-.22 1.757-.804 1.244-.732 1.097-.804.732-.658.585-.512.878-1.024.659-.951.146-.293-.585.512-1.025.951-1.024.805-1.098.804-1.463.95-1.098.66-2.195 1.096-2.05.95-1.828.732-2.05.732-2.56.731-2.196.512-2.927.512-2.488.292-1.83.147-2.122.073h-1.756l-2.049-.073-3.073-.293-2.342-.366-2.488-.512-2.268-.585-2.342-.73-2.488-.952-1.83-.804-1.536-.732-1.61-.877-1.976-1.17-1.317-.878-1.244-.878-1.317-1.023-1.61-1.317-.732-.658-.585-.512-.366-.366.073-.146.732.439.731.512 1.464.95 1.537.878 1.902 1.024 1.903.878 2.195.877 2.635.878 1.756.512 2.122.512 2.708.512 3.22.365 1.975.147 1.61.073h1.244l3.732-.22 3.073-.365 2.342-.44 2.195-.511 1.83-.512 2.634-.878 1.83-.73 1.83-.805 2.34-1.17L55.9 13.45l1.537-.951 1.463-1.024 2.05-1.536-2.27-.073.074-.585 1.024-3.73.293-1.097v-.439l.146-.073.732-2.78.073-.072 2.342-.073Zm7.245 2.194-.147.073-.512 1.974h1.83l.804-.292.44-.512v-.731l-.367-.366L72 3.212h-1.39Z"/><path fill="url(#b)" d="M31.54.87h.878l1.098.219 1.025.513.731.66.44.585.365.88.147.659V5.41l-.293 1.173-.512 1.025-.586.733-.658.66-1.025.585-.805.293-.732.147h-1.317l-.951-.22-.878-.44-.878-.805-.513-.806-.22-.66-.072-.44V5.266l-.44.586-.585.513-.878.44-.366.073 1.098 2.417.146.293v.293h-2.634l-.22-.293-.878-2.051-.073-.22-.146-.073h-.805l-.22.586-.512 1.905-.22.146h-2.268l-.074-.293.44-1.538.878-3.297.805-3.077.22-.586.365-.073h2.05l1.829.073 1.097.22.659.366.439.366.439.733.146.586.073.733.44-.806.512-.66.146-.22h.146l.074-.22.951-.658.805-.367.805-.22.512-.073Zm-.146 2.27-.805.293-.512.44-.513.806-.22.66v1.098l.367.733.512.44.439.146h.951l.659-.22.659-.513.439-.66.22-.585.072-.44v-.66l-.22-.659-.511-.586-.44-.22-.365-.073h-.732Zm-9.367.074-.22.512-.365 1.32v.219h1.756l.659-.22.439-.293.22-.366v-.513l-.22-.366-.293-.22-.512-.073h-1.464Z"/><path fill="url(#c)" d="M14.487.87h1.17l1.169.219.657.293.877.513.366.366-.074.366-.584.513-.73.733-.074.146-.365-.146-.658-.44-.73-.22h-1.097l-.73.22-.658.44-.512.586-.365.952v1.1l.292.659.512.44.803.22h.512l.73-.22.293-.66.073-.44-1.315.074-.293-.074.147-.732.292-1.026.073-.073h3.946l.073.146-1.023 3.663-.292.733-.731.366-.95.293-.804.147h-1.534l-.877-.22-1.17-.586-.73-.733-.512-1.025-.146-.733V5.485l.292-1.173.585-1.098.585-.733.73-.586.877-.513 1.023-.366.877-.147Z"/><path fill="url(#d)" d="M44.707 1.018h2.34l.073.293-.878 3.222-.365 1.392-.073.806.22.585.438.293.22.074h.73l.585-.22.366-.293.365-.732.732-2.564.658-2.49.146-.293h2.486l-.146.659-.805 3.076-.511 1.831-.366.952-.512.88-.512.585-.804.513-.804.293-.731.146h-1.536l-.95-.22-.805-.439-.512-.512-.365-.66-.146-.44v-1.61L43.83 3.8l.73-2.71.147-.073Z"/><path fill="url(#e)" d="m8.038.943.439.147.366 2.197.95 6.151v.367l-.073.073H7.233l-.073-.073-.22-1.465-3.29.073-.732.952-.293.44-.22.073H.286l-.22-.073.073-.44.805-1.172L1.967 6.73l.95-1.318.805-1.172.732-1.025 1.024-1.465.512-.66.073-.072L8.038.943ZM6.428 4.02l-.804 1.245-.658 1.025v.074h1.829L6.647 4.97l-.146-.952h-.073Z"/><path fill="url(#f)" d="m40.168.87 1.169.072.876.22 1.168.586.511.44-.146.366-.584.586-.657.806-.365-.146-.73-.44-.511-.22-.366-.073h-.73l-.438.22-.146.366.365.366 1.899.806.73.513.438.513.219.513v1.319l-.292.732-.657.733-.657.44-.73.292-.877.147H38.49l-1.168-.22-.877-.366-.73-.44-.51-.44v-.146l-.147-.073 1.241-1.246.22-.293.365.074.73.512.876.367.292.073h1.022l.438-.293v-.44l-.584-.366-1.533-.66-.73-.439-.584-.66-.22-.585v-.88l.22-.732.438-.66.657-.585.73-.367.803-.22.73-.073Z"/><path fill="url(#g)" d="M53.482 1.018h1.757l1.978.073 1.025.22.805.439.513.512.293.586.146.586-.073 1.245-.366.878-.513.66-.585.439-.88.44-.951.219-.66.073h-1.757l-.586 2.343-.22.147h-2.27l-.073-.367.732-2.636.733-2.782.805-2.929.147-.146Zm1.904 2.123-.147.146-.512 1.904.073.22h.952l.879-.146.439-.293.293-.367.073-.22v-.512l-.22-.366-.439-.293-.732-.073h-.66Z"/><path fill="url(#h)" d="m76.172 7.52.663.148.664.442.148.148.073.663-.221.516-.737.442-.295.074h-.517l-.442-.295-.369-.516v-.737l.295-.442.369-.295.369-.147Zm-.148.369-.369.369-.22.515.294.59.295.221.737-.074.222-.294.147-.074.074-.59-.295-.442-.295-.221h-.59Z"/><path fill="url(#i)" d="m76.243 8.116.29.073.219.219.073.291v.51l-.146.074-.145-.146h-.654l-.073-.292.145-.51.291-.219Zm0 .219v.146h.146v-.146h-.146Zm.146.146-.073.51h.145v-.51h-.072Z"/><path fill="url(#j)" d="m75.956 8.041.223.074-.148.15-.224-.075.149-.149Z"/><defs><linearGradient id="a" x1="40.094" x2="40.094" y1="1.018" y2="24.421" gradientUnits="userSpaceOnUse"><stop stop-color="#EAEAF5"/><stop offset="1" stop-color="#C9D2F4"/></linearGradient><linearGradient id="b" x1="26.966" x2="26.966" y1=".869" y2="10.027" gradientUnits="userSpaceOnUse"><stop stop-color="#EAEAF5"/><stop offset="1" stop-color="#C9D2F4"/></linearGradient><linearGradient id="c" x1="14.122" x2="14.122" y1=".869" y2="10.027" gradientUnits="userSpaceOnUse"><stop stop-color="#EAEAF5"/><stop offset="1" stop-color="#C9D2F4"/></linearGradient><linearGradient id="d" x1="47.997" x2="47.997" y1="1.018" y2="10.027" gradientUnits="userSpaceOnUse"><stop stop-color="#EAEAF5"/><stop offset="1" stop-color="#C9D2F4"/></linearGradient><linearGradient id="e" x1="4.929" x2="4.929" y1=".943" y2="9.878" gradientUnits="userSpaceOnUse"><stop stop-color="#EAEAF5"/><stop offset="1" stop-color="#C9D2F4"/></linearGradient><linearGradient id="f" x1="39.475" x2="39.475" y1=".869" y2="10.027" gradientUnits="userSpaceOnUse"><stop stop-color="#EAEAF5"/><stop offset="1" stop-color="#C9D2F4"/></linearGradient><linearGradient id="g" x1="55.532" x2="55.532" y1="1.018" y2="9.878" gradientUnits="userSpaceOnUse"><stop stop-color="#EAEAF5"/><stop offset="1" stop-color="#C9D2F4"/></linearGradient><linearGradient id="h" x1="76.43" x2="76.43" y1="7.521" y2="9.953" gradientUnits="userSpaceOnUse"><stop stop-color="#EAEAF5"/><stop offset="1" stop-color="#C9D2F4"/></linearGradient><linearGradient id="i" x1="76.316" x2="76.316" y1="8.116" y2="9.283" gradientUnits="userSpaceOnUse"><stop stop-color="#EAEAF5"/><stop offset="1" stop-color="#C9D2F4"/></linearGradient><linearGradient id="j" x1="75.993" x2="75.993" y1="8.041" y2="8.264" gradientUnits="userSpaceOnUse"><stop stop-color="#EAEAF5"/><stop offset="1" stop-color="#C9D2F4"/></linearGradient></defs></svg>