<svg xmlns="http://www.w3.org/2000/svg" width="87" height="15" fill="none"><path fill="url(#a)" d="M43.834.97h4.043l.042 9.307h4.338l-.042-.168V8.17L52.257.97H56.3v3.032l-.042 10.36h-9.35l-.673-.632-.337-.336v-.085h-.084l-.21-.252-.085-.042v-.085l-.127-.042v-.084l-.168-.084-.253-.253v-.084l-.168-.084-.927-.927-.042-.084V.97Z"/><path fill="url(#b)" d="M65.438.717h.927l.926.126.716.169.843.337.631.337.674.463.548.463.547.548.084.126-.042.169-.126.042-.084.168-1.011 1.01h-.084l-.042.127-.337.295-.211.253h-.084l-.084.168-.59.59h-.168l-.337-.548-.38-.42-.42-.296-.464-.21-.463-.127-.253-.042h-.463l-.716.127-.674.337-.463.379-.337.463-.295.59-.168.631-.042.38v.547l.084.59.21.631.253.463.337.421.337.295.674.337.42.127.296.042h.547l.59-.127.505-.21.463-.295.38-.38.336-.547.127-.168.463.463.21.253.338.295.42.463.337.295 1.011 1.01-.042.211-.842.842-.632.464-.632.379-.758.337-.631.21-.969.21-.379.043h-1.137l-.885-.127-.884-.252-.8-.337-.674-.38-.674-.505-.421-.379-.421-.42-.505-.675-.38-.631-.294-.632-.253-.758-.169-.8-.042-.295V6.908l.211-1.095.295-.842.42-.843.338-.505.463-.59.59-.59.716-.547.716-.42.631-.296.8-.252.59-.127.758-.084Z"/><path fill="url(#c)" d="M16.584.97h4.043l.042 2.4.337-.295L23.112.97h3.37v4l-5.813.043-.042 9.35h-4.043V.97Z"/><path fill="url(#d)" d="m81.272.886.843.252.758.337.716.422.548.42.505.464.337.336.42.548.464.758.337.758.295.927.084.337v2.442l-.295 1.01-.379.886-.337.59-.337.462-.378.464-.548.547-.716.548-.885.505-.969.38-.883.21-.632.083h-1.18l-1.01-.167-.843-.253-.757-.337-.59-.337-.59-.421-.548-.506-.379-.379-.42-.547-.38-.59-.379-.8-.252-.758-.211-1.053-.042-.758.085-1.094.252-1.054.337-.842.336-.632.506-.716.59-.631.505-.463.716-.506.885-.463 1.01-.337.884-.169.464-.042h.969l1.094.169Zm-1.81 3.537-.379.042-.463.127-.506.252-.42.337-.338.38-.294.505-.211.548-.126.673v.758l.042.253.169.632.251.547.295.42.337.338.464.295.505.21.59.127h.548l.294-.043.422-.126.673-.336.38-.337.336-.421.21-.38.211-.547.126-.674v-.716l-.042-.295-.126-.505-.253-.59-.379-.547-.42-.379-.506-.295-.463-.169-.548-.084h-.38Z"/><path fill="url(#e)" d="m34.147.843.632.211.674.337.59.42.379.338.168-.084L37.685.97h3.284v13.393h-3.242l-.758-.76-.337-.293-.042-.127h-.21l-.422.379-.674.422-.505.252-.632.21-.674.127h-.884l-.674-.127-.758-.252-.674-.38-.505-.378-.422-.38-.337-.336-.462-.632-.38-.632-.336-.715-.337-1.095-.17-.927-.083-.927.042-.632.084-.841.169-.801.253-.842.337-.758.42-.717.421-.546.38-.421.294-.295.632-.464.674-.38.716-.252.8-.126h.758l.716.126Zm-.042 3.622-.63.169-.59.295-.337.295-.38.42-.294.506-.211.548-.126.8v.378l.084.548.21.674.296.506.337.42.547.422.673.295.674.126h.59l.295-.043.463-.126.506-.252.42-.38.296-.336V5.603l-.042-.127-.17-.21-.462-.379-.464-.253-.59-.169-.673-.042-.422.042Z"/><path fill="url(#f)" d="m7.15.886.548.21.716.379.548.422.295.252.168-.084.968-.969h.084L10.52.97h3.243l.042.042v1.264l-.042 3.032v9.055h-3.2l-.338-.295-.925-.927-.337.253-.548.42-.716.38-.59.21-.505.127-.295.041h-.884l-.842-.167-.674-.253-.674-.38-.59-.462-.632-.632-.462-.632-.506-.885-.337-.883-.253-.97-.126-.715V6.698L.58 5.476l.21-.716.379-.842.38-.674.378-.505.38-.421.42-.421.632-.464.716-.379.632-.211.758-.126h.8l.884.169Zm-.252 3.58-.506.126-.379.168-.462.295-.506.506-.38.63-.21.632-.084.59v.506l.042.337.127.505.21.506.379.589.422.379.462.295.505.21.674.127h.59l.295-.043.548-.168.589-.336.505-.506V5.518l-.125-.168-.506-.463-.59-.295-.505-.127-.632-.042-.463.042Z"/><defs><linearGradient id="a" x1="50.067" x2="50.067" y1=".97" y2="14.362" gradientUnits="userSpaceOnUse"><stop stop-color="#EAEAF5"/><stop offset="1" stop-color="#C9D2F4"/></linearGradient><linearGradient id="b" x1="65.122" x2="65.122" y1=".717" y2="14.573" gradientUnits="userSpaceOnUse"><stop stop-color="#EAEAF5"/><stop offset="1" stop-color="#C9D2F4"/></linearGradient><linearGradient id="c" x1="21.533" x2="21.533" y1=".97" y2="14.362" gradientUnits="userSpaceOnUse"><stop stop-color="#EAEAF5"/><stop offset="1" stop-color="#C9D2F4"/></linearGradient><linearGradient id="d" x1="79.609" x2="79.609" y1=".717" y2="14.572" gradientUnits="userSpaceOnUse"><stop stop-color="#EAEAF5"/><stop offset="1" stop-color="#C9D2F4"/></linearGradient><linearGradient id="e" x1="34.21" x2="34.21" y1=".717" y2="14.572" gradientUnits="userSpaceOnUse"><stop stop-color="#EAEAF5"/><stop offset="1" stop-color="#C9D2F4"/></linearGradient><linearGradient id="f" x1="7.066" x2="7.066" y1=".717" y2="14.572" gradientUnits="userSpaceOnUse"><stop stop-color="#EAEAF5"/><stop offset="1" stop-color="#C9D2F4"/></linearGradient></defs></svg>