<svg xmlns="http://www.w3.org/2000/svg" width="76" height="29" fill="none"><path fill="url(#a)" d="M8.422.527 9.78.62l.796.14.656.328.28.234.281.468.141.562.094 1.311.983.328.702.375.562.421.328.281.468.609.422.89.14.514.047.328v1.311l-.14.656-.281.562-.422.468-.421.328-.515.234-.937.234-.374.047h-1.218l-.14-.047-.14-.421-.095-1.686-.14-.796-.234-.468v-.094l-.187-.094-.469-.187-.562-.047-.749.094-.562.234-.421.281-.281.28h-.094l-.093.188-.328.469-.328.655-.375 1.077-.187.937-.14 1.545v.936l.14 1.358.281.984.375.843.374.515.375.374.562.281.421.094h.703l.749-.188.562-.28.374-.328.375-.609.28-.702.235-.235.281-.093.328-.047h.421l.515.094.562.28.281.235.328.515.14.375.047.327v.375l-.093.468-.375.75-.375.514-.421.469-.515.421-.702.468-.75.375-.89.328-.936.187-.515.047-.094.562-.187 1.03-.187.796-.188.28-.093.048H7.72l-1.311-.14-.516-.141-.561-.281-.328-.281-.234-.421-.188-.75v-.702l.234-.047.703.094H7.25l.14-.047-.093-.047-1.077-.14-1.358-.469-.702-.374-.656-.469-.702-.655-.468-.609-.422-.702-.328-.656-.374-1.124-.234-1.404-.047-.469v-2.2l.187-1.546.14-.796.422-1.451.422-1.03.374-.75.468-.749.516-.656.234-.28h.093l.094-.188.656-.562.702-.468.702-.375.703-.28L7.72 3.57l1.077-.14h2.247l-.796-.282-.89-.14-.936-.094-.702-.047-.047-.14.28-1.265.188-.749.094-.14.187-.047Z"/><path fill="url(#b)" d="M38.205 8.066h1.966l.562.14.468.281.422.469.234.515.14.608.234-.234.141-.187h.094v-.094h.093v-.093l.515-.422.469-.328.702-.374.609-.187.328-.047h1.264l.796.14.562.234.702.422.422.374.468.61.374.655.375 1.123.14.656.094 1.217v.61l-.093 1.404-.235 1.218-.28 1.076-.469 1.124-.374.703-.328.515-.468.608-.796.797-.843.561-.89.375-.843.187h-.983l-.75-.187-.749-.375-.515-.374-.515-.515-.421-.609-.375-.75-.28-.748-.235-.75-.047-.046v.749l.234 1.358.234.89.469.936v.562l-.281 2.294-.14.937-.235 2.06-.14.422-.281.187h-1.967l-.468-.14-.468-.282-.375-.374-.281-.468-.14-.422V25.86l.187-1.686.234-2.435.187-1.92.14-1.17.282-3.09.187-1.78.187-1.686.188-2.154.14-1.311.187-.468.235-.094Zm5.431 3.418-.515.188-.468.327-.328.328-.28.375-.516.983-.234.75-.14.702-.047.515v1.03l.093.702.188.656.28.562.375.468.375.28.375.141h.608l.422-.187.468-.328.421-.421.328-.468.375-.703.234-.796.187-.936V14.06l-.187-.843-.234-.609-.328-.515-.328-.328-.421-.234-.188-.047h-.515Z"/><path fill="url(#c)" d="M18.212 3.336h1.779l.468.094.562.281.281.234.328.468.187.469.047.187v.936l-.187 1.733-.188.515-.374.609-.515 1.311-.235 1.217v.516l.328-.937.328-.75.375-.561.374-.468.562-.469.796-.421.89-.234.655-.094.61-.047h.795l.703.094.562.187.608.328.609.562.375.515.327.702.235.75.046.468v1.451l-.093 1.265-.235 2.013-.327 3.606-.188 1.592-.14.515-.187.187-.328.047h-1.686l-.515-.093-.515-.281-.421-.422-.281-.562-.047-.234v-.843l.234-2.622.187-1.639.188-1.826.046-.562v-.609L25.048 12l-.28-.328-.47-.234-.233-.046h-.656l-.562.14-.374.187-.328.281h-.094l-.093.188-.328.42-.375.844-.187.749-.14 1.124-.282 2.669-.234 2.388-.093 1.124-.188.515-.234.14-.328.047h-1.357l-.563-.093-.561-.281-.422-.375-.328-.515-.14-.375-.047-.28v-.656l.422-3.934.28-2.95.281-2.669.235-2.481.14-1.265.281-2.669.14-.234.282-.094Z"/><path fill="url(#d)" d="M57.684 8.066h1.264l1.17.14.656.188.75.327.514.328.515.469.422.655.234.562.094.562v.702l-.14.796-.329.796-.234.469-.468.608-.234.281-.375.328-.562.421-.89.469-.842.28-.656.188-1.03.14h-2.107l-.796-.093-.843-.187-.468-.094.14.14.656.281 1.264.422.094.14.187.843.28.468.375.281.375.188.421.093h.984l.75-.234.561-.28.468-.282.328-.093h.562l.421.14.469.422.187.327.094.469-.047.562-.188.42-.28.376-.469.374-.515.234-1.124.328-.983.14h-2.763l-.843-.187-.702-.234-.655-.328-.61-.468-.374-.375-.328-.468-.374-.75-.234-.748-.14-.984-.048-.515v-1.03l.094-1.217.14-.843.422-1.264.374-.796.422-.703.562-.75.515-.561.468-.421.656-.469.608-.374.89-.375.562-.14.703-.094Zm-.281 3.418-.469.234-.468.422-.281.468-.234.515-.187.656-.14.89h1.17l.515-.094.515-.188.421-.28.375-.375.28-.468.095-.375v-.562l-.188-.421-.328-.281-.327-.14h-.75Z"/><path fill="url(#e)" d="M66.347 8.066h.984l.749.187.468.281.468.422.234.327v.328l-.468 1.17-.187.89v1.733l.047-.047v-.327h.093l.14-.937.188-.796.281-.75.375-.702.421-.515.328-.328.515-.374.75-.375.608-.14h1.077l.562.14.608.328.562.515.375.609.187.515.047.234v.89l-.187.702-.375.703-.374.468-.469.421-.749.422-.655.187-.516.094h-.327l-.422-.14-.14-.235V12.14l-.234-.375-.234-.14h-.516l-.28.187h-.094l-.094.187-.28.468-.235.703-.28 1.03-.422 2.81-.188 1.592-.234 2.435-.14.655-.234.375-.188.093-.28.047h-1.358l-.516-.093-.561-.281-.469-.422-.328-.468-.14-.421V19.21l.187-1.827.234-2.107.281-2.95.281-2.482.094-.936.14-.375.328-.28.328-.141.234-.047Z"/><path fill="url(#f)" d="M32.538 8.066h1.498l.515.14.468.281.422.422.28.468.141.421v1.218l-.28 2.575-.329 3.512-.28 2.763-.141 1.498-.094.422-.187.28-.14.095-.281.046h-1.452l-.515-.093-.515-.281-.281-.234-.281-.375-.187-.422-.094-.42v-.61l.187-2.013.234-2.576.281-2.528.281-3.278.14-.796.188-.28.234-.188.188-.047Z"/><path fill="url(#g)" d="M33.85 3.29h.984l.515.14.374.234.281.327.14.422v.609l-.14.468-.28.421-.375.328-.468.234-.656.14h-.843l-.562-.14-.421-.28-.234-.282-.14-.421v-.656l.187-.562.234-.327.515-.375.421-.187.468-.094Z"/><defs><linearGradient id="a" x1="8.305" x2="8.305" y1=".527" y2="25.017" gradientUnits="userSpaceOnUse"><stop stop-color="#EAEAF5"/><stop offset="1" stop-color="#C9D2F4"/></linearGradient><linearGradient id="b" x1="43.215" x2="43.215" y1="8.066" y2="28.763" gradientUnits="userSpaceOnUse"><stop stop-color="#EAEAF5"/><stop offset="1" stop-color="#C9D2F4"/></linearGradient><linearGradient id="c" x1="22.847" x2="22.847" y1="3.336" y2="22.207" gradientUnits="userSpaceOnUse"><stop stop-color="#EAEAF5"/><stop offset="1" stop-color="#C9D2F4"/></linearGradient><linearGradient id="d" x1="57.285" x2="57.285" y1="8.066" y2="22.16" gradientUnits="userSpaceOnUse"><stop stop-color="#EAEAF5"/><stop offset="1" stop-color="#C9D2F4"/></linearGradient><linearGradient id="e" x1="70" x2="70" y1="8.066" y2="22.207" gradientUnits="userSpaceOnUse"><stop stop-color="#EAEAF5"/><stop offset="1" stop-color="#C9D2F4"/></linearGradient><linearGradient id="f" x1="33.334" x2="33.334" y1="8.066" y2="22.207" gradientUnits="userSpaceOnUse"><stop stop-color="#EAEAF5"/><stop offset="1" stop-color="#C9D2F4"/></linearGradient><linearGradient id="g" x1="34.084" x2="34.084" y1="3.289" y2="6.614" gradientUnits="userSpaceOnUse"><stop stop-color="#EAEAF5"/><stop offset="1" stop-color="#C9D2F4"/></linearGradient></defs></svg>