<svg xmlns="http://www.w3.org/2000/svg" width="47" height="42" fill="none"><path fill="url(#a)" d="M18.76.022h1.188l1.128.06 1.07.178 1.484.475.95.357.892.416.95.535.653.476.594.416.773.535.593.297 1.664.238 1.425.178 2.138.714 1.367.713.653.476.594.535.534.535.594.773.654 1.07.356.951.238 1.189.06.595v.95l-.12.714-.475.773-.534.595-.594.475-.238.119h-.297l.119-.238.416-.475.475-.952.06-.356v-1.487l-.179-1.01-.594-1.249-.535-.832-.475-.595-.653-.653-1.07-.714-1.068-.594-1.366-.595-1.485-.416-.832-.119-1.129-.06h-1.96l-.534.06h-.238l.06-.178.594-.357 1.663-.654-.06-.178-.831-.535-.832-.417-1.01-.416-.95-.356-1.485-.298-1.188-.178-1.128-.119H18.64l-1.663.178-.95.238-.95.476-.654.535-.653.654-.535.773-.416.832-.297.892-.06.297v.713l.417 1.249.95 2.2.475 1.307.238.476.06.238V15.3h1.128l.297-.06 3.267-.178.059-.06v-3.329l.297-.773.475-.654.535-.416h.118v.832l-.118 2.438-.12 1.07-.296.416.06.416.356.12 3.207.296 2.02.12.296-.298.357-.594.297-.298.416-.238.118-.059h.654l.178.06.06.237-.298.595-.534.594-.357.238-.831.178-3.623.357-.891.06-2.08.06-1.96.118-3.088.238h-.416v.773l-.118 1.724-.357 1.189-.178.535-.119.06-.118-.18v-1.367l-.12-1.605-.653-.178-1.069-.357-.653-.356-.594-.535-.416-.476-.535-.892-.475-.951-.653-.357-.713-.654-.653-.654-.416-.654-.475-1.189-.238-1.07V8.166l.178-1.248.297-.773.476-.832.653-.773.713-.713.594-.417.95-.535.95-.356.832-.238 1.425-.179.654-.416.772-.594.832-.476L16.028.26 17.453.08l1.307-.06Zm-6.771 2.913L10.8 3.41l-.832.476-.653.476-.594.535-.594.713-.653.951-.238.476-.238 1.189v1.308l.238.832.475 1.19.416.594.475.416 1.247.654.891.356 1.485.535.535.357.238.357.237.832.297-.06.416-.237.119-.297h.118v-1.368l-.118-.832-.238-.535-.356-.535-.416-.595-.891-1.664-.535-1.13-.297-.891-.059-.298v-1.07l.178-1.01.416-1.487.238-.713h-.12ZM10.8 14.587l-.119.06.06.297.653.773.415.475.179.179h.118v.119l.595.475.356.297-.119-1.01-.06-.654-.178-.416-.356-.417-.535-.178H10.8Z"/><path fill="url(#b)" d="M24.044 27.792h.834l.774.238.477.357.178.178.239-.06.774-.475.357-.178.417-.06h.596l.655.12.715.356.417.475.238.654.06.357v4.754l-.12.06h-1.489l-.238-.12-.06-.297-.059-4.16-.179-.356-.357-.238-.179-.06h-.536l-.357.179-.238.297-.18.357-.059.297-.06 4.041-.059.06h-1.727l-.06-.06-.06-.891V30.17l-.118-.417-.417-.356-.12-.06h-.536l-.476.238-.357.476-.06.297-.06 4.1-.06.06-.773.06h-.953l-.12-.06-.06-1.307v-2.615l.06-2.556.06-.06h1.608l.06.12v.534l.655-.416.536-.297.417-.119Z"/><path fill="url(#c)" d="M3.895 25.285h1.664l.772.179.713.356.654.535.416.475.475.95.06.654-.238.119-.654.06h-.891l-.297-.357-.416-.594-.416-.357-.535-.178h-1.07l-.594.238-.416.297-.356.594-.238.594-.119.475-.06.772.12 1.01.297.713.356.475.476.357.594.238h1.07l.594-.238.297-.238.297-.534.416-.773.119-.119h1.248l.416.06.06.06v.415l-.18.713-.475.95-.534.595-.416.356-.595.297-.713.238-.713.119h-.832l-.891-.179-.772-.297-.654-.415-.357-.297-.475-.595-.475-.89-.238-.714-.119-.831v-1.189l.178-.95.297-.772.416-.713.654-.713.773-.535.772-.297.535-.119Z"/><path fill="url(#d)" d="m39.135 14.465.238.12.357.713.178.774v.833l-.238.952-.238.476-.534.595-.595.417-1.307.535-1.426.774-.95.357-1.249.178h-1.545l-.416-.059.06 1.369v1.428l-.238.476-.475.417-.654.238-.594.119-.773.059h-2.139l-1.783-.178-1.247-.298-.476-.179-.06-.178.417-.12 3.209-.297 2.97-.238.417-.06v-1.19l-.12-1.844v-2.142l.12-.953.06-.119.237.12.297.952.178 1.011.119.298.297.119h.892l1.485-.238.535-.12-.297-.237-1.07-.774-.832-.654-.594-.417-.475-.178-.357-.06-2.436-.06-1.07-.595v-.119l.297-.06h.713l1.189-.118.832-.12h1.188l.654.239.832.476.891.595.95.476 1.07.417.535.119h.535l1.07-.357.653-.417.357-.416.237-.536.12-.833v-.774l-.06-.654.06-.06Z"/><path fill="url(#e)" d="M41.582 27.718h1.008l.711.12.712.297.474.416.237.298.119.357.118 4.286.06 1.011-.06.06h-1.6l-.237-.12-.06-.297-.415.179-.77.297-.653.12h-.77l-.771-.239-.474-.357-.356-.476-.237-.536v-.714l.237-.655.415-.476.593-.357.83-.238 1.778-.297.415-.239.06-.357-.178-.416-.474-.239h-.83l-.356.18-.534.713-.356.06h-.533l-.77-.12-.06-.416.296-.595.475-.536.533-.357.652-.238.771-.119Zm1.304 3.75-1.66.357-.474.238-.237.298v.416l.237.476.356.179h.948l.475-.238.355-.476.119-.417v-.774l-.119-.06Z"/><path fill="url(#f)" d="M15.902 27.792h1.131l.715.178.655.416.477.416.357.535.298.712.119.594v1.01l-.06.06-4.586.059.12.653.237.356.358.297.357.178h.775l.536-.237.476-.416.179-.119h1.43l.059.178-.238.594-.417.535-.536.475-.715.297-.834.178h-.834l-.893-.237-.536-.297-.596-.535-.417-.534-.357-.891-.06-.357v-1.188l.12-.593.237-.594.417-.594.417-.416.655-.416.656-.237.298-.06Zm.06 1.485-.358.178-.417.416-.179.356v.238l.536.06 2.204-.06-.179-.594-.238-.356-.238-.178-.238-.06h-.894Z"/><path fill="url(#g)" d="M34.093 27.793h1.482l.71.178.594.297.415.356.296.535.118.356v.356l-.118.06-.534.059h-.83l-.177-.06-.415-.593-.534-.178h-.592l-.534.178-.06.297.12.297.355.237 1.778.416.77.297.594.416.296.415.119.476v.593l-.178.594-.237.357-.475.475-.592.297-1.304.238h-.77l-1.068-.238-.474-.238-.533-.475-.415-.712-.06-.179v-.416l.297-.118h1.304l.415.594.296.297.415.118h.711l.415-.178.297-.237.059-.357-.178-.297-.474-.237-1.482-.357-1.067-.356-.593-.535-.237-.415-.06-.178v-.713l.238-.594.119-.238h.118l.119-.237.592-.357.652-.237.297-.06Z"/><path fill="url(#h)" d="M10.26 27.966h1.791l.06.238v6.304l-.12.06H10.32l-.12-.357v-6.185l.06-.06Z"/><path fill="url(#i)" d="M18.283 36.925h.832l.12.239v3.518l-.12.417-.178.12-.416-.06-.298-.12-.535.18h-.713l-.476-.299-.297-.477-.12-.357v-1.133l.298-.597.535-.358.119-.06h.773l.357.06.06-.894.059-.179Zm-.952 1.73-.297.357-.06.18v.774l.238.477.179.12h.416l.298-.239.118-.238.06-.537-.12-.596-.356-.299h-.476Z"/><path fill="url(#j)" d="M5.686 36.876h2.722l.178.238v.476l-.119.06-1.953.06-.059.832h.71l1.125.06.059.06v.594l-.414.119h-1.48V41.1l-.177.12h-.592l-.178-.06v-4.165l.178-.119Z"/><path fill="url(#k)" d="m38.199 37.893.654.059.476.296.297.474.12.296.059.651-.06.119-.416.059-1.725.06.12.295.237.237.535.06h.12l.118-.238.773-.177h.238l-.06.414-.416.474-.535.237-.654.059-.535-.118-.535-.415-.298-.533-.06-.237v-.77l.239-.592.476-.473.416-.178.416-.06Zm-.06.71-.297.119-.178.296.06.178.297.059.773-.06-.06-.295-.238-.237-.356-.06Z"/><path fill="url(#l)" d="m24.338 37.893.652.059.475.296.415.474.118.355.06.592-.06.119-.296.059h-1.957l.297.474.237.177h.415l.356-.296.177-.059h.593l.06.296-.356.474-.593.296-.237.059-.77-.06-.357-.177-.355-.296-.297-.592-.059-.355v-.474l.178-.592.356-.474.592-.296.356-.06Zm-.178.77-.296.237-.06.296.416.059.83-.06-.06-.355-.237-.177h-.593Z"/><path fill="url(#m)" d="m10.385 37.893.655.059.477.237.298.296.238.415.06.296v.888l-.298.592-.477.414-.596.178h-.536l-.595-.178-.477-.473-.238-.533-.06-.77.18-.592.297-.415.596-.355.476-.06Zm-.12.77-.356.296-.12.296v.71l.18.356.237.177h.536l.417-.355.06-.237v-.651l-.238-.474-.239-.118h-.476Z"/><path fill="url(#n)" d="M13.584 37.943h1.008l.592.297.356.416.119.296V40.2l-.178.356-.474.475-.415.178-.297.06h-.474l-.593-.179-.296-.237-.356-.535-.119-.475v-.653l.178-.534.415-.476.534-.237Zm.474.653-.415.178-.178.238-.06.237v.654l.238.475.237.118h.474l.356-.297.06-.118v-.95l-.238-.357-.296-.178h-.178Z"/><path fill="url(#o)" d="m20.948 37.893.711.059.474.237.237.296.119.296-.06.296-.414.06-.356-.178-.355-.296h-.474l-.119.059-.06.237.949.236.592.237.297.296.118.297-.059.532-.415.474-.355.178-.356.059h-.474l-.593-.118-.414-.297-.237-.414v-.414l.533.059.474.237.296.177h.474l.119-.237-.711-.296-.652-.237-.356-.236-.118-.178V38.9l.178-.474.415-.355.236-.119.356-.06Z"/><path fill="url(#p)" d="M34.749 37.893h.652l.592.297.415.475-.06.475-.118.06h-.414l-.534-.476-.415-.06-.237.12-.118.297v.95l.118.297.237.178.415-.06.297-.296.059-.179.415-.06.296.12.06.356-.416.475-.415.297-.177.06h-.949l-.355-.179-.415-.475-.178-.534v-.891l.178-.535.356-.415.474-.238.237-.06Z"/><path fill="url(#q)" d="M28.634 37.943h.592l.237.178.355 1.126.178.652.118-.06.473-1.718.119-.12.828-.058.06.237-.592 1.72-.415 1.007-.118.178-.237.06h-.414l-.355-.179-.71-2.134-.237-.652v-.178l.119-.06Z"/><path fill="url(#r)" d="M27.726 37.893h.476l.12.059.119.236v.178l-.12.236-.714.355-.179.295-.06.355-.059 1.36-.179.177h-.655l-.06-.06-.059-.59v-2.306l.12-.177.535-.06.238.12.06.117h.298l.119-.295Z"/><path fill="url(#s)" d="M32.193 37.943h.707l.06.059v3.024l-.119.118h-.59l-.235-.178v-2.905l.177-.118Z"/><path fill="url(#t)" d="M10.26 25.534h1.791l.06.119-.06 1.36-.18.06H10.2v-1.48l.06-.059Z"/><path fill="url(#u)" d="M45.445 26.229h.534l.415.178.237.475v.535l-.237.475-.415.238-.119.06h-.474l-.474-.298-.178-.237v-.12h-.119l-.118-.296v-.357l.296-.356.415-.238.237-.06Zm-.77.653.059.297.415.476.355.297.297.06.118-.298-.059-.119-.474-.237h-.178l-.06-.357-.118-.119h-.178v.178h-.118l-.06-.178Zm1.54 0-.236.535.118.06.06.118.237-.356v-.297l-.178-.06Z"/><path fill="url(#v)" d="M32.193 36.925h.59l.117.06.06.54-.06.12h-.825l-.059-.3.177-.42Z"/><defs><linearGradient id="a" x1="22.472" x2="22.472" y1=".022" y2="21.067" gradientUnits="userSpaceOnUse"><stop stop-color="#EAEAF5"/><stop offset="1" stop-color="#C9D2F4"/></linearGradient><linearGradient id="b" x1="25.712" x2="25.712" y1="27.792" y2="34.568" gradientUnits="userSpaceOnUse"><stop stop-color="#EAEAF5"/><stop offset="1" stop-color="#C9D2F4"/></linearGradient><linearGradient id="c" x1="4.489" x2="4.489" y1="25.285" y2="34.791" gradientUnits="userSpaceOnUse"><stop stop-color="#EAEAF5"/><stop offset="1" stop-color="#C9D2F4"/></linearGradient><linearGradient id="d" x1="31.47" x2="31.47" y1="14.465" y2="25.236" gradientUnits="userSpaceOnUse"><stop stop-color="#EAEAF5"/><stop offset="1" stop-color="#C9D2F4"/></linearGradient><linearGradient id="e" x1="41.819" x2="41.819" y1="27.718" y2="34.742" gradientUnits="userSpaceOnUse"><stop stop-color="#EAEAF5"/><stop offset="1" stop-color="#C9D2F4"/></linearGradient><linearGradient id="f" x1="16.378" x2="16.378" y1="27.792" y2="34.741" gradientUnits="userSpaceOnUse"><stop stop-color="#EAEAF5"/><stop offset="1" stop-color="#C9D2F4"/></linearGradient><linearGradient id="g" x1="34.893" x2="34.893" y1="27.793" y2="34.742" gradientUnits="userSpaceOnUse"><stop stop-color="#EAEAF5"/><stop offset="1" stop-color="#C9D2F4"/></linearGradient><linearGradient id="h" x1="11.155" x2="11.155" y1="27.966" y2="34.568" gradientUnits="userSpaceOnUse"><stop stop-color="#EAEAF5"/><stop offset="1" stop-color="#C9D2F4"/></linearGradient><linearGradient id="i" x1="17.659" x2="17.659" y1="36.925" y2="41.218" gradientUnits="userSpaceOnUse"><stop stop-color="#EAEAF5"/><stop offset="1" stop-color="#C9D2F4"/></linearGradient><linearGradient id="j" x1="7.047" x2="7.047" y1="36.876" y2="41.219" gradientUnits="userSpaceOnUse"><stop stop-color="#EAEAF5"/><stop offset="1" stop-color="#C9D2F4"/></linearGradient><linearGradient id="k" x1="38.229" x2="38.229" y1="37.893" y2="41.268" gradientUnits="userSpaceOnUse"><stop stop-color="#EAEAF5"/><stop offset="1" stop-color="#C9D2F4"/></linearGradient><linearGradient id="l" x1="24.457" x2="24.457" y1="37.893" y2="41.268" gradientUnits="userSpaceOnUse"><stop stop-color="#EAEAF5"/><stop offset="1" stop-color="#C9D2F4"/></linearGradient><linearGradient id="m" x1="10.474" x2="10.474" y1="37.893" y2="41.268" gradientUnits="userSpaceOnUse"><stop stop-color="#EAEAF5"/><stop offset="1" stop-color="#C9D2F4"/></linearGradient><linearGradient id="n" x1="14.058" x2="14.058" y1="37.943" y2="41.269" gradientUnits="userSpaceOnUse"><stop stop-color="#EAEAF5"/><stop offset="1" stop-color="#C9D2F4"/></linearGradient><linearGradient id="o" x1="21.155" x2="21.155" y1="37.893" y2="41.268" gradientUnits="userSpaceOnUse"><stop stop-color="#EAEAF5"/><stop offset="1" stop-color="#C9D2F4"/></linearGradient><linearGradient id="p" x1="34.956" x2="34.956" y1="37.893" y2="41.218" gradientUnits="userSpaceOnUse"><stop stop-color="#EAEAF5"/><stop offset="1" stop-color="#C9D2F4"/></linearGradient><linearGradient id="q" x1="30.055" x2="30.055" y1="37.943" y2="41.144" gradientUnits="userSpaceOnUse"><stop stop-color="#EAEAF5"/><stop offset="1" stop-color="#C9D2F4"/></linearGradient><linearGradient id="r" x1="27.398" x2="27.398" y1="37.893" y2="41.144" gradientUnits="userSpaceOnUse"><stop stop-color="#EAEAF5"/><stop offset="1" stop-color="#C9D2F4"/></linearGradient><linearGradient id="s" x1="32.488" x2="32.488" y1="37.943" y2="41.144" gradientUnits="userSpaceOnUse"><stop stop-color="#EAEAF5"/><stop offset="1" stop-color="#C9D2F4"/></linearGradient><linearGradient id="t" x1="11.155" x2="11.155" y1="25.534" y2="27.073" gradientUnits="userSpaceOnUse"><stop stop-color="#EAEAF5"/><stop offset="1" stop-color="#C9D2F4"/></linearGradient><linearGradient id="u" x1="45.564" x2="45.564" y1="26.229" y2="28.189" gradientUnits="userSpaceOnUse"><stop stop-color="#EAEAF5"/><stop offset="1" stop-color="#C9D2F4"/></linearGradient><linearGradient id="v" x1="32.488" x2="32.488" y1="36.925" y2="37.645" gradientUnits="userSpaceOnUse"><stop stop-color="#EAEAF5"/><stop offset="1" stop-color="#C9D2F4"/></linearGradient></defs></svg>