<svg xmlns="http://www.w3.org/2000/svg" width="77" height="25" fill="none"><path fill="url(#a)" d="M4.455.961h2.522l.89.371.89.52 1.187 1.112 1.261 1.261v.149h.149v.148l.297.148 1.409 1.41v.148h.148l.52.594 3.19 3.19.667.89.445.964.075.371v.89l-.371.89-.446.668-.89.964-.667.742-4.08 4.08-.594.52-1.039 1.112-.815.816-.89.668-1.04.52-.667.148-1.113.074-1.26-.149-.817-.296-.742-.445-.741-.668-.668-1.038-.371-1.113-.074-.371v-1.484l.222-.89.594-1.187.816-.964 1.41-1.41.593-.52.593-.593.594-.445-.149-.296-.519-.594-3.19-3.19-.445-.742-.445-1.187-.074-.296V4.893l.297-.964.445-.89.667-.817.668-.593 1.039-.52.519-.148Z"/><path fill="url(#b)" d="M26.49 5.56h2.448l1.78.446.965.445.668.445.816.816.593 1.039.371 1.112.074.371v1.558l-.37.965-.446.593-.667.52-.668.222-.52.148-.741.074-5.341.075V15.5l.222.594.594.52.593.296.297.074h2.003l1.038-.52.965-.815.296-.149.075.223.741.297.816.519.371.37v.965l-.445.742-.519.52-.742.519-.742.222h-.148l-.223.223-2.448.148-2.225-.074-.742-.074-.668-.297-.89-.445-.667-.52-.594-.667-.52-.89-.296-.816-.297-1.929V11.57l.297-1.855.445-1.039.668-.964.52-.593.89-.668 1.112-.52.742-.222.52-.148Zm.445 3.339-.593.148-.445.297-.445.594-.075.222V11.2l.149.148h3.857l.594-.074.222-.371-.074-.742-.297-.593-.519-.445-.37-.149-.52-.074h-1.484Z"/><path fill="url(#c)" d="M55.493 5.56h2.522l1.039.298.741.148.668.297.816.519.742.668.52.741.519 1.113.222 1.261v.89l-.297 1.113-.519.668-.593.52-.52.222-1.335.222-4.303.074-1.26.075.074.89.148.742.297.37 1.038.594h2.151l1.04-.52.815-.741.445-.223.223.223.964.52.742.593.222.222.075.371-.52 1.039-.593.667-.816.52-.445.148h-.371l-.074.223-.149.074-1.038.074h-3.487l-.89-.074-.445-.223-.816-.297-.742-.519-.445-.37-.742-1.04-.297-.593-.37-1.26-.075-.594v-4.6l.52-1.558.445-.816.89-.964.52-.52 1.112-.667.593-.222.594-.149.445-.148Zm1.038 3.19-1.112.297-.52.371-.37.594-.075.445v.816l.149.074 4.525-.074.074-.371v-.593l-.148-.52-.668-.667-.742-.223-.593-.148h-.52Z"/><path fill="url(#d)" d="M40.659 5.56h3.783l.297.223.964.223 1.113.593.667.668.52.816.37.816.223 1.187.074.89.075 3.71v3.783l-.075 1.187-.148.37-.222.149h-3.19l-.371-.074-.149-.371-.074-1.855-.074-7.121-.371-.742-.668-.445-.148-.075-3.041-.074-.149.668-.074 9.644-.148.37-.52.075h-2.819l-.296-.074-.223-.965-.074-1.632V9.27l.074-1.261.148-.742.445-.52.89-.444.594-.075.297-.222 1.41-.223.37-.148.52-.074Z"/><path fill="url(#e)" d="M63.655 5.56h3.487l.37.372.52.667 1.335 2.003.816 1.261.742 1.187 1.335 2.003 1.113 1.706 1.855 2.82.741 1.112.446.742.074.593-.297.149h-3.487l-.37-.149-.594-.667-.89-1.41-.965-1.41v-.148h-.148l-.148.371-.594.816-1.187 1.78-.667.743-.445.074h-3.413l-.297-.149.223-.667 1.113-1.78 1.112-1.707 1.41-2.077.297-.37.148-.372-.074-.593-.816-1.336-1.336-2.002-.816-1.262-.741-1.186-.075-.223v-.593l.223-.297Z"/><path fill="url(#f)" d="M4.455.961h.964v.074l-.89.149-.964.37-1.113.742-.594.816-.593 1.336-.223 1.038.075 1.039.37 1.187.52.816.445.52v.148l.297.148.37.37v.15l.297.147.223.223v.148l.297.149.445.445v.148l.296.149.89.89.52.742 1.038 1.112.89.965.89.816.817.816.52.89.222.668.074.89v1.854l.222.075v-.149l.371-.148.075-.223.593-.519 3.783-3.783h.149l.074-.223.37-.37h.15l.148-.298.741-.741.594-1.187.074-.223v-.89l-.371-1.039-.445-.593v-.148l-.297-.149-3.635-3.635-.52-.445-.518-.593-.371-.371v-.149l-.297-.148-.445-.52-.297-.222v-.148l-.296-.148-.372-.371-.074-.223h-.148v-.148l-.223-.075-.519-.593-.593-.52-.668-.444-.816-.371-.89-.149V.961h.89l.89.371.89.52 1.187 1.112 1.261 1.261v.149h.149v.148l.297.148 1.409 1.41v.148h.148l.52.594 3.19 3.19.667.89.445.964.075.371v.89l-.371.89-.446.668-.89.964-.667.742-4.08 4.08-.594.52-1.039 1.112-.815.816-.89.668-1.04.52-.667.148-1.113.074-1.26-.149-.817-.296-.742-.445-.741-.668-.668-1.038-.371-1.113-.074-.371v-1.484l.222-.89.594-1.187.816-.964 1.41-1.41.593-.52.593-.593.594-.445-.149-.296-.519-.594-3.19-3.19-.445-.742-.445-1.187-.074-.296V4.893l.297-.964.445-.89.667-.817.668-.593 1.039-.52.519-.148Z"/><path fill="url(#g)" d="M72.258 5.041h1.484l.741.297.594.445.445.742.148.37.074 1.04-.074.741-.519 1.039-.964 1.41-.965 1.335-.148.222h-.297l-.89-1.261-.965-1.632-.593-1.039-.074-.89v-.816l.148-.593.445-.668.52-.445.519-.223.37-.074Z"/><path fill="url(#h)" d="M63.655 5.56h3.487l.37.372.52.667 1.335 2.003.816 1.261.742 1.187 1.335 2.003 1.113 1.706 1.855 2.82.741 1.112.446.742.074.593-.297.149h-3.487l-.37-.149-.594-.667-.89-1.41-.965-1.41h.223l.37.446v.148h.15l.444.594.445.816.742 1.038.594.371.519.074h1.855l.89-.148.074-.297-.668-.964-.667-1.039-.594-.964-1.038-1.558v-.148h-.149l-.296-.445-1.04-1.706-.593-.89-.074-.297h-.148l-.742-1.187-.816-1.336-.964-1.41-.89-1.334-.371-.297-.297-.148h-2.82l-.37.148.074.52.965 1.631.741 1.113 1.113 1.706.742 1.113.222.445v.668l-.445.742L66.03 15.5l-.668 1.039-.668.964-.519.816-.667 1.113-.149.445 1.187.148h1.558l.89-.148.52-.445.741-1.113.742-1.187.594-.667.148.074-.742 1.038-1.187 1.78-.667.743-.445.074h-3.413l-.297-.149.223-.667 1.113-1.78 1.112-1.707 1.41-2.077.297-.37.148-.372-.074-.593-.816-1.336-1.336-2.002-.816-1.262-.741-1.186-.075-.223v-.593l.223-.297Z"/><path fill="url(#i)" d="M40.659 5.56h3.783l.297.223.964.223 1.113.593.667.668.52.816.37.816.223 1.187.074.89.075 3.71v3.783l-.075 1.187-.148.37-.222.149h-3.19l-.371-.074-.075-.371.52.222.89.074 2.3-.074V9.79l-.52-1.558-.519-.741-.742-.668-.742-.445-.816-.297-.741-.148-.742-.074h-2.448l-2.523.445-1.112.37-.816.371-.297.075-.148.667-.075 11.721h-.074l-.074-.37-.074-1.633V9.27l.074-1.261.148-.742.445-.52.89-.444.594-.075.297-.222 1.41-.223.37-.148.52-.074Z"/><path fill="url(#j)" d="M26.49 5.56h2.448l1.78.446.965.445.668.445.816.816.593 1.039.371 1.112v.371l-.148-.074-.371-1.261-.371-.668-.594-.667v-.149l-.296-.148-.52-.445-1.112-.52-.816-.222-1.187-.148H26.49l-1.26.296-.891.446-.668.519-.296.148-.075.223h-.148l-.148.296-.594.816-.742 1.484-.074.668v4.45l.148.965.371.965.371.667v.149h.149l.519.667 1.038.668 1.113.445 1.113.223h2.745l1.706-.223-.074.223-.149.074-2.448.148-2.225-.074-.742-.074-.668-.297-.89-.445-.667-.52-.594-.667-.52-.89-.296-.816-.297-1.929V11.57l.297-1.855.445-1.039.668-.964.52-.593.89-.668 1.112-.52.742-.222.52-.148Z"/><path fill="url(#k)" d="M54.602 14.019h6.305v.074l-.89.148-4.303.075-1.26.074.074.89.148.742.297.37 1.038.594h2.151l1.04-.52.815-.741.445-.223.223.223.964.52.742.593.223.222.074.371-.52 1.039-.593.667-.816.52-.445.148h-.371l-.074.223-.149.074-1.038.074h-3.487l-.89-.074-.445-.223-.816-.297-.742-.519-.445-.37-.742-1.04-.297-.593.075-.222.445.816.519.667.668.594.074.148 1.335.594.964.296.816.075h2.226l1.261-.075 1.261-.445.668-.445.37-.222.668-.816.223-.594-.148-.445-1.187-.742-.742-.222-.52.297-.37.37-.297.223-.668.297-.37.074h-1.781l-.965-.297-.593-.445-.37-.52-.15-.444V14.39l.15-.297.222-.074Z"/><path fill="url(#l)" d="M55.493 5.56h2.522l1.039.298.741.148.668.297.816.519.742.668.52.741.519 1.113.222 1.261v.89l-.297 1.113-.519.668-.593.52-.52.222h-.445l.223-.149.89-.445.37-.296.52-.89.074-.372v-.964l-.074-1.113-.445-1.187-.816-.964-.742-.742-1.038-.52-1.187-.296-.668-.074-.37-.074h-2.226l-1.187.296-.965.52-.445.296-.667.594-.742.964-.52 1.039-.296 1.335-.074 1.41v1.78l.148 1.484.148.816v.37l-.148-.296-.222-.742-.075-.593v-4.6l.52-1.558.445-.816.89-.964.52-.52 1.112-.667.593-.222.594-.149.445-.148Z"/><path fill="url(#m)" d="M56.385 8.602h.89l.817.149.445.222.37.371.297.445.075.223v1.26l-.149.15-.297.073h-4.228l-.37-.222-.075-.223v-.519l.223-.742.445-.593.519-.371.445-.149.593-.074Zm.149.149-1.113.296-.52.371-.37.594-.074.445v.816l.148.074 4.525-.074.074-.371v-.593l-.148-.52-.668-.667-.741-.223-.594-.148h-.52Z"/><path fill="url(#n)" d="m27.901 8.602.965.074.816.371.37.445.297.816v.816l-.37.297-.223.074h-3.932l-.445-.148-.074-.074v-1.187l.223-.594.593-.519.445-.222 1.335-.149Zm-.964.297-.594.148-.445.297-.445.594-.074.222V11.2l.148.148h3.858l.593-.074.223-.371-.074-.742-.297-.593-.52-.445-.37-.149-.52-.074h-1.483Z"/><path fill="url(#o)" d="M34.13 10.234h.075v1.558l-.371.964-.446.594-.667.52-.668.222-.52.148-.74.074-5.416.074.148-.296.223-.075h5.712l.742-.148.741-.445.668-.593.371-1.039.074-.074.074-1.484Z"/><path fill="url(#p)" d="M25.305 14.463h.074l.074 1.038.223.594.593.519.594.297.297.074h2.003l1.038-.52.964-.815.297-.149.074.223.742.296.816.52.297.37-.445-.148-.816-.519-.594-.223-.445.075-.593.519-.371.297-.89.296-1.187.075-1.261-.149-.52-.222-.519-.297-.37-.594-.075-.37v-1.187Z"/><path fill="url(#q)" d="m41.474 9.196 1.632.074.742.222v.149l.297.074.445.742.074.37v3.339l-.074 3.709h-.075l-.074-7.122-.37-.741-.668-.446-.149-.074-2.967-.074.223-.148.964-.074Z"/><path fill="url(#r)" d="m36.133 19.581.148.297.371.074 2.151.074.816-.074.297-.074-.074.223-.52.074h-2.818l-.297-.074-.074-.52Z"/><path fill="url(#s)" d="M33.017 18.395v.223l-.52.519-.741.52-.742.222-.148-.149.89-.37.816-.52.445-.445Z"/><defs><linearGradient id="a" x1="9.462" x2="9.462" y1=".961" y2="24.329" gradientUnits="userSpaceOnUse"><stop stop-color="#EAEAF5"/><stop offset="1" stop-color="#C9D2F4"/></linearGradient><linearGradient id="b" x1="27.751" x2="27.751" y1="5.561" y2="20.249" gradientUnits="userSpaceOnUse"><stop stop-color="#EAEAF5"/><stop offset="1" stop-color="#C9D2F4"/></linearGradient><linearGradient id="c" x1="56.828" x2="56.828" y1="5.561" y2="20.175" gradientUnits="userSpaceOnUse"><stop stop-color="#EAEAF5"/><stop offset="1" stop-color="#C9D2F4"/></linearGradient><linearGradient id="d" x1="42.328" x2="42.328" y1="5.561" y2="20.175" gradientUnits="userSpaceOnUse"><stop stop-color="#EAEAF5"/><stop offset="1" stop-color="#C9D2F4"/></linearGradient><linearGradient id="e" x1="69.738" x2="69.738" y1="5.561" y2="20.175" gradientUnits="userSpaceOnUse"><stop stop-color="#EAEAF5"/><stop offset="1" stop-color="#C9D2F4"/></linearGradient><linearGradient id="f" x1="9.462" x2="9.462" y1=".961" y2="24.329" gradientUnits="userSpaceOnUse"><stop stop-color="#EAEAF5"/><stop offset="1" stop-color="#C9D2F4"/></linearGradient><linearGradient id="g" x1="73" x2="73" y1="5.041" y2="12.682" gradientUnits="userSpaceOnUse"><stop stop-color="#EAEAF5"/><stop offset="1" stop-color="#C9D2F4"/></linearGradient><linearGradient id="h" x1="69.738" x2="69.738" y1="5.561" y2="20.175" gradientUnits="userSpaceOnUse"><stop stop-color="#EAEAF5"/><stop offset="1" stop-color="#C9D2F4"/></linearGradient><linearGradient id="i" x1="42.328" x2="42.328" y1="5.561" y2="20.175" gradientUnits="userSpaceOnUse"><stop stop-color="#EAEAF5"/><stop offset="1" stop-color="#C9D2F4"/></linearGradient><linearGradient id="j" x1="27.714" x2="27.714" y1="5.561" y2="20.249" gradientUnits="userSpaceOnUse"><stop stop-color="#EAEAF5"/><stop offset="1" stop-color="#C9D2F4"/></linearGradient><linearGradient id="k" x1="56.753" x2="56.753" y1="14.019" y2="20.176" gradientUnits="userSpaceOnUse"><stop stop-color="#EAEAF5"/><stop offset="1" stop-color="#C9D2F4"/></linearGradient><linearGradient id="l" x1="56.828" x2="56.828" y1="5.561" y2="16.837" gradientUnits="userSpaceOnUse"><stop stop-color="#EAEAF5"/><stop offset="1" stop-color="#C9D2F4"/></linearGradient><linearGradient id="m" x1="56.719" x2="56.719" y1="8.602" y2="11.495" gradientUnits="userSpaceOnUse"><stop stop-color="#EAEAF5"/><stop offset="1" stop-color="#C9D2F4"/></linearGradient><linearGradient id="n" x1="27.827" x2="27.827" y1="8.602" y2="11.495" gradientUnits="userSpaceOnUse"><stop stop-color="#EAEAF5"/><stop offset="1" stop-color="#C9D2F4"/></linearGradient><linearGradient id="o" x1="29.791" x2="29.791" y1="10.234" y2="14.388" gradientUnits="userSpaceOnUse"><stop stop-color="#EAEAF5"/><stop offset="1" stop-color="#C9D2F4"/></linearGradient><linearGradient id="p" x1="29.348" x2="29.348" y1="14.463" y2="17.282" gradientUnits="userSpaceOnUse"><stop stop-color="#EAEAF5"/><stop offset="1" stop-color="#C9D2F4"/></linearGradient><linearGradient id="q" x1="42.475" x2="42.475" y1="9.196" y2="17.875" gradientUnits="userSpaceOnUse"><stop stop-color="#EAEAF5"/><stop offset="1" stop-color="#C9D2F4"/></linearGradient><linearGradient id="r" x1="38.025" x2="38.025" y1="19.581" y2="20.175" gradientUnits="userSpaceOnUse"><stop stop-color="#EAEAF5"/><stop offset="1" stop-color="#C9D2F4"/></linearGradient><linearGradient id="s" x1="31.941" x2="31.941" y1="18.395" y2="19.879" gradientUnits="userSpaceOnUse"><stop stop-color="#EAEAF5"/><stop offset="1" stop-color="#C9D2F4"/></linearGradient></defs></svg>