<svg xmlns="http://www.w3.org/2000/svg" width="141" height="36" fill="none"><path fill="url(#a)" d="M51.229 8.031h2.357l1.317.208 1.04.277 1.109.485.97.554.97.761.556.554.693.9.624 1.108.416 1.038.346 1.316.208 1.523v2.77h-14.35l.209 1.523.415 1.246.416.761.486.624.831.623.902.415.831.208.486.07h1.386l1.179-.209.832-.346.623-.415.486-.554.346-.762.208-.623h4.714l-.277 1.316-.416 1.038-.555.97-.762.9-.624.553-.97.623-1.18.554-1.108.347-1.595.276-.693.07h-2.08l-1.455-.208-1.456-.415-1.11-.485-.97-.554-.693-.554-.693-.623-.693-.761-.694-1.039-.623-1.316-.416-1.384-.208-1.108-.07-.623V17.24l.208-1.454.347-1.316.624-1.454.693-1.107.624-.762.485-.554.763-.623.693-.485.97-.553 1.248-.485 1.595-.346.485-.07Zm.554 3.6-.97.208-.693.277-.694.485-.762.762-.555.969-.416 1.108-.138.761h9.497l-.208-1.315-.277-.831-.416-.762-.624-.692-.693-.485-.902-.346-.831-.138h-1.318Z"/><path fill="url(#b)" d="M70.223 8.031h2.495l1.456.208 1.178.346 1.11.554.693.485.485.415.693.9.486.97.346 1.107.139.762v.485h-4.437l-.208-.554-.346-.831-.624-.692-.763-.347-.624-.138h-1.594l-.832.208-.693.415-.416.485-.208.623v.761l.208.554.347.347.554.346 1.387.415 3.327.623 1.525.416 1.317.554.763.484.693.623.485.623.416.831.277 1.108.07.623v1.108l-.208 1.315-.416 1.108-.416.692-.624.762-.901.692-1.04.554-1.248.416-1.04.207-1.317.139h-1.663l-1.318-.139-1.525-.346-1.04-.415-.9-.485-.694-.554-.693-.692-.624-.97-.346-.761-.347-1.316-.07-1.107h4.576l.07.069.207 1.038.485.97.555.484.832.347.624.138 1.109.07 1.386-.14.763-.276.624-.415.277-.416.139-.415.069-.762-.139-.692-.277-.416-.485-.415-.97-.416-1.387-.346-2.565-.484-1.456-.416-1.04-.415-.9-.485-.902-.761-.624-.9-.347-.9-.208-1.247v-1.315l.208-1.039.486-1.107.485-.693.624-.692.901-.623 1.04-.554 1.178-.416 1.387-.277Z"/><path fill="url(#c)" d="M88.316 8.031h2.496l1.386.208 1.248.346 1.109.554.762.554.694.693.624.969.415.97.278 1.176.07.762H92.96l-.207-.485-.347-.83-.416-.555-.624-.415-.624-.208-.346-.07h-1.664l-.901.278-.555.346-.208.07-.138.276-.278.623v1.039l.278.554.554.415.832.346 1.456.346 2.703.485 1.456.416 1.11.415 1.039.623.763.692.485.693.346.761.208.762.07.485v1.938l-.208 1.039-.347.9-.485.83-.624.693-.624.554-1.11.623-.9.346-1.11.277-1.732.208h-1.733l-1.664-.208-1.317-.346-1.179-.485-.762-.484-.901-.762-.555-.692-.555-.97-.416-1.246-.138-.9v-.692h4.575l.277 1.177.416.83.624.554.763.347.693.138 1.178.07 1.248-.14.693-.207.555-.346.416-.485.208-.623v-1.038l-.347-.693-.485-.415-.763-.346-1.317-.346-2.842-.554-1.525-.416-1.317-.554-.763-.484-.832-.762-.485-.761-.346-.831-.208-1.108v-1.662l.277-1.177.555-1.107.554-.693.555-.554.97-.623.97-.484 1.249-.416 1.178-.208Z"/><path fill="url(#d)" d="M121.174 8.447h5.269l1.109 2.631 1.109 2.7 1.178 2.839 1.317 3.185.347.9.347-.831.901-2.354 1.109-2.908 1.525-4.016.832-2.146H141l-.416 1.108-.832 2.077-1.386 3.392-1.317 3.254-1.387 3.393-1.178 2.908-1.04 2.561-1.525 3.74-1.179 2.907-.554 1.316h-4.783l.069-.347 2.496-6.092.97-2.354-.208-.623-1.386-3.116-2.496-5.677-2.634-5.954-1.04-2.355v-.138Z"/><path fill="url(#e)" d="M111.054 4.085h2.634l1.456.07.069 4.223 4.298.069v3.67l-4.298.069v10.247l.139.969.277.554.485.415.555.208.97.069 1.04-.139.971-.276v3.946l-1.11.346-1.525.208h-1.039l-1.248-.139-1.04-.277-1.109-.553-.763-.623-.624-.762-.485-1.039-.277-.969-.139-1.246V12.117h-2.495v-3.67h2.495V4.154l.763-.069Z"/><path fill="url(#f)" d="M100.586 8.447h4.853l.069 19.87-.069.07h-4.783l-.07-.07V8.447Z"/><path fill="url(#g)" d="M21.56.762h1.871l1.11.277 1.109.554.693.553.554.624.555.969.347.97.138.76v1.87l-.208 1.039-.346.9-.555.83-.485.554-.763.554-.97.485-1.11.277-.692.069h-.832l-1.11-.138-1.247-.416-.763-.485-.347-.276-.554-.693-.347-.761-.138-.485v-.346h2.495l.278.692.416.485.831.346.486.07h.693l.97-.208.694-.416.416-.485.277-.553.277-1.385H17.4V5.608l.208-1.315.347-.9.347-.623.554-.693.693-.554.97-.484 1.04-.277Zm.485 1.87-.763.207-.554.415-.416.554-.277.83-.07.555.832.069h4.367l.07-.07-.07-.553-.277-.692-.485-.624-.555-.415-.832-.277h-.97Z"/><path fill="url(#h)" d="M27.59 12.185h1.317l1.178.208 1.11.485.762.554.693.692.555.9.346.9.208.97v1.938l-.208 1.039-.485 1.107-.555.762-.623.623-.763.485-.97.415-1.04.208h-1.803l-1.04-.208-.9-.346-.763-.485-.555-.554-.554-.969-.208-.692v-.346h2.495l.278.761.277.346.693.347.555.138h1.247l.832-.277.555-.415.346-.416.278-.554.208-.83.07-.554h-7.904V17.1l.208-1.315.416-1.108.486-.762.693-.692.901-.554.97-.346.694-.139Zm.624 1.87-.832.138-.555.277-.347.277-.415.693-.208.623-.07.623h5.269l-.07-.623-.485-.97-.346-.346-.555-.415-.555-.208-.831-.07Z"/><path fill="url(#i)" d="M10.398.762h1.803l1.04.277.831.415.901.692.624.831.416.9.278 1.108.069.762v1.246H8.457L8.665 8.1l.347.83.485.554.832.416.693.138h.763l.693-.138.693-.346.416-.485.208-.623h2.496L16.22 9l-.277.761-.485.693-.624.623-.693.415-.97.346-.694.139-.693.069h-.97l-.971-.138-1.04-.347-.763-.415-.762-.623-.693-.9-.416-.831-.278-.97-.069-.415V5.47l.208-.97.347-.9.485-.83.693-.762.901-.623.763-.346.762-.208.416-.07Zm.277 1.87-.762.276-.555.415-.485.624-.277.692-.07.623h3.259l2.01-.07-.208-1.107-.416-.692-.554-.485-.832-.277h-1.11Z"/><path fill="url(#j)" d="M4.783 12.185H6.1l1.04.208.832.346.901.623.555.554.554.9.347.97.139.692.069.692v1.247H2.634l.208 1.177.485.969.624.554.694.277.277.069h1.317l.693-.208.555-.346.346-.554.208-.484h2.427l-.07.623-.346.83-.416.624-.555.554-.97.553-.902.277-.762.139H4.645l-1.248-.277-1.11-.554-.623-.485-.555-.553-.554-.9-.416-1.108L0 18.832v-1.939l.277-1.177.347-.83.554-.831.763-.762.763-.484.762-.346.832-.208.485-.07Zm.208 1.87-.762.138-.694.347-.554.553-.416.831-.139.416v.346h5.269l-.07-.693-.277-.761-.416-.554-.624-.415-.97-.208H4.99Z"/><path fill="url(#k)" d="M21.56 23.817h1.871l1.11.277 1.109.554.693.554.554.623.416.692.347.762.277 1.246v1.87l-.208 1.038-.346.83-.486.832-.554.623-.763.554-.831.415-.902.277-1.109.138h-.693l-1.179-.138-1.109-.346-.832-.485-.554-.485-.485-.692-.347-.83-.07-.624h2.496l.347.831.485.416.763.276.485.07h.693l.693-.139.832-.415.485-.554.278-.554.208-.9.069-.485H17.4v-1.246l.139-1.108.347-1.107.416-.762.693-.83 1.04-.693.9-.346.625-.139Zm.416 1.87-.832.276-.624.554-.347.693-.208.83v.208l.139.07h5.06l.07-.07-.07-.554-.346-.83-.624-.693-.832-.415-.277-.07h-1.11Z"/><path fill="url(#l)" d="M10.398 23.817h1.733l1.11.277 1.04.554.623.485.555.692.554 1.108.278 1.108.069.761v1.177l-.07.07H8.458l.208 1.107.347.83.485.555.832.415.624.139h.901l.832-.208.624-.346.346-.554.139-.485h2.496l-.07.554-.346.9-.694.9-.9.623-.833.346-.97.208-.693.07h-.902l-1.317-.208-.9-.346-.833-.485-.762-.692-.485-.693-.416-.83-.278-.97-.069-.415v-2.008l.277-1.177.555-1.108.554-.761.694-.624.97-.553 1.04-.347.485-.069Zm.277 1.87-.762.276-.555.416-.485.623-.346.9-.07.346.208.07h5.06l.07-.208-.277-1.108-.416-.623-.416-.346-.624-.277-.277-.07h-1.11Z"/><path fill="url(#m)" d="M16.43 12.185h1.316l.97.208.902.346.901.623.555.554.554.9.347.97.138.692.07.692v1.247H14.28l.208 1.177.277.623.278.415.554.485.624.277.347.069h1.317l.901-.277.485-.415.347-.831 2.426-.07.07.347-.278.83-.485.831-.555.554-.9.554-1.04.346-.832.139H16.29l-.971-.208-.901-.346-.97-.623-.694-.692-.485-.762-.416-.97-.208-.969v-2.008l.208-.969.416-1.038.555-.831.762-.762.763-.484.762-.346.832-.208.485-.07Zm.346 1.87-.832.208-.555.346-.346.346-.277.346-.347.762-.07.623h5.269l-.208-1.108-.416-.761-.624-.485-.624-.208-.97-.07Z"/><path fill="url(#n)" d="M102.319 0h1.317l.762.277.624.485.416.484.347.831.069.346v.554l-.208.692-.347.624-.623.623-.694.346-.485.138h-1.109l-.901-.346-.693-.623-.416-.623-.278-.9.07-.831.277-.692.485-.623.624-.485.763-.277Z"/><defs><linearGradient id="a" x1="52.165" x2="52.165" y1="8.031" y2="28.733" gradientUnits="userSpaceOnUse"><stop stop-color="#EAEAF5"/><stop offset="1" stop-color="#C9D2F4"/></linearGradient><linearGradient id="b" x1="71.713" x2="71.713" y1="8.031" y2="28.733" gradientUnits="userSpaceOnUse"><stop stop-color="#EAEAF5"/><stop offset="1" stop-color="#C9D2F4"/></linearGradient><linearGradient id="c" x1="89.772" x2="89.772" y1="8.031" y2="28.733" gradientUnits="userSpaceOnUse"><stop stop-color="#EAEAF5"/><stop offset="1" stop-color="#C9D2F4"/></linearGradient><linearGradient id="d" x1="131.087" x2="131.087" y1="8.447" y2="35.102" gradientUnits="userSpaceOnUse"><stop stop-color="#EAEAF5"/><stop offset="1" stop-color="#C9D2F4"/></linearGradient><linearGradient id="e" x1="113.723" x2="113.723" y1="4.085" y2="28.733" gradientUnits="userSpaceOnUse"><stop stop-color="#EAEAF5"/><stop offset="1" stop-color="#C9D2F4"/></linearGradient><linearGradient id="f" x1="103.047" x2="103.047" y1="8.447" y2="28.387" gradientUnits="userSpaceOnUse"><stop stop-color="#EAEAF5"/><stop offset="1" stop-color="#C9D2F4"/></linearGradient><linearGradient id="g" x1="22.669" x2="22.669" y1=".762" y2="12.047" gradientUnits="userSpaceOnUse"><stop stop-color="#EAEAF5"/><stop offset="1" stop-color="#C9D2F4"/></linearGradient><linearGradient id="h" x1="28.491" x2="28.491" y1="12.185" y2="23.471" gradientUnits="userSpaceOnUse"><stop stop-color="#EAEAF5"/><stop offset="1" stop-color="#C9D2F4"/></linearGradient><linearGradient id="i" x1="11.091" x2="11.091" y1=".762" y2="12.047" gradientUnits="userSpaceOnUse"><stop stop-color="#EAEAF5"/><stop offset="1" stop-color="#C9D2F4"/></linearGradient><linearGradient id="j" x1="5.268" x2="5.268" y1="12.185" y2="23.471" gradientUnits="userSpaceOnUse"><stop stop-color="#EAEAF5"/><stop offset="1" stop-color="#C9D2F4"/></linearGradient><linearGradient id="k" x1="22.669" x2="22.669" y1="23.817" y2="35.102" gradientUnits="userSpaceOnUse"><stop stop-color="#EAEAF5"/><stop offset="1" stop-color="#C9D2F4"/></linearGradient><linearGradient id="l" x1="11.091" x2="11.091" y1="23.817" y2="35.102" gradientUnits="userSpaceOnUse"><stop stop-color="#EAEAF5"/><stop offset="1" stop-color="#C9D2F4"/></linearGradient><linearGradient id="m" x1="16.914" x2="16.914" y1="12.185" y2="23.471" gradientUnits="userSpaceOnUse"><stop stop-color="#EAEAF5"/><stop offset="1" stop-color="#C9D2F4"/></linearGradient><linearGradient id="n" x1="102.977" x2="102.977" y1="0" y2="5.4" gradientUnits="userSpaceOnUse"><stop stop-color="#EAEAF5"/><stop offset="1" stop-color="#C9D2F4"/></linearGradient></defs></svg>