<svg xmlns="http://www.w3.org/2000/svg" width="61" height="31" fill="none"><mask id="a" width="61" height="31" x="0" y="0" maskUnits="userSpaceOnUse" style="mask-type:luminance"><path fill="#fff" d="M60.754.292H.631v30.706h60.123V.292Z"/></mask><g mask="url(#a)"><mask id="b" width="61" height="32" x="0" y="0" maskUnits="userSpaceOnUse" style="mask-type:luminance"><path fill="#fff" d="M60.787.254H.63v30.782h60.156V.254Z"/></mask><g mask="url(#b)"><path fill="url(#c)" d="M10.003 29.464c-1.384 0-2.559-.632-3.526-1.9-.968-1.264-1.452-2.782-1.452-4.55V8.263c0-1.797.487-3.325 1.46-4.584.973-1.257 2.147-1.886 3.518-1.886 1.372 0 2.556.633 3.518 1.897.962 1.265 1.444 2.79 1.444 4.573v3.084h-3.252v-3.17c0-.648-.178-1.201-.531-1.661-.354-.46-.78-.691-1.278-.691-.497 0-.92.23-1.27.69-.348.46-.521 1.014-.521 1.661v14.796c0 .647.174 1.197.522 1.65.349.453.772.68 1.27.68.497 0 .923-.226 1.277-.679.353-.45.53-1 .53-1.645v-5.311H9.972V13.57h4.994v9.447c0 1.796-.486 3.321-1.46 4.573-.972 1.251-2.14 1.877-3.5 1.877"/><path fill="url(#d)" d="M24.507 8.608c0-1.566-.597-2.351-1.791-2.351h-1.892v8.649h1.892c.497 0 .92-.23 1.27-.691.348-.46.521-1.014.521-1.66V8.606v.001Zm-1.876-6.514c1.748 0 3.032.625 3.85 1.877.72 1.092 1.078 2.617 1.078 4.573v3.925c0 1.913-.559 3.53-1.676 4.853l2.323 11.797h-3.391l-1.902-10.18h-2.09v10.18h-3.137V2.094h4.945Z"/><path fill="url(#e)" d="M45.753 29.119 42.037 2.094h3.287l2.61 21.066 2.628-21.066h3.29l-3.784 27.025h-4.315Z"/><path fill="url(#f)" d="M59.315 2.094h-3.137v27.023h3.137V2.094Z"/><path fill="url(#g)" d="M32.359 7.28c0 1.186-.813 2.147-1.813 2.147-1.001 0-1.814-.96-1.814-2.147 0-1.187.813-2.147 1.814-2.147 1 0 1.813.96 1.813 2.147Z"/><path fill="url(#h)" d="M38.214 4.248c0 1.186-.812 2.147-1.813 2.147-1 0-1.813-.96-1.813-2.147 0-1.187.812-2.148 1.813-2.148 1 0 1.813.961 1.813 2.148Z"/><path fill="url(#i)" d="M34.13 28.846c-1.354 0-2.574-.62-3.468-1.775-1.747-2.255-.851-5.441-.534-6.365 1.596-4.656 1.71-7.193.426-9.359l2.897-1.721c2.124 3.578 1.481 7.454-.136 12.172-.378 1.102-.52 2.522.011 3.208.346.445.641.485.904.463 1.084-.091 2.506-1.403 3.105-2.521 1.152-2.157 1.675-4.533 1.596-7.264-.073-2.505-.828-4.763-2.376-7.11l2.814-1.855c1.906 2.893 2.837 5.711 2.93 8.867.096 3.29-.574 6.3-1.99 8.952-1.058 1.979-3.387 4.087-5.794 4.29-.128.01-.255.017-.381.017"/><path fill="url(#j)" d="M61.57 28.521a.25.25 0 0 0 .15-.038c.035-.027.053-.067.053-.126 0-.058-.028-.097-.085-.119a.473.473 0 0 0-.159-.021h-.066v.304h.106Zm-.107.189v.37h-.275v-1.047h.292c.13 0 .2 0 .216.002a.52.52 0 0 1 .207.054c.093.05.139.134.139.25 0 .088-.025.151-.074.192a.35.35 0 0 1-.18.07.35.35 0 0 1 .147.06c.062.05.093.129.093.236v.094c0 .01 0 .02.002.03 0 .012.003.02.007.032l.01.029h-.261a.732.732 0 0 1-.017-.145.459.459 0 0 0-.017-.128.128.128 0 0 0-.078-.078.292.292 0 0 0-.094-.017l-.06-.004h-.057Zm.14-.94a.743.743 0 0 0-.554.237.76.76 0 0 0-.225.547c0 .21.075.404.228.557.153.153.337.23.551.23a.746.746 0 0 0 .55-.23.768.768 0 0 0 .229-.556.746.746 0 0 0-.227-.547.74.74 0 0 0-.552-.236m.668.114a.91.91 0 0 1 .276.668c0 .26-.094.494-.283.678a.92.92 0 0 1-.66.267.928.928 0 0 1-.672-.273.914.914 0 0 1-.274-.672.92.92 0 0 1 .295-.69.925.925 0 0 1 .65-.256.93.93 0 0 1 .668.277"/></g></g><defs><linearGradient id="c" x1="9.995" x2="9.995" y1="1.793" y2="29.467" gradientUnits="userSpaceOnUse"><stop stop-color="#EAEAF5"/><stop offset="1" stop-color="#C9D2F4"/></linearGradient><linearGradient id="d" x1="22.946" x2="22.946" y1="2.094" y2="29.119" gradientUnits="userSpaceOnUse"><stop stop-color="#EAEAF5"/><stop offset="1" stop-color="#C9D2F4"/></linearGradient><linearGradient id="e" x1="47.945" x2="47.945" y1="2.094" y2="29.119" gradientUnits="userSpaceOnUse"><stop stop-color="#EAEAF5"/><stop offset="1" stop-color="#C9D2F4"/></linearGradient><linearGradient id="f" x1="57.746" x2="57.746" y1="2.094" y2="29.117" gradientUnits="userSpaceOnUse"><stop stop-color="#EAEAF5"/><stop offset="1" stop-color="#C9D2F4"/></linearGradient><linearGradient id="g" x1="30.546" x2="30.546" y1="5.133" y2="9.427" gradientUnits="userSpaceOnUse"><stop stop-color="#EAEAF5"/><stop offset="1" stop-color="#C9D2F4"/></linearGradient><linearGradient id="h" x1="36.401" x2="36.401" y1="2.1" y2="6.395" gradientUnits="userSpaceOnUse"><stop stop-color="#EAEAF5"/><stop offset="1" stop-color="#C9D2F4"/></linearGradient><linearGradient id="i" x1="35.962" x2="35.962" y1="6.719" y2="28.846" gradientUnits="userSpaceOnUse"><stop stop-color="#EAEAF5"/><stop offset="1" stop-color="#C9D2F4"/></linearGradient><linearGradient id="j" x1="61.603" x2="61.603" y1="27.608" y2="29.499" gradientUnits="userSpaceOnUse"><stop stop-color="#EAEAF5"/><stop offset="1" stop-color="#C9D2F4"/></linearGradient></defs></svg>