<svg xmlns="http://www.w3.org/2000/svg" width="80" height="45" fill="none"><path fill="url(#a)" fill-rule="evenodd" d="M40.035.763c21.684 0 39.284 9.805 39.284 21.883 0 12.08-17.6 21.88-39.284 21.88-21.676 0-39.276-9.8-39.276-21.88C.76 10.568 18.36.763 40.035.763Zm0 1.974c-20.58 0-37.293 8.937-37.293 19.909 0 10.977 16.714 19.892 37.293 19.892s37.292-8.915 37.292-19.892c0-10.972-16.713-19.91-37.292-19.91Zm-6.9 22.01h-7.73c.091 1.902 1.16 2.784 2.76 2.784 1.187 0 2-.669 2.21-1.342h2.532c-.649 2.302-2.531 3.367-4.852 3.367-3.29 0-5.337-2.264-5.337-5.497 0-3.131 2.166-5.516 5.337-5.516 3.564 0 5.281 2.99 5.08 6.204Zm-5.153-4.232c-1.609 0-2.431 1.07-2.56 2.439h5.018c-.192-1.461-.805-2.44-2.459-2.44Zm38.626 4.232h-7.73c.081 1.902 1.16 2.784 2.75 2.784 1.197 0 2.01-.669 2.22-1.342h2.532c-.65 2.302-2.532 3.367-4.853 3.367-3.299 0-5.336-2.264-5.336-5.497 0-3.131 2.165-5.516 5.336-5.516 3.564 0 5.282 2.99 5.081 6.204Zm-5.163-4.232c-1.6 0-2.422 1.07-2.559 2.439h5.026c-.192-1.461-.804-2.44-2.467-2.44ZM9.194 29.273h2.869v-6.224h6.196v6.224h2.869V14.817h-2.87v5.919h-6.195v-5.919h-2.87v14.456Zm25.522 0h2.705v-5.651c0-2.122.75-2.991 2.303-2.991 1.334 0 1.937.849 1.937 2.566v6.076h2.696v-6.426c0-2.586-.768-4.304-3.829-4.304-1.206 0-2.467.566-3.19 1.738h-.063v-1.455h-2.559v10.447Zm11.944 0h2.695v-5.658l3.985 5.658h3.353l-4.386-5.862 3.884-4.585h-3.217l-3.619 4.504v-8.513H46.66v14.456Zm21.529 0h2.696V14.817h-2.696v14.456Z" clip-rule="evenodd"/><defs><linearGradient id="a" x1="40.039" x2="40.039" y1=".763" y2="44.527" gradientUnits="userSpaceOnUse"><stop stop-color="#EAEAF5"/><stop offset="1" stop-color="#C9D2F4"/></linearGradient></defs></svg>