<svg xmlns="http://www.w3.org/2000/svg" width="144" height="51" fill="none"><path fill="url(#a)" d="M48 27h6.074l1.012 1.853 1.603 3.2.675 1.263 2.615 5.22.422.759v.168l.253-.168.759-1.684 1.097-2.274 1.096-2.358 1.603-3.369.675-1.431.506-1.095.085-.084h22.27l.169.084.76 1.684.674 1.264 1.856 3.873.844 1.6 1.18 2.358.338.505.169.085-.085-11.369.085-.084h24.126l.085.084.084 13.221.253.842.506.758.506.421 1.097.337 1.097-.084.759-.421.422-.505.421-.843.169-.926v-12.8l.084-.084h5.652v2.358l.591-.337.844-.59 1.265-.673 1.434-.421 1.687-.337h1.266l1.855.421 1.013.421 1.096.758.844.758.844 1.263.506 1.263.168.674v.505l-.843.084h-4.134l-.253-.252-.422-.758-.253-.253-.843-.168h-.928l-.844.168-.675.505-.084.169v.758l.422.59.928.505 1.856.505 1.349.168 1.435.337 1.434.758 1.181 1.179.674 1.095.422 1.263.169.926v1.18l-.422 1.43-.675 1.18-.759.842-.675.59-1.434.673-.843.252-2.025.337h-1.35l-1.94-.337-1.35-.505-1.181-.59-.843-.673-.844-.758-.506-.673-.253.252-.591.758h-.168v.168l-1.097.843-1.434.673-1.097.337-.928.168h-3.374l-1.434-.252-1.434-.421-1.181-.59-1.181-1.094-.844-1.18-.506-1.01-.253-.842-.085-1.095V33.4l.085-1.263h-3.965l.084.337-.084 13.39h-5.736l-.085-13.643h-3.458l-.085 13.642h-5.314l-.675-.926-1.181-1.769-3.543-5.22-.675-.927-.253-.168v9.094l-.085.085h-18.98l-.085-.085-.084-10.273-.422.42-.843 1.6-.59 1.011-.591 1.18-.76 1.347-1.096 2.02-1.013 1.853-2.7 4.885-.505 1.01-.253-.253-.675-1.347-1.097-2.105-1.012-1.853-1.012-2.02-1.013-1.854-1.687-3.284-1.012-1.852-.928-1.853-1.013-1.853-1.771-3.452-.844-1.6L48 27Zm26.826 4.632-.084.168.084 2.695h7.424v4.463l-7.17.084-.085.421v2.105l.084.337 5.062.084h3.12l.085-.084V31.632h-8.52Zm55.086 5.894v3.369l.084.084 3.544.084.421.842.422.505.844.506.422.168h1.518l1.012-.505.338-.421.253-.59-.085-.59-.421-.504-1.266-.59-1.265-.42-.928-.253-1.687-.337-1.097-.169-.675-.337-.759-.42-.422-.422h-.253Z"/><path fill="url(#b)" d="M58 2h7.621l1.186 4.52 1.27 4.768.338 1.315.17-.082.847-3.288 1.185-4.438.677-2.548L71.38 2h7.536l.085.247v17.67l-.085.083h-4.657V7.096l-.254.246-.931 3.452-1.44 5.507-.847 3.206-.17.493h-4.318l-1.609-6.082-1.693-6.493-.17-.576-.169-.082V20H58V2Z"/><path fill="url(#c)" d="M109.191 2h4.138l1.689.333 1.098.334 1.013.583 1.013.917.591.666.676 1.25.253.75v.334l-1.52.333-2.786.5-1.098.167-.591-1-.676-.584-.675-.333-.423-.083h-1.857l-.845.25-1.098.75-.591.833-.422 1.25-.169 1.083v2.334l.253 1.416.423 1.084.506.666.676.5.844.417.338.083h2.533l1.689-.666.676-.417.084-1.667h-3.715l-.085-.083v-3.667l.085-.083H120v7.833l-.76.5-1.773 1-1.689.75-1.098.334-1.942.333h-3.631l-2.111-.417-1.267-.5-1.098-.666-1.182-1-.676-.834-.76-1.333-.506-1.25-.423-2-.084-1.667.169-1.75.338-1.5.422-1.083.591-1.167.76-1 .676-.666 1.435-1 1.267-.584 1.351-.333 1.182-.25Z"/><path fill="url(#d)" d="M83.08 2h14.678v3.616l-.08.083-9.114.082v2.877l8.549.082v3.534l-.08.082-8.469.082-.08 3.452H98V20H83V2.082L83.08 2Z"/><path fill="url(#e)" d="M130.5 2h1.75l1.833.082.334.654 1.25 3.355.833 2.127 1.083 2.864 1.25 3.272.917 2.373 1.167 3.027L141 20h-6l-.833-2.7v-.245l-6.5.081-.667 2.21-.25.654H121l.25-.736 1.083-2.864 1.25-3.273 1.167-3.027.667-1.718.583-1.555 1.25-3.272.583-1.473L130.5 2Zm.333 4.827-.416 1.228-1 3.272-.5 1.555v.327h4l-.084-.573-1.333-4.254-.5-1.473-.167-.082Z"/><path fill="url(#f)" d="M21.244 0h3.429l3.763.342 2.76.428 2.51.513 2.174.684 1.756.684 2.175 1.026 1.505.855 1.338 1.026 1.004.94.837.855.836 1.368.502 1.368.167 1.112v.77l-.25 1.367-.503 1.112-.585 1.026-1.004 1.111-.752.77-1.255.94-1.84 1.112-2.342 1.111-1.589.599-2.593.684-2.174.513-2.175.342-2.174.256-1.422.086h-4.935l-2.509-.171-2.509-.342-2.342-.513-3.094-.855-1.59-.599-2.174-1.026-1.338-.77-1.255-.854-.92-.77L1.59 15.99l-.836-1.197-.502-1.026L0 12.74v-2.565l.502-1.368.669-1.112.669-.855 1.004-1.026 1.672-1.282 1.506-.855 1.923-.94 2.008-.77 2.174-.684 2.51-.513 2.09-.342 3.346-.342L21.243 0Zm-1.506 1.112-1.756.17-2.676.428-2.677.599-1.673.513-1.84.684-2.007.855-1.338.77-1.004.683-1.17.94-.92.856-.837 1.197-.502 1.026-.25.855-.084 1.111.25 1.197.335.855.586-.085 2.592-.77 2.51-.77 1.672-.598 4.182-1.539 1.338-.513 2.51-1.111 2.341-1.197 1.422-.855 1.338-.94 1.17-.941 1.088-1.026.753-.77 1.087-1.453v-.171h-6.44Zm6.608 0 .167.427 2.007 2.052.92.77 1.087.94 1.506 1.112 1.589 1.026 1.672 1.026 1.59.855 1.338.684 2.76 1.282 2.007.855 1.338.513.502.171.167-.427.084-.513V11.2l-.25-1.197-.67-1.454-.67-.855-.668-.77-1.171-.94-.837-.598-1.254-.77-1.59-.77-2.006-.769-1.506-.513-1.589-.427-2.425-.513-2.76-.428-1.338-.085Zm-.084 1.197-.502.77-.753.854-.669.684-.92.77-1.505 1.111-2.426 1.454-2.425 1.282-1.59.684-3.01 1.197-2.51.94-2.09.685-5.018 1.539-.753.17v.257l.753.94.836.77 1.422 1.112 1.505.855 2.008.94 2.09.77 1.924.599 2.844.598 3.512.428.92.085h6.357l3.764-.428 1.588-.256 2.51-.599 2.76-.94 1.923-.855 1.338-.684 1.255-.77 1.087-.94.837-.77.585-.684.67-1.026-.084-.17-30.36-.086 2.592-.684.418-.086h14.971l9.618-.085-.25-.257-2.844-1.368-1.59-.684-16.057-.085 1.087-.342.586-.257.167-.085 12.712-.086-.418-.427-1.003-.599-2.342-1.453-.335-.171h-6.44l.92-.342.251-.171 4.35-.086-.168-.342-1.17-1.026-.92-.77-1.172-1.11-.585-.77h-.251Z"/><path fill="url(#g)" d="M48 2h6v18h-6V2Z"/><defs><linearGradient id="a" x1="96" x2="96" y1="27" y2="51" gradientUnits="userSpaceOnUse"><stop stop-color="#EAEAF5"/><stop offset="1" stop-color="#C9D2F4"/></linearGradient><linearGradient id="b" x1="68.5" x2="68.5" y1="2" y2="20" gradientUnits="userSpaceOnUse"><stop stop-color="#EAEAF5"/><stop offset="1" stop-color="#C9D2F4"/></linearGradient><linearGradient id="c" x1="110.5" x2="110.5" y1="2" y2="21" gradientUnits="userSpaceOnUse"><stop stop-color="#EAEAF5"/><stop offset="1" stop-color="#C9D2F4"/></linearGradient><linearGradient id="d" x1="90.5" x2="90.5" y1="2" y2="20" gradientUnits="userSpaceOnUse"><stop stop-color="#EAEAF5"/><stop offset="1" stop-color="#C9D2F4"/></linearGradient><linearGradient id="e" x1="131" x2="131" y1="2" y2="20" gradientUnits="userSpaceOnUse"><stop stop-color="#EAEAF5"/><stop offset="1" stop-color="#C9D2F4"/></linearGradient><linearGradient id="f" x1="23" x2="23" y1="0" y2="23" gradientUnits="userSpaceOnUse"><stop stop-color="#EAEAF5"/><stop offset="1" stop-color="#C9D2F4"/></linearGradient><linearGradient id="g" x1="51" x2="51" y1="2" y2="20" gradientUnits="userSpaceOnUse"><stop stop-color="#EAEAF5"/><stop offset="1" stop-color="#C9D2F4"/></linearGradient></defs></svg>