<svg xmlns="http://www.w3.org/2000/svg" width="57" height="43" fill="none"><path fill="url(#a)" fill-rule="evenodd" d="M28.043 15.69c.935 3.216-3.099 5.496-5.028 5.028-1.987-.526-2.689-2.221-2.455-3.975-4.15 1.637-7.423-2.104-6.605-5.32.76-3.156 4.56-4.793 8.242-3.332C21.73 4.058 24.243.785 27.458.785c3.273 0 6.02 4.15 3.449 7.833 1.754.175 3.156 1.286 3.156 3.332 0 2.104-3.215 5.436-6.02 3.74Zm2.336-1.227c1.052-1.11.643-2.28.292-2.689-.35-.409-.876-1.344-2.163-1.169 2.397-1.637 1.754-6.08-1.87-6.08-1.52 0-3.742 1.053-4.268 3.8-2.689-.234-4.267 1.754-4.618 3.215-.876 3.566 3.157 5.32 5.32 3.332-.468 1.286.292 1.988.584 2.397.35.468 1.345 1.169 2.63.409 1.287-.76 1.462-1.345 1.462-2.338.994.234 1.579.176 2.63-.877Z" clip-rule="evenodd"/><path fill="url(#b)" fill-rule="evenodd" d="M54.868 33.47v-1.493l-.533 1.492h-.213l-.533-1.492v1.492h-.213v-1.776h.32l.533 1.528.497-1.528h.355v1.776h-.213Zm.782-.747h.569c.284 0 .32.178.32.32 0 .071 0 .32.035.462h.32v-.071c-.072-.035-.107-.071-.107-.178v-.32c-.035-.248-.106-.284-.213-.32a.491.491 0 0 0 .248-.461c0-.356-.32-.462-.604-.462h-.817v1.812h.249v-.782Zm.003-.817h.604c.107 0 .32 0 .32.284s-.213.32-.39.32h-.534v-.604Z" clip-rule="evenodd"/><path fill="url(#c)" fill-rule="evenodd" d="M3.033 26.994.32 40.81c.062.298.218 1.19.75 1.53.514.328 1.392.1 1.847-.099C15.711 36.686 19.696 35 21.972 39.007c2.388-.808 4.446-1.492 4.685-3.466L23.033 25.34c-.04-.139-.297-.633-.806-.918-.508-.285-1.625-.417-1.842-.395l-3.475.516c-1.784.116-3.316 1.576-4.025 3.126l-3.394 8.085c4.825-2.783 3.789-2.439 6.635-3.532l1.32-3.817c.115-.297.341-1.215.602-1.337.261-.122.694-.1.96-.128l1.034 5.823c-1.982-.025-4.858.246-11.147 4.62-.536.372-1.551.722-1.589.277l1.862-9.539c-.025-1.568-1.656-1.993-2.476-1.908l-3.66.781Zm13.604 7.28c1.615-.542 4.895-1.27 4.826.784-.967-.838-2.18-.946-4.826-.785Z" clip-rule="evenodd"/><path fill="url(#d)" fill-rule="evenodd" d="m28.685 22.5-2.712 13.816c.062.298.218 1.19.75 1.53.514.328 1.392.1 1.847-.099 12.793-5.556 16.778-7.241 19.054-3.234 2.389-.808 4.446-1.492 4.685-3.466l-3.623-10.201c-.04-.139-.298-.633-.806-.918-.509-.285-1.626-.417-1.842-.395l-3.476.516c-1.784.116-3.316 1.576-4.025 3.125l-3.394 8.085c4.825-2.783 3.789-2.439 6.635-3.532l1.32-3.817c.115-.297.341-1.215.602-1.337.261-.122.694-.1.96-.128l1.034 5.824c-1.982-.026-4.858.246-11.148 4.619-.535.372-1.551.722-1.588.278l1.861-9.54c-.024-1.568-1.656-1.993-2.476-1.908l-3.658.782Zm13.605 7.28c1.615-.542 4.894-1.27 4.825.784-.967-.838-2.18-.946-4.825-.785Z" clip-rule="evenodd"/><defs><linearGradient id="a" x1="23.946" x2="23.946" y1=".785" y2="20.779" gradientUnits="userSpaceOnUse"><stop stop-color="#EAEAF5"/><stop offset="1" stop-color="#C9D2F4"/></linearGradient><linearGradient id="b" x1="55.135" x2="55.135" y1="31.693" y2="33.505" gradientUnits="userSpaceOnUse"><stop stop-color="#EAEAF5"/><stop offset="1" stop-color="#C9D2F4"/></linearGradient><linearGradient id="c" x1="13.489" x2="13.489" y1="24.025" y2="42.505" gradientUnits="userSpaceOnUse"><stop stop-color="#EAEAF5"/><stop offset="1" stop-color="#C9D2F4"/></linearGradient><linearGradient id="d" x1="39.141" x2="39.141" y1="19.531" y2="38.011" gradientUnits="userSpaceOnUse"><stop stop-color="#EAEAF5"/><stop offset="1" stop-color="#C9D2F4"/></linearGradient></defs></svg>