<svg xmlns="http://www.w3.org/2000/svg" width="58" height="23" fill="none"><path fill="url(#a)" d="m47.96.304-2.084 7.343-.7-.101c-.427-.051-.616.187-.684.41h-5.858c-.632 0-.614.683 0 .683h6.184c0 .222.136.598.427.717-.052.24-.086.616-.086.616-.034.307.547.682.718.153l.631-1.35 1.316.513c.324.154.665-.29.306-.648h2.785c.512 0 .546-.684 0-.684h-3.263c-.239 0-.153-.205-.05-.342l.29-.358c.152-.154-.017-.427-.257-.291l-.495.24c-.205.067-.307-.052-.29-.223.017-.17 2.118-6.678 2.118-6.678h8.353v16.944c-.205.956-1.025 1.947-2.187 1.845-1.16-.103-1.742-.342-1.434-2.153.137-.888.444-2.596.65-3.279.204-.683-.104-1.742-1.163-1.81-1.058-.069-1.537.24-1.81.751l-.546.99c.033-.512-.308-1.126-1.093-1.126-.786 0-1.333.205-1.675.888-.342.683-1.366 3.109-2.322 2.972-.478-.102-.342-.99-.205-1.434.136-.445.376-1.401.478-1.982.102-.58-.137-1.197-1.025-1.23-.889-.035-1.503.308-1.708 1.16-.205.855-1.196 3.657-2.153 3.724-.273 0-.238-1.502-.068-2.083.137-.375.102-1.024.034-1.333-.068-.307-.034-1.4-.034-1.776 0-.376-.137-1.298-.82-1.64-.684-.34-1.652.117-2.152.206-.58.102-2.152.751-2.562 1.98-.388 1.163-.957 3.451-1.777 3.759-.58.273-2.118.854-3.279.615-1.162-.24-2.288-.65-1.742-3.212.546-2.562 1.981-5.807 3.825-6.285.376-.137.547.478.205.614-.341.137-1.4.786-1.4 2.392 0 1.605.615 2.357 2.015 2.322 1.4-.034 2.63-1.742 2.733-3.586.102-1.845-.23-3.425-2.63-3.963-1.982-.443-4.066.547-4.92 1.503-.499.56-1.947 2.46-2.527 3.997-.137-.136-.513.24-.752.41-.24.17-.788.36-1.537.444-1.537.17-.854-3.314.376-3.621-.24.444-.41 1.503.205 1.673.615.171 1.16.171 1.503-.546.341-.718.398-2.238-.718-2.664-1.161-.445-3.133.255-4.03 2.084-.889 1.81-1.025 3.791 1.23 4.577.717.17 1.741.239 3.073-.342-.41 1.742-.82 5.74 3.656 6.798 1.845.376 4.338-.547 5.568-1.469.375.41 2.05 2.255 4.235.513.615.477 2.29 1.64 4.373-.684.376.786 2.529 2.153 4.647.07.034.34.238.546.512.75.273.205.444.273.649.41.512.17 1.093.205 1.913-1.742.034.889.239 3.484 2.8 4.099.889.17 2.222.137 3.588-.82v2.972H.75V.304h47.21Zm-27.464 5.26c-.205-1.263-1.4-1.058-2.22-.853-.82.205-1.4.786-1.708 1.879-.718 2.767-2.323 5.602-3.074 6.9.239-3.655.204-7.276-.069-7.789-.273-.512-1.537-.444-2.152-.17-1.4.478-1.332 1.127-1.537 1.98-.786 3.451-3.348 8.78-3.69 9.43-.341.648-.614.853-.99 1.024-.717.273-.445.956-.138 1.23.786.512 1.914-.069 2.392-.752 1.469-1.742 2.972-5.022 3.348-5.841 0 .41 0 1.81-.069 2.596-.102 1.913 1.776 2.766 2.801 1.947 1.366-1.06 2.631-3.211 3.11-4.133-.103.751-.137 2.357-.137 2.971.068 2.528 2.528 2.699 2.937 2.323.41-.376.581-1.025.342-1.537-.444-1.025.137-3.758.308-5.159.17-1.4.75-4.782.546-6.046Zm16.631 10.898c-.75-.273.24-4.782 1.47-4.236.819.751-.617 4.546-1.47 4.236Z"/><defs><linearGradient id="a" x1="29.035" x2="29.035" y1=".304" y2="22.986" gradientUnits="userSpaceOnUse"><stop stop-color="#EAEAF5"/><stop offset="1" stop-color="#C9D2F4"/></linearGradient></defs></svg>