<svg xmlns="http://www.w3.org/2000/svg" width="85" height="33" fill="none"><path fill="url(#a)" d="M46.28 3.645h2.23l.546.1.396.25.248.35.05.2-.05.65-.397 1.6-.99 3.55-.794 2.85-.248.6-.247.35-.397.25-.496.15-.446.05h-.644l-.694-.15-.347-.3-.099-.4v-.35l.347-1.3.744-2.6.346-1.3.05-.1-.248.15-.545.75-.694 1.05-.843 1.25-.743 1.1-.644.95-.446.6-.347.4-.446.2-.496.05h-.644l-.545-.1-.199-.2-.148-.4-.1-.75-.198-3.6-.099-1.1-.05-.3-.099.05-1.14 3.7-.594 1.8-.298.45-.446.3-.545.15-.396.05h-.694l-.595-.15-.347-.3-.05-.1.05-.7.793-2.9.793-2.75.694-2.4.248-.65.297-.45.347-.3.298-.15.743-.1h2.081l.595.15.397.3.148.4.15 1.1.197 2.5.15 1.85.049.55.247.05.1-.3.694-1.1.743-1.15.545-.85.744-1.15.892-1.35.396-.5.347-.3.496-.2.297-.05Z"/><path fill="url(#b)" d="m19.622.645.695.05 1.19.246 1.34.444 1.14.542.695.444.546.444 1.14 1.134.546.69.595 1.035.447.986.347 1.036.248 1.085.149 1.084.05.74v1.676l-.1.986-.297 1.726-.447 1.775-.446 1.332-.199.493-.446 1.035-.595 1.233-.546 1.035-.645 1.036-.397.591-.496.69-.496.642-.446.542-.546.64-.595.642-1.24 1.233-.546.443-.496.444-.793.592-.844.592-.595.394-.397.197-.694.395-1.042.493-1.14.443-1.042.346-1.24.295-.695.099H8.214l-.794-.148-1.19-.345-.794-.395-.595-.345-.794-.591-.297-.296v-.099l.496.099 1.041.345 1.24.246.397.05 1.042.05 1.438-.1 1.29-.246 1.19-.345 1.39-.542.793-.395.942-.493.844-.542.694-.494.645-.493.546-.443.496-.444.396-.345 1.29-1.282.347-.395.546-.64.645-.839.645-.887.595-.937.595-1.036.496-.937.645-1.43.496-1.281.298-.888.396-1.578.248-1.479.15-1.282V9.816l-.2-1.676-.197-.937-.397-1.184-.397-.887-.397-.74-.496-.69-.546-.592-.198-.246-.397-.345-.595-.493-.843-.493-.943-.444-.744-.296-.05-.148Z"/><path fill="url(#c)" d="M43.472 16.645h1.376l.57.145.284.24.047.434-.142.386-.474.82-.76 1.204-.853 1.301-2.752 4.241-1.092 1.639-.521.674-.475.482-.474.29-.475.144h-1.708l-.57-.096-.426-.193-.332-.29-.237-.481-.238-.916-1.09-6.12-.333-1.976-.047-.771.094-.434.332-.386.333-.192.332-.049h1.518l.332.097.332.289.19.434.19.963.901 5.735.095.386.237-.24 1.424-2.314 1.138-1.832.712-1.156.57-.916.474-.723.38-.433.569-.29.57-.096Z"/><path fill="url(#d)" d="M70.531 16.645h1.412l.454.097.252.29.1.339-.05.629-.353 1.306-1.008 3.484-.908 3.097-.504 1.742-.302.484-.404.338-.403.146-.353.048h-.504l-.605-.097-.303-.193-.151-.29-.05-.581-.051-.145-.454.483-.555.387-.705.29-.555.098h-1.513l-.554-.194-.504-.29-.252-.194-.454-.58-.353-.726-.152-.678v-.967l.101-.823.303-.823.504-.919.403-.532.454-.484.555-.484.655-.387.857-.339.454-.096.757-.049h.806l.706.049.454.193.403.29.202.242v.097l.252-.242.454-1.5.454-1.452.302-.58.252-.242.303-.194.151-.048Zm-4.387 5.71-.453.096-.505.29-.302.34-.454.919-.151.532-.05.29v.678l.15.387.303.339.504.145h.404l.655-.194.404-.29.403-.436.403-.822.202-.678.05-.532-.1-.484-.252-.387-.404-.193h-.806Z"/><path fill="url(#e)" d="M14.134 1.645h2.205l.82.05.975.246.77.296.82.395.615.394.41.346v.098l-.564-.148-1.333-.394-.974-.198-.41-.049h-1.59l-.975.148-1.128.296-.82.296-1.026.444-.82.444-.513.296-.872.642-.82.64-.616.544-.513.493-.461.543-.564.641-.718.937-.565.84-.717 1.232-.565 1.135-.564 1.431-.461 1.579-.308 1.43-.051.543v3.108l.154.938.41 1.332.461 1.036.41.69.514.642.564.543.718.542.718.494.769.444 1.025.542-.102.099-.616-.05-1.179-.295-1.077-.395-.718-.395-.667-.444-.666-.542-.513-.494-.615-.79-.462-.788-.359-.74-.513-1.48-.256-1.086-.051-.592V16.84l.153-1.037.257-1.184.359-1.282.513-1.382.461-.986.41-.79.513-.888.564-.839.513-.69.564-.691.616-.69.718-.74.41-.395.41-.346.667-.543.923-.64 1.025-.593.975-.493 1.384-.543 1.129-.296.82-.148Z"/><path fill="url(#f)" d="m48.213 20.645 1.854.045.682.135.586.224.536.315.44.405.341.629.097.404v.72l-.146.539-.244.45-.39.404-.39.224-.39.09-1.074.045-3.073.045-.927.045-.195.045-.049.09v.494l.293.54.39.314.44.135h1.024l.78-.135 1.464-.54.341-.044.293.135.097.18-.048.404-.196.36-.39.404-.488.315-.78.314-.78.18-.732.09h-1.951l-.78-.135-.586-.225-.537-.36-.39-.359-.293-.45-.195-.583-.098-.54.05-.539.194-.854.244-.674.537-.944.439-.54.341-.359.537-.404.537-.315.682-.315.878-.27.44-.089.585-.045Zm0 1.708-.488.135-.488.27-.439.359-.341.494v.225l.146.045h2.83l.438-.045.098-.045v-.809l-.244-.36-.244-.18-.341-.09h-.927Z"/><path fill="url(#g)" d="M77.142 19.645h1.323l.883.1.735.252.637.352.294.251.392.503.294.603.05.151v1.006l-.147.603-.344.654-.343.352-.392.201-.392.1-.49.05-4.216.051-.54.05v.805l.148.402.196.251.392.252.588.1h.54l.686-.05.686-.201 1.127-.503.393-.05.294.251.049.1v.403l-.245.453-.441.502-.54.352-.686.302-.784.201-.686.1-1.177.051-.882-.05-.736-.151-.588-.252-.49-.351-.49-.503-.294-.503-.147-.553-.05-.402v-.704l.148-.956.343-1.005.44-.855.393-.553.441-.503.49-.452.687-.453.735-.352.735-.251.442-.1.539-.051Zm.44 1.86-.685.151-.687.352-.49.453-.294.553.049.251.098.05h2.451l.637-.05.245-.1.098-.151v-.553l-.147-.403-.245-.251-.294-.201-.441-.1h-.294Z"/><path fill="url(#h)" d="M81.043 6.645H82.4l.678.159.723.424.362.37.316.425.226.582.046.371v1.06l-.09.795-.227.741-.316.742-.497.689-.543.582-.633.477-.723.318-.859.212-.361.053h-1.356l-.678-.159-.588-.265-.542-.477-.362-.53-.225-.635v-1.643l.135-.635.316-.901.407-.742.407-.53.497-.476.723-.477.724-.318.677-.159.407-.053Zm.09 1.96-.496.106-.272.212-.316.371-.362.742-.226.847-.045.371v.795l.136.318.271.265.407.159.406-.053.453-.265.361-.424.362-.742.18-.689.046-.37v-1.06l-.136-.265-.226-.212-.271-.106h-.271Z"/><path fill="url(#i)" d="M63.939 6.645h.778l.487.161.243.215.146.322v.43l-.34 1.61-.439 1.88v.59l.146.268.195.215.146.054h.632l.438-.161.34-.322.39-.86.535-2.254.292-1.074.243-.537.39-.376.486-.161h1.021l.39.215.243.322.049.161v.483l-.39 1.665-.827 3.275-.34 1.127-.34.537-.341.215h-1.216l-.39-.161-.243-.268-.146-.645-.34.215-.536.483-.583.269-.487.107h-1.313l-.536-.161-.389-.268-.34-.376-.195-.484-.049-.59.146-1.128.487-2.255.438-1.772.194-.375.39-.376.535-.215Z"/><path fill="url(#j)" d="M58.923 6.645h.761l.761.159.652.318.38.318.218.37.054.213v1.112l-.38 1.643-.598 2.278-.326.847-.326.371-.38.212-.544.106h-.706l-.544-.159-.326-.265-.109-.53.163-.953.544-2.014.163-.741V9.4l-.163-.265-.272-.159-.217-.053h-.544l-.597.212-.381.318-.326.689-.49 1.642-.38 1.325-.271.688-.326.477-.435.265-.435.106h-.87l-.489-.159-.326-.265-.108-.265v-.424l.217-1.006 1.141-3.92.49-1.484.325-.265.435-.159h1.196l.435.159.326.265.108.265.055.318.326-.106.543-.424.652-.318.598-.159.326-.053Z"/><path fill="url(#k)" d="M55.865 20.645h.89l.494.09.297.18.149.18.099.629.247-.09.593-.495.544-.314.495-.135.445-.045h.989l.346.18.198.224.098.405-.098.404-.297.45-.346.27-.594.27-.741.179-.841.09-.742.225-.445.314-.297.315-.346.63-.395 1.168-.693 1.932-.197.36-.198.224-.495.27-.395.09H53.59l-.445-.135-.346-.36-.05-.134v-.63l.248-.853 1.582-4.81.247-.494.198-.27.346-.224.495-.09Z"/><path fill="url(#l)" d="M19.189 5.645h.643l.322.183.108.137v.32l-.269.547-1.448 2.466-.537.868-1.234 2.054-.644 1.142-.107.32h1.288l3.058-.046h3.166l.215.365v.32l-.215.228-.483.137-2.254.274-5.956.64-.43.045h-.643l-.537-.183-.321-.32-.162-.456.054-.41.43-.731.59-.777 1.287-1.735 1.61-2.192.644-.913.751-1.004.43-.548.536-.64.108-.091Z"/><path fill="url(#m)" d="m74.34 4.645.769.101.41.253.051.1v.405l-.256 1.11-.052.354 1.077.101.308.152.102.151v.404l-.256.505-.308.253-.41.1-.666.051-.308.101-.257.657-.666 2.525-.052.253v.353l.206.152.256.05.718.05.154.102v.454l-.205.404-.41.405-.513.252-.564.152-.821.05-.718-.101-.513-.202-.461-.404-.206-.455v-.808l.308-1.313.616-2.121.05-.505-.563-.05-.308-.102-.103-.252.052-.606.205-.404.205-.152.923-.202.205-.202.462-1.212.256-.404.308-.252.513-.202.461-.051Z"/><path fill="url(#n)" d="M51.022 6.645h1.273l.364.27.09.325-.045.702-.318 1.514-.864 3.676-.273.864-.227.325-.318.216-.318.108h-.864l-.5-.216-.227-.325-.046-.162v-.432l.41-1.892.636-2.703.273-1.135.227-.54.227-.325.364-.216.136-.054Z"/><path fill="url(#o)" d="M52.113 3.645h.982l.327.16.328.28v.52l-.219.44-.49.36-.491.16-.655.08-.546-.04-.436-.28-.163-.32v-.32l.218-.44.49-.4.437-.16.218-.04Z"/><defs><linearGradient id="a" x1="41.249" x2="41.249" y1="3.645" y2="14.645" gradientUnits="userSpaceOnUse"><stop stop-color="#EAEAF5"/><stop offset="1" stop-color="#C9D2F4"/></linearGradient><linearGradient id="b" x1="16.25" x2="16.25" y1=".645" y2="32.645" gradientUnits="userSpaceOnUse"><stop stop-color="#EAEAF5"/><stop offset="1" stop-color="#C9D2F4"/></linearGradient><linearGradient id="c" x1="39.249" x2="39.249" y1="16.645" y2="28.645" gradientUnits="userSpaceOnUse"><stop stop-color="#EAEAF5"/><stop offset="1" stop-color="#C9D2F4"/></linearGradient><linearGradient id="d" x1="66.749" x2="66.749" y1="16.645" y2="28.645" gradientUnits="userSpaceOnUse"><stop stop-color="#EAEAF5"/><stop offset="1" stop-color="#C9D2F4"/></linearGradient><linearGradient id="e" x1="10.749" x2="10.749" y1="1.645" y2="27.645" gradientUnits="userSpaceOnUse"><stop stop-color="#EAEAF5"/><stop offset="1" stop-color="#C9D2F4"/></linearGradient><linearGradient id="f" x1="47.749" x2="47.749" y1="20.645" y2="28.645" gradientUnits="userSpaceOnUse"><stop stop-color="#EAEAF5"/><stop offset="1" stop-color="#C9D2F4"/></linearGradient><linearGradient id="g" x1="76.749" x2="76.749" y1="19.645" y2="28.645" gradientUnits="userSpaceOnUse"><stop stop-color="#EAEAF5"/><stop offset="1" stop-color="#C9D2F4"/></linearGradient><linearGradient id="h" x1="80.749" x2="80.749" y1="6.645" y2="14.645" gradientUnits="userSpaceOnUse"><stop stop-color="#EAEAF5"/><stop offset="1" stop-color="#C9D2F4"/></linearGradient><linearGradient id="i" x1="66.249" x2="66.249" y1="6.645" y2="14.645" gradientUnits="userSpaceOnUse"><stop stop-color="#EAEAF5"/><stop offset="1" stop-color="#C9D2F4"/></linearGradient><linearGradient id="j" x1="56.749" x2="56.749" y1="6.645" y2="14.645" gradientUnits="userSpaceOnUse"><stop stop-color="#EAEAF5"/><stop offset="1" stop-color="#C9D2F4"/></linearGradient><linearGradient id="k" x1="57.249" x2="57.249" y1="20.645" y2="28.645" gradientUnits="userSpaceOnUse"><stop stop-color="#EAEAF5"/><stop offset="1" stop-color="#C9D2F4"/></linearGradient><linearGradient id="l" x1="18.25" x2="18.25" y1="5.645" y2="15.645" gradientUnits="userSpaceOnUse"><stop stop-color="#EAEAF5"/><stop offset="1" stop-color="#C9D2F4"/></linearGradient><linearGradient id="m" x1="73.749" x2="73.749" y1="4.645" y2="14.645" gradientUnits="userSpaceOnUse"><stop stop-color="#EAEAF5"/><stop offset="1" stop-color="#C9D2F4"/></linearGradient><linearGradient id="n" x1="50.749" x2="50.749" y1="6.645" y2="14.645" gradientUnits="userSpaceOnUse"><stop stop-color="#EAEAF5"/><stop offset="1" stop-color="#C9D2F4"/></linearGradient><linearGradient id="o" x1="52.249" x2="52.249" y1="3.645" y2="5.645" gradientUnits="userSpaceOnUse"><stop stop-color="#EAEAF5"/><stop offset="1" stop-color="#C9D2F4"/></linearGradient></defs></svg>