<svg xmlns="http://www.w3.org/2000/svg" width="113" height="31" fill="none"><path fill="url(#a)" d="m82.123 9.8.166.055V18l-.056.055h-1.662l-.11-.166-.056-.554v-2.881h-.11l-.666.776-.498.554-.388.443-.665.72-.332-.055-.554-.61-.388-.443-.499-.554-.443-.554-.332-.388-.056 3.602-.11.11H73.7l-.11-.221V9.966l.055-.111.221.055.444.333.387.388.388.443.554.61.388.443.499.554.72.83.499.555.221.222h.111l.11-.222.721-.776.499-.61.72-.775.388-.443.61-.665.387-.443.499-.499.11-.055Z"/><path fill="url(#b)" d="M45.279 9.744h.11l.056.11V18l-.055.055-1.33.055-.388-.11-.055-.499v-2.16l.055-1.054-.277.222-.499.61-.664.72-.5.61-.498.498-.332-.055-.61-.665-.498-.61-.554-.61-.388-.443-.222-.221v3.601l-.11.111h-1.663l-.11-.277v-7.702l.11-.277.333.167.665.664.388.444.664.72.499.61.831.886.499.61.277.332.221-.055.831-.887.499-.61.72-.775.499-.61.388-.387.388-.444.72-.72Z"/><path fill="url(#c)" d="M87 9.744h1.218l2.106.055.11.056v1.44l-.166.111h-4.321l.055 1.718 3.823.055.11.166v1.33l-.165.111h-3.823v1.718h3.38l1.052.055.11.332v.72l-.055.389-.055.055-1.94.055h-3.767l-.443-.055-.11-.221-.056-.665v-6.206l.055-.942.056-.166.11-.056L87 9.744Z"/><path fill="url(#d)" d="M108.442 9.69h1.718l.942.22.941.444.444.388-.056.277-.554.831-.221.277-.277-.055-.942-.443-.776-.222-.554-.056-.554.111-.443.277-.166.333.055.277.277.221.554.222 1.995.443.831.277.609.388.443.554.222.388v1.662l-.443.72-.388.389-.887.443-.775.166h-1.773l-.997-.222-.832-.332-.609-.388-.222-.222.056-.443.332-.498.333-.388.221-.056 1.219.554.665.222.609.11h.444l.554-.165.332-.222.222-.333.055-.332-.221-.277-.499-.222-2.161-.443-.776-.277-.609-.388-.277-.221-.332-.5-.167-.498v-.942l.111-.498.277-.499.443-.443.887-.444.72-.166Z"/><path fill="url(#e)" d="M47.385 9.8h1.44l.277.055.056 4.488.11.997.333.665.443.333.499.221.277.056h.443l.61-.222.332-.221.277-.277.277-.444.055-.221.056-4.876.11-.499.111-.055h1.22l.387.055.056.11v5.154l-.111.72-.222.554-.388.665-.388.388-.72.443-.665.222-.61.11h-1.384L49.379 18l-.72-.388-.665-.61-.443-.775-.222-.72-.055-.887v-3.158l.055-1.552.056-.11Z"/><path fill="url(#f)" d="m95.475 9.744.222.11.498.832.776 1.44.665 1.275.665 1.219.72 1.385.665 1.219.277.665v.11l-.111.056-1.163.055-.555-.055-.277-.332-.443-.831-.11-.056h-3.27l-.443.056-.443.886-.277.277-.72.055-.998-.055-.055-.277.72-1.44.665-1.22.776-1.495.665-1.22.72-1.385.61-1.052.221-.222Zm0 3.601-.665 1.275-.277.498v.111h1.94l-.111-.332-.61-1.274-.166-.278h-.11Z"/><path fill="url(#g)" d="M99.074 9.8h6.371l.111.332v1.164l-.111.11h-2.271v6.539l-.111.11-1.275.056-.387-.056-.111-.277-.056-6.372h-2.16l-.166-.221-.056-.222v-.61l.166-.498.056-.055Z"/><path fill="url(#h)" d="M62.065 9.8h6.427l.055.166v1.33l-.221.11h-2.161V18l-.055.055h-1.718l-.11-.332v-6.317h-2.217l-.166-.277v-.997l.11-.277.056-.055Z"/><path fill="url(#i)" d="M56.639 9.8h1.274l.443.055.056.055v6.594h3.49l.776.055.055.056v.665l-.055.72-.056.055-3.878.056h-1.94l-.165-.056-.111-.72v-6.76l.055-.72.056-.055Z"/><path fill="url(#j)" d="M69.88 9.8h1.607l.11.055.056.554V18l-.055.055h-1.662l-.111-.387v-7.48l.055-.388Z"/><path fill="url(#k)" d="m9.567 10.036.175.044.35.306.57.612.306.35.525.613.438.48.394.482.306.306.394.482.613.656.306.35.526.612.481.525v.088h.088l.219.262.175-.088.306-.35.394-.437.35-.437h.088l.087-.175.57-.657.175-.218h.087l.088-.175.394-.438.043-.087h.088l.088-.175.394-.438.043-.087h.088l.087-.175.394-.394.35-.437.57-.613.613-.7.262-.043.22.13v10.762l-.176.219-.088.044-.744.043h-.744l-.525-.043-.175-.175-.044-.175v-4.9l-.219.219-.525.569-.394.48-.394.438-.35.438-.482.525-.35.437-.35.394-.307.219-.262-.088-.394-.394-.394-.48-.438-.482-.394-.481-.394-.438-.394-.48-.438-.482-.262-.35-.088-.044-.044 4.9-.131.262-.131.088H9.567l-.131-.132-.044-.13-.044-1.357v-9.055l.088-.394.131-.131Z"/><path fill="url(#l)" d="m3.165 13.536.39.044.391.262.218.393v.438l-.218.35-.304.262-.173.087h-.435l-.26-.175-.26-.306-.088-.35.044-.437.26-.35.26-.174.175-.044Z"/><path fill="url(#m)" d="M11.654 26.416h.35l.306.13.262.217.131.217.044.174v.348l-.131.26-.219.217-.393.174-.438-.043-.35-.218-.218-.26-.087-.434.13-.348.176-.217.437-.217Z"/><path fill="url(#n)" d="M18.662 26.416h.436l.349.174.261.303.087.218v.304l-.13.304-.306.304-.348.13h-.349l-.349-.174-.261-.304-.044-.087v-.52l.131-.261.349-.304.174-.087Z"/><path fill="url(#o)" d="M4.427 9.02h.484l.265.132.264.31.088.22v.398l-.176.353-.22.221-.353.177-.44-.044-.397-.265-.176-.354v-.442l.264-.442.22-.176.177-.089Z"/><path fill="url(#p)" d="M20.937 25.498h.348l.436.217.218.304.044.434-.131.348-.174.217-.35.174-.13.043h-.349l-.348-.13-.262-.391-.043-.174v-.347l.174-.348.305-.26.262-.087Z"/><path fill="url(#q)" d="M11.615 3.162h.48l.348.174.262.304.043.173v.304l-.218.435-.348.26-.218.087-.392-.043-.35-.217-.26-.348V3.77l.217-.348.305-.217.131-.043Z"/><path fill="url(#r)" d="M3.6 11.227h.308l.397.175.264.348.088.393-.132.392-.22.305-.353.174h-.44l-.309-.13-.22-.262-.088-.305v-.349l.176-.392.22-.218.309-.13Z"/><path fill="url(#s)" d="M16.307 26.887h.479l.349.176.261.307.044.088v.571l-.175.264-.261.22-.392.087-.436-.044-.218-.132-.218-.263-.087-.22v-.351l.218-.44.436-.262Z"/><path fill="url(#t)" d="m27.33 13.536.347.044.26.13.26.307.088.175v.48l-.174.35-.348.307-.13.043h-.347l-.26-.13-.305-.307-.174-.35v-.306l.174-.35.304-.262.304-.131Z"/><path fill="url(#u)" d="M4.383 20.51h.484l.353.173.176.217.132.304v.391l-.176.348-.308.26-.133.044h-.484l-.308-.174-.22-.26-.133-.261v-.434l.22-.348.265-.217.132-.044Z"/><path fill="url(#v)" d="M18.619 3.162h.435l.349.13.305.348.087.217v.347l-.218.348-.261.217-.305.13-.392-.043-.35-.26-.173-.218-.088-.174v-.521l.175-.26.218-.174.218-.087Z"/><path fill="url(#w)" d="M3.034 15.943h.478l.348.22.26.353.044.088v.44l-.174.353-.304.264-.13.044h-.522l-.347-.176-.217-.352-.044-.485.13-.352.174-.22.304-.177Z"/><path fill="url(#x)" d="M9.468 25.498h.305l.349.13.218.174.174.347v.478l-.218.39-.261.175-.175.043h-.348l-.393-.174-.305-.347-.087-.391.13-.39.219-.261.392-.174Z"/><path fill="url(#y)" d="M27.199 15.943h.478l.347.218.174.218.087.174v.523l-.13.262-.348.305-.434.087-.391-.13-.304-.306-.13-.305v-.305l.217-.436.347-.261.087-.044Z"/><path fill="url(#z)" d="M9.475 4.03h.392l.35.176.217.265.13.352-.043.308-.218.353-.261.22-.218.088h-.392l-.306-.132-.217-.22-.131-.22v-.485l.174-.353.262-.22.261-.132Z"/><path fill="url(#A)" d="M22.816 24.182h.53l.353.218.221.347.044.304-.132.39-.177.262-.31.173-.176.044h-.353l-.31-.13-.265-.348-.088-.217v-.304l.22-.435.266-.217.177-.087Z"/><path fill="url(#B)" d="m24.756 22.47.435.088.262.218.174.348v.392l-.174.35-.218.217-.305.13-.305.044-.349-.13-.218-.218-.174-.262-.044-.392.218-.436.262-.218.174-.087.262-.043Z"/><path fill="url(#C)" d="m3.644 18.276.484.088.309.262.176.306.044.306-.132.394-.264.306-.44.175-.397-.088-.265-.175-.176-.218-.088-.263v-.393l.132-.35.22-.219.397-.13Z"/><path fill="url(#D)" d="M26.76 11.227h.352l.351.131.264.305.087.218v.523l-.175.349-.264.218-.175.043h-.395l-.308-.13-.263-.306-.132-.348.044-.436.263-.392.352-.175Z"/><path fill="url(#E)" d="m26.892 18.276.396.044.35.218.176.35v.569l-.22.35-.219.175-.35.13-.396-.087-.264-.175-.219-.35-.044-.174v-.306l.22-.438.35-.262.22-.044Z"/><path fill="url(#F)" d="M20.85 4.03h.392l.392.22.261.309.088.22v.352l-.175.309-.305.264-.218.088h-.348l-.305-.132-.262-.22-.174-.397v-.308l.218-.44.305-.22.13-.045Z"/><path fill="url(#G)" d="M13.838 2.715h.613l.35.175.218.264.088.263-.044.351-.306.44-.306.175-.35.044-.394-.132-.306-.263-.131-.351.044-.44.13-.263h.088V2.89l.306-.175Z"/><path fill="url(#H)" d="m7.542 24.133.44.087.265.174.22.262.089.218v.392l-.265.436-.264.174-.44.043-.397-.13-.308-.349-.089-.261v-.393l.133-.261.22-.218.22-.13.176-.044Z"/><path fill="url(#I)" d="M25.846 20.51h.483l.35.217.22.26.044.13v.435l-.175.347-.176.217-.307.13h-.483l-.351-.173-.176-.26-.044-.13v-.565l.22-.348.263-.217.132-.044Z"/><path fill="url(#J)" d="M13.933 26.887h.486l.265.132.221.22.133.175.044.132v.44l-.221.35-.221.176-.354.088-.441-.044-.266-.132-.22-.263-.089-.264.044-.439.177-.307.442-.264Z"/><path fill="url(#K)" d="M7.454 5.395h.529l.308.174.176.217.089.217v.391l-.177.348-.352.304-.22.087-.44-.044-.353-.217-.176-.26-.045-.131v-.39l.177-.392.264-.217.22-.087Z"/><path fill="url(#L)" d="M16.22 2.715h.61l.348.175.218.262.044.131v.482l-.175.306-.261.219-.218.087h-.48l-.305-.175-.261-.306-.087-.175v-.394l.174-.35.392-.262Z"/><path fill="url(#M)" d="M25.802 9.02h.439l.351.176.264.31.087.22v.442l-.131.265-.22.221-.22.133-.307.044-.439-.133-.22-.22-.131-.177-.044-.133v-.53l.176-.354.395-.265Z"/><path fill="url(#N)" d="M5.786 7.058h.397l.354.177.265.264.088.22v.397l-.22.352-.31.264-.265.088h-.31l-.397-.176-.221-.22-.088-.529.132-.396.221-.22.354-.22Z"/><path fill="url(#O)" d="m5.878 22.47.353.044.352.218.22.261.088.218v.349l-.22.348-.22.218-.397.131-.528-.13-.308-.35-.089-.217v-.567l.177-.261.308-.175.264-.087Z"/><path fill="url(#P)" d="M24.494 7.058h.392l.349.133.305.352.087.264v.353l-.174.352-.218.176-.174.088-.305.044-.35-.088-.26-.176-.262-.396-.044-.353.218-.44.262-.22.174-.089Z"/><path fill="url(#Q)" d="M22.77 5.395h.484l.352.174.22.26.089.218v.477l-.176.304-.22.174-.309.13-.396-.043-.309-.174-.264-.39-.088-.391.176-.435.308-.26.133-.044Z"/><path fill="url(#R)" d="M1.583 17.655h.31l.266.174.222.304.044.304-.133.347-.222.174-.177.087L1.627 19l-.266-.173-.177-.348v-.347l.133-.26.266-.218Z"/><path fill="url(#S)" d="m20.63 27.805.308.044.308.218.088.131v.35l-.264.349-.176.13-.352.044-.309-.087-.176-.175-.088-.218.044-.306.176-.261.44-.219Z"/><path fill="url(#T)" d="m9.904 27.805.308.044.352.218.177.262v.306l-.133.218-.22.174-.308.044-.396-.13-.264-.35-.045-.306.177-.305.352-.175Z"/><path fill="url(#U)" d="M7.406 26.54h.308l.352.174.22.262.044.393-.132.262-.22.13-.308.044-.308-.13-.22-.219-.177-.349.132-.349.22-.175.089-.043Z"/><path fill="url(#V)" d="m26.818 22.693.393.044.218.22.087.175-.043.394-.262.35-.262.133h-.35l-.218-.176-.13-.263v-.263l.218-.395.218-.175.13-.044Z"/><path fill="url(#W)" d="M28.071 20.286h.266l.266.173.177.26v.302l-.133.26-.177.215-.266.13-.354-.043-.222-.173-.088-.173v-.39l.177-.345.221-.173.133-.043Z"/><path fill="url(#X)" d="m28.824 17.655.399.043.31.348.044.39-.133.261-.354.304-.266.044-.399-.26-.089-.218v-.347l.178-.348.31-.217Z"/><path fill="url(#Y)" d="M15.111 28.947h.434l.304.132.174.221v.353l-.174.265-.217.176-.39.044-.348-.176-.26-.353.043-.309.347-.309.087-.044Z"/><path fill="url(#Z)" d="M23 26.54h.263l.263.13.176.219.043.262-.175.349-.263.218-.263.087-.35-.043-.22-.175-.044-.13v-.437l.132-.218h.087v-.088L23 26.54Z"/><path fill="url(#aa)" d="M5.52 5.172h.264l.263.175.175.263v.263l-.22.35-.262.22-.088.044h-.307l-.219-.132-.175-.219-.044-.307.219-.394h.088v-.088l.307-.175Z"/><path fill="url(#ab)" d="m20.498 2.193.396.087.308.217.132.217v.348l-.22.26-.176.087h-.396l-.353-.174-.176-.26-.044-.304.132-.26.265-.174.132-.044Z"/><path fill="url(#ac)" d="M1.627 12.27h.31l.31.175.134.176.044.353-.133.308-.222.22-.177.132-.399-.044-.221-.264-.089-.22v-.308l.177-.353.266-.176Z"/><path fill="url(#ad)" d="M2.465 9.69h.354l.222.129.177.389-.089.39-.266.302-.265.13-.31-.044-.267-.26-.044-.172v-.346l.133-.26.222-.216.133-.043Z"/><path fill="url(#ae)" d="m7.674 3.46.35.043.264.262.043.393-.219.35-.263.174-.394.043-.264-.13-.175-.219v-.349l.132-.218.219-.218.307-.131Z"/><path fill="url(#af)" d="m2.376 20.286.399.043.266.216.177.39-.089.388-.221.217-.133.086h-.266l-.355-.216-.177-.346v-.389l.177-.26.222-.13Z"/><path fill="url(#ag)" d="M15.157 1.2h.392l.262.13.218.26.044.302-.306.346-.174.086-.305.043-.35-.13-.218-.215-.087-.13.044-.302.218-.216.262-.173Z"/><path fill="url(#ah)" d="m3.656 22.693.349.044.262.175.218.351v.307l-.175.307-.174.132h-.35l-.261-.176-.218-.263-.088-.22.044-.35.218-.22.175-.087Z"/><path fill="url(#ai)" d="M3.787 7.281h.305l.218.132.175.306v.307l-.218.351-.219.176-.087.043h-.349l-.218-.131-.131-.176-.044-.306.131-.307.262-.307.175-.088Z"/><path fill="url(#aj)" d="M17.915 28.65h.31l.353.172.177.26v.258l-.221.303-.31.173h-.353l-.31-.13-.177-.216-.044-.26.177-.302.265-.216.133-.043Z"/><path fill="url(#ak)" d="m22.825 3.46.35.043.395.262.175.306-.043.305-.176.218-.263.131-.394-.043-.263-.175V4.42h-.088l-.088-.218v-.35l.132-.218.263-.174Z"/><path fill="url(#al)" d="M28.735 12.27h.31l.266.173.222.26.044.348-.177.348-.266.217-.221.043-.355-.26-.177-.218-.045-.39.133-.305.266-.217Z"/><path fill="url(#am)" d="m24.927 5.172.351.043.35.264.176.35-.044.307-.263.307-.087.044h-.307l-.307-.175-.22-.263-.087-.307.131-.307.22-.22.087-.043Z"/><path fill="url(#an)" d="M12.44 28.65h.354l.265.129.265.302.044.303-.177.259-.176.13-.133.043h-.354l-.353-.173-.177-.216-.044-.26.176-.345.31-.173Z"/><path fill="url(#ao)" d="M27.894 9.69h.31l.266.129.222.216.088.26-.044.345-.31.346-.31.043-.355-.216-.177-.26-.044-.129v-.303l.133-.259.221-.173Z"/><path fill="url(#ap)" d="m25.19 24.802.22.044.219.129.131.172.044.3-.175.345-.263.215-.22.086-.35-.043-.263-.301-.044-.258.175-.387.175-.086v-.087l.351-.129Z"/><path fill="url(#aq)" d="M9.948 2.244h.396l.22.13.177.216v.345l-.22.303-.353.172h-.396l-.22-.13-.132-.172-.045-.26.133-.302.22-.216.22-.086Z"/><path fill="url(#ar)" d="M26.643 7.281h.262l.262.132.306.35.043.395-.174.307-.175.131h-.35l-.305-.175-.218-.35-.044-.308.131-.263.262-.219Z"/><path fill="url(#as)" d="M17.738 1.499h.575l.265.173.133.172.044.346-.265.346-.354.13-.354-.087-.353-.303-.089-.302.133-.302.265-.173Z"/><path fill="url(#at)" d="M1.366 14.95h.303l.216.174.172.304.044.217-.087.347-.26.304-.085.044h-.303l-.26-.217-.172-.304v-.348l.216-.39.216-.131Z"/><path fill="url(#au)" d="M12.4 1.499h.573l.264.175.132.22v.263l-.308.352-.22.131h-.44l-.264-.175-.133-.176v-.351l.177-.307.22-.132Z"/><path fill="url(#av)" d="m29.132 14.9.216.044.26.218.215.392-.043.306-.26.349-.172.13h-.302l-.26-.217-.13-.306v-.305l.217-.436.259-.175Z"/><path fill="url(#aw)" d="m5.433 24.802.394.13.264.215.131.258v.258l-.175.258-.307.172-.395-.086-.219-.215-.22-.344.045-.301.175-.215.307-.13Z"/><path fill="url(#ax)" d="m.363 13.758.221.045.178.22v.265l-.178.22-.266.045-.177-.22v-.31l.089-.176.133-.088Z"/><path fill="url(#ay)" d="m30.231 16.787.301.044.086.131-.043.307-.129.219-.215.043-.215-.262-.043-.263.13-.175.128-.044Z"/><path fill="url(#az)" d="M30.143 13.808h.256l.17.175v.35l-.17.22-.213-.044-.213-.219.043-.306.127-.176Z"/><path fill="url(#aA)" d="m28.599 22.346.172.042.086.086v.342l-.258.299-.172-.086-.173-.17-.043-.172.043-.085h.086l.087-.171.172-.085Z"/><path fill="url(#aB)" d="M.274 16.787H.54l.222.219v.262l-.31.263-.178-.087-.133-.22.044-.35.09-.087Z"/><path fill="url(#aC)" d="m1.981 22.346.258.043.215.263.043.131-.129.22-.086.087-.215-.044-.215-.263v-.306l.13-.131Z"/><path fill="url(#aD)" d="M19.631 29.692h.263l.175.133-.044.31-.218.178-.307-.045-.131-.088-.044-.178.131-.221.175-.089Z"/><path fill="url(#aE)" d="M28.384 8.249h.258l.215.217v.304l-.13.174-.258-.044-.215-.26-.043-.174.173-.217Z"/><path fill="url(#aF)" d="M13.755 30.262h.263l.22.22v.22l-.132.131h-.35l-.22-.131-.043-.176.175-.22.088-.044Z"/><path fill="url(#aG)" d="m19.595.977.262.043.175.085.088.213-.219.255-.35-.043-.175-.17v-.255l.218-.128Z"/><path fill="url(#aH)" d="M22.25 2.119h.264l.219.17.043.255-.219.17-.306-.042-.22-.255.132-.256.088-.042Z"/><path fill="url(#aI)" d="M10.821 29.692h.315l.18.133.045.31-.09.133-.315.045-.225-.133-.09-.178.045-.177.135-.133Z"/><path fill="url(#aJ)" d="M.844 19.616h.266l.178.225.044.27-.089.18-.31.045-.222-.27v-.225l.133-.225Z"/><path fill="url(#aK)" d="m.835 10.954.31.043.09.044v.304l-.178.26-.177.044-.178-.087-.088-.174.044-.304.177-.13Z"/><path fill="url(#aL)" d="M16.648.457h.35l.22.13v.217l-.22.174h-.35l-.175-.174V.587l.175-.13Z"/><path fill="url(#aM)" d="M29.616 19.616h.212l.17.175v.263l-.212.263-.213.043-.17-.262.042-.263.17-.219Z"/><path fill="url(#aN)" d="M2.074 8.249h.266l.133.13v.26l-.178.261-.221.044-.222-.217.044-.305.178-.173Z"/><path fill="url(#aO)" d="m8.332 2.07.26.085.088.086-.044.215-.173.215-.261.043-.217-.172.043-.3h.087v-.087l.217-.086Z"/><path fill="url(#aP)" d="m10.956.977.27.043.135.085v.255l-.18.17-.315.043-.225-.17.045-.256.135-.127.135-.043Z"/><path fill="url(#aQ)" d="M13.712.457h.438l.087.084-.044.294-.175.126-.175.042-.263-.126-.087-.084v-.21l.219-.126Z"/><path fill="url(#aR)" d="M16.692 30.262h.263l.219.132.044.22-.132.175-.131.044h-.307l-.175-.175.088-.264.131-.131Z"/><path fill="url(#aS)" d="m29.573 10.954.255.043.17.174v.26l-.17.218-.212-.044-.213-.26.042-.304.128-.087Z"/><path fill="url(#aT)" d="M22.337 28.55h.3l.087.09v.265l-.172.222-.258.044-.172-.089-.043-.31.258-.221Z"/><path fill="url(#aU)" d="M3.689 5.792h.268l.178.173-.044.218-.179.217-.223.087-.179-.174-.045-.174.179-.304.045-.043Z"/><path fill="url(#aV)" d="M8.114 28.55h.258l.215.178.043.266-.129.133-.258.044-.258-.222.043-.31.086-.088Z"/><path fill="url(#aW)" d="m26.799 5.792.266.043.177.172-.044.301-.133.129-.222-.043-.221-.215v-.215l.177-.172Z"/><path fill="url(#aX)" d="m5.66 26.937.298.045.212.221v.222l-.17.133h-.213l-.212-.222v-.354l.085-.045Z"/><path fill="url(#aY)" d="M26.813 24.878h.344l.086.133-.043.265-.215.222-.258-.044-.129-.31.215-.266Z"/><path fill="url(#aZ)" d="m5.782 3.732.258.044.13.09v.265l-.259.222-.301-.045-.086-.221.086-.222.172-.133Z"/><path fill="url(#ba)" d="m24.84 26.937.302.045.043.31-.215.221-.172.045-.215-.133-.043-.222.043-.088h.086v-.09l.172-.088Z"/><path fill="url(#bb)" d="M24.663 3.782h.347l.13.088.044.263-.174.22-.26-.044-.261-.307.087-.176.087-.044Z"/><path fill="url(#bc)" d="m3.687 24.828.266.09.133.178v.313l-.133.089-.222-.045-.221-.178-.045-.18.133-.222.089-.045Z"/><defs><linearGradient id="a" x1="77.939" x2="77.939" y1="9.8" y2="18.055" gradientUnits="userSpaceOnUse"><stop stop-color="#EAEAF5"/><stop offset="1" stop-color="#C9D2F4"/></linearGradient><linearGradient id="b" x1="41.096" x2="41.096" y1="9.744" y2="18.11" gradientUnits="userSpaceOnUse"><stop stop-color="#EAEAF5"/><stop offset="1" stop-color="#C9D2F4"/></linearGradient><linearGradient id="c" x1="87.276" x2="87.276" y1="9.744" y2="18.11" gradientUnits="userSpaceOnUse"><stop stop-color="#EAEAF5"/><stop offset="1" stop-color="#C9D2F4"/></linearGradient><linearGradient id="d" x1="109.467" x2="109.467" y1="9.689" y2="18.222" gradientUnits="userSpaceOnUse"><stop stop-color="#EAEAF5"/><stop offset="1" stop-color="#C9D2F4"/></linearGradient><linearGradient id="e" x1="51.014" x2="51.014" y1="9.8" y2="18.222" gradientUnits="userSpaceOnUse"><stop stop-color="#EAEAF5"/><stop offset="1" stop-color="#C9D2F4"/></linearGradient><linearGradient id="f" x1="95.531" x2="95.531" y1="9.744" y2="18.11" gradientUnits="userSpaceOnUse"><stop stop-color="#EAEAF5"/><stop offset="1" stop-color="#C9D2F4"/></linearGradient><linearGradient id="g" x1="102.204" x2="102.204" y1="9.8" y2="18.111" gradientUnits="userSpaceOnUse"><stop stop-color="#EAEAF5"/><stop offset="1" stop-color="#C9D2F4"/></linearGradient><linearGradient id="h" x1="65.223" x2="65.223" y1="9.8" y2="18.055" gradientUnits="userSpaceOnUse"><stop stop-color="#EAEAF5"/><stop offset="1" stop-color="#C9D2F4"/></linearGradient><linearGradient id="i" x1="59.63" x2="59.63" y1="9.8" y2="18.111" gradientUnits="userSpaceOnUse"><stop stop-color="#EAEAF5"/><stop offset="1" stop-color="#C9D2F4"/></linearGradient><linearGradient id="j" x1="70.739" x2="70.739" y1="9.8" y2="18.055" gradientUnits="userSpaceOnUse"><stop stop-color="#EAEAF5"/><stop offset="1" stop-color="#C9D2F4"/></linearGradient><linearGradient id="k" x1="15.28" x2="15.28" y1="10.036" y2="21.278" gradientUnits="userSpaceOnUse"><stop stop-color="#EAEAF5"/><stop offset="1" stop-color="#C9D2F4"/></linearGradient><linearGradient id="l" x1="3.295" x2="3.295" y1="13.536" y2="15.372" gradientUnits="userSpaceOnUse"><stop stop-color="#EAEAF5"/><stop offset="1" stop-color="#C9D2F4"/></linearGradient><linearGradient id="m" x1="11.829" x2="11.829" y1="26.416" y2="28.153" gradientUnits="userSpaceOnUse"><stop stop-color="#EAEAF5"/><stop offset="1" stop-color="#C9D2F4"/></linearGradient><linearGradient id="n" x1="18.902" x2="18.902" y1="26.416" y2="28.153" gradientUnits="userSpaceOnUse"><stop stop-color="#EAEAF5"/><stop offset="1" stop-color="#C9D2F4"/></linearGradient><linearGradient id="o" x1="4.647" x2="4.647" y1="9.019" y2="10.831" gradientUnits="userSpaceOnUse"><stop stop-color="#EAEAF5"/><stop offset="1" stop-color="#C9D2F4"/></linearGradient><linearGradient id="p" x1="21.089" x2="21.089" y1="25.498" y2="27.235" gradientUnits="userSpaceOnUse"><stop stop-color="#EAEAF5"/><stop offset="1" stop-color="#C9D2F4"/></linearGradient><linearGradient id="q" x1="11.855" x2="11.855" y1="3.162" y2="4.899" gradientUnits="userSpaceOnUse"><stop stop-color="#EAEAF5"/><stop offset="1" stop-color="#C9D2F4"/></linearGradient><linearGradient id="r" x1="3.776" x2="3.776" y1="11.227" y2="13.014" gradientUnits="userSpaceOnUse"><stop stop-color="#EAEAF5"/><stop offset="1" stop-color="#C9D2F4"/></linearGradient><linearGradient id="s" x1="16.546" x2="16.546" y1="26.887" y2="28.6" gradientUnits="userSpaceOnUse"><stop stop-color="#EAEAF5"/><stop offset="1" stop-color="#C9D2F4"/></linearGradient><linearGradient id="t" x1="27.416" x2="27.416" y1="13.536" y2="15.372" gradientUnits="userSpaceOnUse"><stop stop-color="#EAEAF5"/><stop offset="1" stop-color="#C9D2F4"/></linearGradient><linearGradient id="u" x1="4.647" x2="4.647" y1="20.509" y2="22.247" gradientUnits="userSpaceOnUse"><stop stop-color="#EAEAF5"/><stop offset="1" stop-color="#C9D2F4"/></linearGradient><linearGradient id="v" x1="18.902" x2="18.902" y1="3.162" y2="4.899" gradientUnits="userSpaceOnUse"><stop stop-color="#EAEAF5"/><stop offset="1" stop-color="#C9D2F4"/></linearGradient><linearGradient id="w" x1="3.295" x2="3.295" y1="15.943" y2="17.705" gradientUnits="userSpaceOnUse"><stop stop-color="#EAEAF5"/><stop offset="1" stop-color="#C9D2F4"/></linearGradient><linearGradient id="x" x1="9.62" x2="9.62" y1="25.498" y2="27.235" gradientUnits="userSpaceOnUse"><stop stop-color="#EAEAF5"/><stop offset="1" stop-color="#C9D2F4"/></linearGradient><linearGradient id="y" x1="27.416" x2="27.416" y1="15.943" y2="17.73" gradientUnits="userSpaceOnUse"><stop stop-color="#EAEAF5"/><stop offset="1" stop-color="#C9D2F4"/></linearGradient><linearGradient id="z" x1="9.671" x2="9.671" y1="4.03" y2="5.792" gradientUnits="userSpaceOnUse"><stop stop-color="#EAEAF5"/><stop offset="1" stop-color="#C9D2F4"/></linearGradient><linearGradient id="A" x1="23.059" x2="23.059" y1="24.182" y2="25.92" gradientUnits="userSpaceOnUse"><stop stop-color="#EAEAF5"/><stop offset="1" stop-color="#C9D2F4"/></linearGradient><linearGradient id="B" x1="24.734" x2="24.734" y1="22.471" y2="24.257" gradientUnits="userSpaceOnUse"><stop stop-color="#EAEAF5"/><stop offset="1" stop-color="#C9D2F4"/></linearGradient><linearGradient id="C" x1="3.776" x2="3.776" y1="18.276" y2="20.113" gradientUnits="userSpaceOnUse"><stop stop-color="#EAEAF5"/><stop offset="1" stop-color="#C9D2F4"/></linearGradient><linearGradient id="D" x1="26.958" x2="26.958" y1="11.227" y2="13.014" gradientUnits="userSpaceOnUse"><stop stop-color="#EAEAF5"/><stop offset="1" stop-color="#C9D2F4"/></linearGradient><linearGradient id="E" x1="26.958" x2="26.958" y1="18.276" y2="20.113" gradientUnits="userSpaceOnUse"><stop stop-color="#EAEAF5"/><stop offset="1" stop-color="#C9D2F4"/></linearGradient><linearGradient id="F" x1="21.089" x2="21.089" y1="4.03" y2="5.792" gradientUnits="userSpaceOnUse"><stop stop-color="#EAEAF5"/><stop offset="1" stop-color="#C9D2F4"/></linearGradient><linearGradient id="G" x1="14.188" x2="14.188" y1="2.715" y2="4.427" gradientUnits="userSpaceOnUse"><stop stop-color="#EAEAF5"/><stop offset="1" stop-color="#C9D2F4"/></linearGradient><linearGradient id="H" x1="7.674" x2="7.674" y1="24.133" y2="25.919" gradientUnits="userSpaceOnUse"><stop stop-color="#EAEAF5"/><stop offset="1" stop-color="#C9D2F4"/></linearGradient><linearGradient id="I" x1="26.087" x2="26.087" y1="20.509" y2="22.247" gradientUnits="userSpaceOnUse"><stop stop-color="#EAEAF5"/><stop offset="1" stop-color="#C9D2F4"/></linearGradient><linearGradient id="J" x1="14.176" x2="14.176" y1="26.887" y2="28.6" gradientUnits="userSpaceOnUse"><stop stop-color="#EAEAF5"/><stop offset="1" stop-color="#C9D2F4"/></linearGradient><linearGradient id="K" x1="7.674" x2="7.674" y1="5.395" y2="7.133" gradientUnits="userSpaceOnUse"><stop stop-color="#EAEAF5"/><stop offset="1" stop-color="#C9D2F4"/></linearGradient><linearGradient id="L" x1="16.546" x2="16.546" y1="2.715" y2="4.377" gradientUnits="userSpaceOnUse"><stop stop-color="#EAEAF5"/><stop offset="1" stop-color="#C9D2F4"/></linearGradient><linearGradient id="M" x1="26.087" x2="26.087" y1="9.019" y2="10.831" gradientUnits="userSpaceOnUse"><stop stop-color="#EAEAF5"/><stop offset="1" stop-color="#C9D2F4"/></linearGradient><linearGradient id="N" x1="5.984" x2="5.984" y1="7.058" y2="8.82" gradientUnits="userSpaceOnUse"><stop stop-color="#EAEAF5"/><stop offset="1" stop-color="#C9D2F4"/></linearGradient><linearGradient id="O" x1="6.01" x2="6.01" y1="22.47" y2="24.257" gradientUnits="userSpaceOnUse"><stop stop-color="#EAEAF5"/><stop offset="1" stop-color="#C9D2F4"/></linearGradient><linearGradient id="P" x1="24.734" x2="24.734" y1="7.058" y2="8.82" gradientUnits="userSpaceOnUse"><stop stop-color="#EAEAF5"/><stop offset="1" stop-color="#C9D2F4"/></linearGradient><linearGradient id="Q" x1="23.034" x2="23.034" y1="5.395" y2="7.133" gradientUnits="userSpaceOnUse"><stop stop-color="#EAEAF5"/><stop offset="1" stop-color="#C9D2F4"/></linearGradient><linearGradient id="R" x1="1.805" x2="1.805" y1="17.655" y2="19.045" gradientUnits="userSpaceOnUse"><stop stop-color="#EAEAF5"/><stop offset="1" stop-color="#C9D2F4"/></linearGradient><linearGradient id="S" x1="20.652" x2="20.652" y1="27.805" y2="29.071" gradientUnits="userSpaceOnUse"><stop stop-color="#EAEAF5"/><stop offset="1" stop-color="#C9D2F4"/></linearGradient><linearGradient id="T" x1="10.058" x2="10.058" y1="27.805" y2="29.071" gradientUnits="userSpaceOnUse"><stop stop-color="#EAEAF5"/><stop offset="1" stop-color="#C9D2F4"/></linearGradient><linearGradient id="U" x1="7.648" x2="7.648" y1="26.54" y2="27.805" gradientUnits="userSpaceOnUse"><stop stop-color="#EAEAF5"/><stop offset="1" stop-color="#C9D2F4"/></linearGradient><linearGradient id="V" x1="26.883" x2="26.883" y1="22.693" y2="24.009" gradientUnits="userSpaceOnUse"><stop stop-color="#EAEAF5"/><stop offset="1" stop-color="#C9D2F4"/></linearGradient><linearGradient id="W" x1="28.16" x2="28.16" y1="20.286" y2="21.626" gradientUnits="userSpaceOnUse"><stop stop-color="#EAEAF5"/><stop offset="1" stop-color="#C9D2F4"/></linearGradient><linearGradient id="X" x1="28.957" x2="28.957" y1="17.655" y2="19.045" gradientUnits="userSpaceOnUse"><stop stop-color="#EAEAF5"/><stop offset="1" stop-color="#C9D2F4"/></linearGradient><linearGradient id="Y" x1="15.328" x2="15.328" y1="28.947" y2="30.138" gradientUnits="userSpaceOnUse"><stop stop-color="#EAEAF5"/><stop offset="1" stop-color="#C9D2F4"/></linearGradient><linearGradient id="Z" x1="23.088" x2="23.088" y1="26.54" y2="27.805" gradientUnits="userSpaceOnUse"><stop stop-color="#EAEAF5"/><stop offset="1" stop-color="#C9D2F4"/></linearGradient><linearGradient id="aa" x1="5.564" x2="5.564" y1="5.172" y2="6.487" gradientUnits="userSpaceOnUse"><stop stop-color="#EAEAF5"/><stop offset="1" stop-color="#C9D2F4"/></linearGradient><linearGradient id="ab" x1="20.652" x2="20.652" y1="2.193" y2="3.409" gradientUnits="userSpaceOnUse"><stop stop-color="#EAEAF5"/><stop offset="1" stop-color="#C9D2F4"/></linearGradient><linearGradient id="ac" x1="1.805" x2="1.805" y1="12.269" y2="13.634" gradientUnits="userSpaceOnUse"><stop stop-color="#EAEAF5"/><stop offset="1" stop-color="#C9D2F4"/></linearGradient><linearGradient id="ad" x1="2.598" x2="2.598" y1="9.689" y2="11.029" gradientUnits="userSpaceOnUse"><stop stop-color="#EAEAF5"/><stop offset="1" stop-color="#C9D2F4"/></linearGradient><linearGradient id="ae" x1="7.674" x2="7.674" y1="3.46" y2="4.725" gradientUnits="userSpaceOnUse"><stop stop-color="#EAEAF5"/><stop offset="1" stop-color="#C9D2F4"/></linearGradient><linearGradient id="af" x1="2.598" x2="2.598" y1="20.286" y2="21.626" gradientUnits="userSpaceOnUse"><stop stop-color="#EAEAF5"/><stop offset="1" stop-color="#C9D2F4"/></linearGradient><linearGradient id="ag" x1="15.353" x2="15.353" y1="1.201" y2="2.367" gradientUnits="userSpaceOnUse"><stop stop-color="#EAEAF5"/><stop offset="1" stop-color="#C9D2F4"/></linearGradient><linearGradient id="ah" x1="3.852" x2="3.852" y1="22.693" y2="24.009" gradientUnits="userSpaceOnUse"><stop stop-color="#EAEAF5"/><stop offset="1" stop-color="#C9D2F4"/></linearGradient><linearGradient id="ai" x1="3.852" x2="3.852" y1="7.281" y2="8.596" gradientUnits="userSpaceOnUse"><stop stop-color="#EAEAF5"/><stop offset="1" stop-color="#C9D2F4"/></linearGradient><linearGradient id="aj" x1="18.048" x2="18.048" y1="28.649" y2="29.816" gradientUnits="userSpaceOnUse"><stop stop-color="#EAEAF5"/><stop offset="1" stop-color="#C9D2F4"/></linearGradient><linearGradient id="ak" x1="23.088" x2="23.088" y1="3.46" y2="4.725" gradientUnits="userSpaceOnUse"><stop stop-color="#EAEAF5"/><stop offset="1" stop-color="#C9D2F4"/></linearGradient><linearGradient id="al" x1="28.957" x2="28.957" y1="12.269" y2="13.659" gradientUnits="userSpaceOnUse"><stop stop-color="#EAEAF5"/><stop offset="1" stop-color="#C9D2F4"/></linearGradient><linearGradient id="am" x1="25.146" x2="25.146" y1="5.172" y2="6.487" gradientUnits="userSpaceOnUse"><stop stop-color="#EAEAF5"/><stop offset="1" stop-color="#C9D2F4"/></linearGradient><linearGradient id="an" x1="12.661" x2="12.661" y1="28.649" y2="29.816" gradientUnits="userSpaceOnUse"><stop stop-color="#EAEAF5"/><stop offset="1" stop-color="#C9D2F4"/></linearGradient><linearGradient id="ao" x1="28.16" x2="28.16" y1="9.689" y2="11.029" gradientUnits="userSpaceOnUse"><stop stop-color="#EAEAF5"/><stop offset="1" stop-color="#C9D2F4"/></linearGradient><linearGradient id="ap" x1="25.146" x2="25.146" y1="24.802" y2="26.093" gradientUnits="userSpaceOnUse"><stop stop-color="#EAEAF5"/><stop offset="1" stop-color="#C9D2F4"/></linearGradient><linearGradient id="aq" x1="10.058" x2="10.058" y1="2.244" y2="3.41" gradientUnits="userSpaceOnUse"><stop stop-color="#EAEAF5"/><stop offset="1" stop-color="#C9D2F4"/></linearGradient><linearGradient id="ar" x1="26.883" x2="26.883" y1="7.281" y2="8.596" gradientUnits="userSpaceOnUse"><stop stop-color="#EAEAF5"/><stop offset="1" stop-color="#C9D2F4"/></linearGradient><linearGradient id="as" x1="18.048" x2="18.048" y1="1.499" y2="2.665" gradientUnits="userSpaceOnUse"><stop stop-color="#EAEAF5"/><stop offset="1" stop-color="#C9D2F4"/></linearGradient><linearGradient id="at" x1="1.517" x2="1.517" y1="14.95" y2="16.34" gradientUnits="userSpaceOnUse"><stop stop-color="#EAEAF5"/><stop offset="1" stop-color="#C9D2F4"/></linearGradient><linearGradient id="au" x1="12.687" x2="12.687" y1="1.499" y2="2.64" gradientUnits="userSpaceOnUse"><stop stop-color="#EAEAF5"/><stop offset="1" stop-color="#C9D2F4"/></linearGradient><linearGradient id="av" x1="29.24" x2="29.24" y1="14.9" y2="16.34" gradientUnits="userSpaceOnUse"><stop stop-color="#EAEAF5"/><stop offset="1" stop-color="#C9D2F4"/></linearGradient><linearGradient id="aw" x1="5.564" x2="5.564" y1="24.802" y2="26.093" gradientUnits="userSpaceOnUse"><stop stop-color="#EAEAF5"/><stop offset="1" stop-color="#C9D2F4"/></linearGradient><linearGradient id="ax" x1=".451" x2=".451" y1="13.758" y2="14.553" gradientUnits="userSpaceOnUse"><stop stop-color="#EAEAF5"/><stop offset="1" stop-color="#C9D2F4"/></linearGradient><linearGradient id="ay" x1="30.296" x2="30.296" y1="16.787" y2="17.531" gradientUnits="userSpaceOnUse"><stop stop-color="#EAEAF5"/><stop offset="1" stop-color="#C9D2F4"/></linearGradient><linearGradient id="az" x1="30.271" x2="30.271" y1="13.808" y2="14.553" gradientUnits="userSpaceOnUse"><stop stop-color="#EAEAF5"/><stop offset="1" stop-color="#C9D2F4"/></linearGradient><linearGradient id="aA" x1="28.534" x2="28.534" y1="22.346" y2="23.115" gradientUnits="userSpaceOnUse"><stop stop-color="#EAEAF5"/><stop offset="1" stop-color="#C9D2F4"/></linearGradient><linearGradient id="aB" x1=".451" x2=".451" y1="16.787" y2="17.531" gradientUnits="userSpaceOnUse"><stop stop-color="#EAEAF5"/><stop offset="1" stop-color="#C9D2F4"/></linearGradient><linearGradient id="aC" x1="2.175" x2="2.175" y1="22.346" y2="23.09" gradientUnits="userSpaceOnUse"><stop stop-color="#EAEAF5"/><stop offset="1" stop-color="#C9D2F4"/></linearGradient><linearGradient id="aD" x1="19.697" x2="19.697" y1="29.692" y2="30.313" gradientUnits="userSpaceOnUse"><stop stop-color="#EAEAF5"/><stop offset="1" stop-color="#C9D2F4"/></linearGradient><linearGradient id="aE" x1="28.534" x2="28.534" y1="8.249" y2="8.944" gradientUnits="userSpaceOnUse"><stop stop-color="#EAEAF5"/><stop offset="1" stop-color="#C9D2F4"/></linearGradient><linearGradient id="aF" x1="13.865" x2="13.865" y1="30.262" y2="30.833" gradientUnits="userSpaceOnUse"><stop stop-color="#EAEAF5"/><stop offset="1" stop-color="#C9D2F4"/></linearGradient><linearGradient id="aG" x1="19.748" x2="19.748" y1=".977" y2="1.573" gradientUnits="userSpaceOnUse"><stop stop-color="#EAEAF5"/><stop offset="1" stop-color="#C9D2F4"/></linearGradient><linearGradient id="aH" x1="22.404" x2="22.404" y1="2.119" y2="2.715" gradientUnits="userSpaceOnUse"><stop stop-color="#EAEAF5"/><stop offset="1" stop-color="#C9D2F4"/></linearGradient><linearGradient id="aI" x1="11.001" x2="11.001" y1="29.692" y2="30.313" gradientUnits="userSpaceOnUse"><stop stop-color="#EAEAF5"/><stop offset="1" stop-color="#C9D2F4"/></linearGradient><linearGradient id="aJ" x1="1.022" x2="1.022" y1="19.616" y2="20.336" gradientUnits="userSpaceOnUse"><stop stop-color="#EAEAF5"/><stop offset="1" stop-color="#C9D2F4"/></linearGradient><linearGradient id="aK" x1=".924" x2=".924" y1="10.954" y2="11.649" gradientUnits="userSpaceOnUse"><stop stop-color="#EAEAF5"/><stop offset="1" stop-color="#C9D2F4"/></linearGradient><linearGradient id="aL" x1="16.845" x2="16.845" y1=".457" y2=".978" gradientUnits="userSpaceOnUse"><stop stop-color="#EAEAF5"/><stop offset="1" stop-color="#C9D2F4"/></linearGradient><linearGradient id="aM" x1="29.701" x2="29.701" y1="19.616" y2="20.36" gradientUnits="userSpaceOnUse"><stop stop-color="#EAEAF5"/><stop offset="1" stop-color="#C9D2F4"/></linearGradient><linearGradient id="aN" x1="2.162" x2="2.162" y1="8.249" y2="8.944" gradientUnits="userSpaceOnUse"><stop stop-color="#EAEAF5"/><stop offset="1" stop-color="#C9D2F4"/></linearGradient><linearGradient id="aO" x1="8.332" x2="8.332" y1="2.069" y2="2.714" gradientUnits="userSpaceOnUse"><stop stop-color="#EAEAF5"/><stop offset="1" stop-color="#C9D2F4"/></linearGradient><linearGradient id="aP" x1="11.001" x2="11.001" y1=".977" y2="1.573" gradientUnits="userSpaceOnUse"><stop stop-color="#EAEAF5"/><stop offset="1" stop-color="#C9D2F4"/></linearGradient><linearGradient id="aQ" x1="13.865" x2="13.865" y1=".457" y2="1.003" gradientUnits="userSpaceOnUse"><stop stop-color="#EAEAF5"/><stop offset="1" stop-color="#C9D2F4"/></linearGradient><linearGradient id="aR" x1="16.845" x2="16.845" y1="30.262" y2="30.833" gradientUnits="userSpaceOnUse"><stop stop-color="#EAEAF5"/><stop offset="1" stop-color="#C9D2F4"/></linearGradient><linearGradient id="aS" x1="29.701" x2="29.701" y1="10.954" y2="11.649" gradientUnits="userSpaceOnUse"><stop stop-color="#EAEAF5"/><stop offset="1" stop-color="#C9D2F4"/></linearGradient><linearGradient id="aT" x1="22.401" x2="22.401" y1="28.55" y2="29.171" gradientUnits="userSpaceOnUse"><stop stop-color="#EAEAF5"/><stop offset="1" stop-color="#C9D2F4"/></linearGradient><linearGradient id="aU" x1="3.8" x2="3.8" y1="5.792" y2="6.487" gradientUnits="userSpaceOnUse"><stop stop-color="#EAEAF5"/><stop offset="1" stop-color="#C9D2F4"/></linearGradient><linearGradient id="aV" x1="8.307" x2="8.307" y1="28.55" y2="29.171" gradientUnits="userSpaceOnUse"><stop stop-color="#EAEAF5"/><stop offset="1" stop-color="#C9D2F4"/></linearGradient><linearGradient id="aW" x1="26.932" x2="26.932" y1="5.792" y2="6.437" gradientUnits="userSpaceOnUse"><stop stop-color="#EAEAF5"/><stop offset="1" stop-color="#C9D2F4"/></linearGradient><linearGradient id="aX" x1="5.873" x2="5.873" y1="26.937" y2="27.558" gradientUnits="userSpaceOnUse"><stop stop-color="#EAEAF5"/><stop offset="1" stop-color="#C9D2F4"/></linearGradient><linearGradient id="aY" x1="26.921" x2="26.921" y1="24.878" y2="25.498" gradientUnits="userSpaceOnUse"><stop stop-color="#EAEAF5"/><stop offset="1" stop-color="#C9D2F4"/></linearGradient><linearGradient id="aZ" x1="5.847" x2="5.847" y1="3.732" y2="4.353" gradientUnits="userSpaceOnUse"><stop stop-color="#EAEAF5"/><stop offset="1" stop-color="#C9D2F4"/></linearGradient><linearGradient id="ba" x1="24.862" x2="24.862" y1="26.937" y2="27.558" gradientUnits="userSpaceOnUse"><stop stop-color="#EAEAF5"/><stop offset="1" stop-color="#C9D2F4"/></linearGradient><linearGradient id="bb" x1="24.836" x2="24.836" y1="3.782" y2="4.353" gradientUnits="userSpaceOnUse"><stop stop-color="#EAEAF5"/><stop offset="1" stop-color="#C9D2F4"/></linearGradient><linearGradient id="bc" x1="3.776" x2="3.776" y1="24.828" y2="25.498" gradientUnits="userSpaceOnUse"><stop stop-color="#EAEAF5"/><stop offset="1" stop-color="#C9D2F4"/></linearGradient></defs></svg>