<svg xmlns="http://www.w3.org/2000/svg" width="40" height="41" fill="none"><path fill="url(#a)" d="M1.45 30.25h1.419l.672.224.448.597 1.046 1.866.97 1.716.748 1.344.448.82.15.075-.075-.746v-5.3l.224-.372.224-.15h16.134l.224.374v.82l-.224.374H9.442v7.986l-.224.447-.224.15H7.276l-.449-.224-.373-.448-1.195-2.09-1.046-1.866-.97-1.716-.225-.299-.075 6.195-.298.373-.15.075h-1.12l-.448-.224-.075-.075v-9.478l.299-.374.299-.074Z"/><path fill="url(#b)" d="M21.987.741h.971l.897.224.821.523.748.671.821.896.673.821.598.598 1.046.82 1.12.971 1.046 1.045.673.822.896 1.194 1.345 2.016.897 1.418.896 1.493.897 1.568 1.046 1.941.822 1.642.597 1.419.747 2.24v.597l-.149.149-.598-.075-1.195-.597-.747-.523h-.15l.747 1.941.598 1.867-.075.522-.224.299-1.718.075-.448.298-.673.672-.373.224h-.449l-.373-.299-.224-.671-.748-4.256-.373-2.314v-.448l.15-.075.224.15.373 1.344.672 2.836.449 1.867.15.597.298-.15.448-.373.075-.149v-.522l-.598-2.763v-.373l.3.075.298.672.822 2.389.15.224.672.074.224-.075-.15-.671-1.12-3.21-.3-.747-1.568-1.194-.822-.672-1.046-.896-1.12-1.045-1.72-1.717-.522-.598-.822-.97-.971-1.344-1.12-1.866-.599-1.419-.448-1.343-.15-.822.3-.074 1.195 2.389.822 1.493 1.046 1.567.672.896.673.822.672.746.523.597 1.345 1.344.822.672.747.672.971.746 1.494 1.12 1.495 1.045.971.672-.374-1.045-.747-1.717-1.195-2.389-.822-1.568-.971-1.642-1.196-1.941-1.569-2.314-.747-.97-.822-.971-.896-.97-.747-.673-1.196-.97-.598-.523-.523-.522-.672-.821-.672-.747-.673-.597-.896-.374h-1.196l-.896.448-.374.448-.598 1.344-.299.523h.748l.074.149-.448.747 1.12-.15.897.15.449.298.373.597.224.896.449 2.837.373 1.12.747 1.418.748.97.672.747.523.598v.298l-.374-.074-1.046-.896-.747-.747-.822-1.045-.747-1.418-.299-1.046-.523-3.135-.299-.523-.298-.149h-1.57l-.746.15h-.3l.15-.449.224-.373.075-.298h-1.12l.298-.598.598-1.045.672-1.418.673-.747.597-.373.449-.15.523-.074Z"/><path fill="url(#c)" d="M35.212 32.855h1.046l.896.15.897.448.597.523.523.821.3.822.074.373v.897l-.224.373-.15.075-5.005.075.3.746.373.374.523.299.523.075.597-.15.672-.448.374-.373h.896l.747.074.075.075v.523l-.299.597-.523.598-.672.448-.672.224-.374.075h-1.793l-.821-.299-.673-.448-.523-.523-.448-.747-.299-.822-.074-.672v-.821l.224-1.046.448-.822.523-.597.597-.449.598-.298.747-.15Zm.299 1.569-.747.299-.448.522-.15.374v.224h3.287l-.075-.448-.298-.448-.523-.374-.523-.15h-.523Z"/><path fill="url(#d)" d="M13.098 32.855h1.27l.897.224.672.374.673.597.448.747.299.971.074 1.046-.149.373-.224.15h-5.005l.298.747.374.448.598.299h.896l.448-.224.673-.598.224-.075h1.195l.373.15v.597l-.373.673-.598.597-.896.448-.672.15h-1.719l-.747-.224-.747-.449-.672-.746-.523-1.046-.15-.598v-1.643l.3-.896.448-.747.672-.672.598-.374.597-.224.448-.075Zm.374 1.569-.672.224-.598.672-.15.448.075.075h3.213l-.075-.523-.523-.597-.747-.3h-.523Z"/><path fill="url(#e)" d="M21.987.741h.971l.897.224.821.523.748.671.821.896.673.821.598.598 1.046.82 1.12.971 1.046 1.045.673.822.896 1.194 1.345 2.016.897 1.418.896 1.493.897 1.568 1.046 1.941.822 1.642.597 1.419.747 2.24v.597l-.149.149-.598-.075-1.195-.597-.747-.523h-.15l.747 1.941.598 1.867-.075.522-.224.299-1.718.075-.448.298-.673.672-.373.224h-.449l-.373-.299-.224-.671-.748-4.256-.373-2.314v-.448l.15-.075.224.15.373 1.344.672 2.836.449 1.867.15.597.298-.15.448-.373.075-.149v-.522l-.598-2.763v-.373l.3.075.298.672.822 2.389.15.224.672.074.224-.075-.15-.671-1.12-3.21-.3-.747-1.568-1.194-.822-.672-1.046-.896-1.12-1.045-1.72-1.717-.522-.598-.822-.97-.971-1.344-1.12-1.866-.599-1.419-.448-1.343-.15-.822.3-.074 1.195 2.389.822 1.493 1.046 1.567.672.896.673.822.672.746.523.597 1.345 1.344.822.672.747.672.971.746 1.494 1.12 1.495 1.045.971.672-.374-1.045-.747-1.717-1.195-2.389-.822-1.568-.971-1.642-1.196-1.941-1.569-2.314-.747-.97-.822-.971-.896-.97-.747-.673-1.196-.97-.598-.523-.523-.522-.672-.821-.672-.747-.673-.597-.896-.374h-1.196l-.896.448-.374.448-.598 1.344-.299.523h.748l.074.149-.448.747 1.12-.15.897.15.449.298.373.597.224.896.449 2.837.373 1.12.747 1.418.748.97.672.747.523.598v.298l-.374-.074-1.046-.896-.747-.747-.822-1.045-.747-1.418-.299-1.046-.523-3.135-.299-.523-.298-.149h-1.57l-.746.15h-.3l.15-.449.224-.373.075-.298h-1.12l.298-.598.598-1.045.672-1.418.673-.747.597-.373.449-.15.523-.074Zm.224.15-.747.149-.897.448-.598.597-.597 1.269-.598 1.194-.224.374.15.074h.746l-.074.523-.075.448h2.316l.374.224.299.672.149.671.299 2.165.299 1.195.747 1.418.822 1.045.672.672.15-.074-.748-1.12-.747-1.27-.373-.82-.374-1.568-.299-2.314-.299-.747-.373-.373-.523-.224-1.793-.075.224-.672-.15-.149-.373-.075.075-.373.597-1.418.523-.672.598-.374.598-.149h1.12l.748.299.672.448.896.97.748.97.672.673.971.746.747.597 1.794 1.792.97 1.27 1.047 1.492.747 1.12.971 1.642.673 1.12.598.97.896 1.718.598 1.12.971 2.09.448 1.12.224.895-.373-.074-2.242-1.493-.97-.747-.897-.672-1.196-.97-.822-.672-.97-.896-.897-.97h-.15l-.15-.299-.97-1.12-.075-.15h-.15l-.15-.372-.672-.896-.597-.896-.972-1.568-.597-1.194-.3-.672-.298.15.373.97.897 1.866.822 1.27.598.82.747.97.523.523.523.598 1.12 1.194.822.821.598.523 1.12.97.673.598 1.793 1.343.449 1.27.747 2.09.373 1.194-.074.299-.15.075h-.597l-.449-.075-.15-.373-.373-1.12-.075-.15-.224.075.3 1.493-.075.373-.523.523-.225.15-.373.074-.3-1.194-.522-2.24-.299-1.195h-.15v.896l.598 3.061.224 1.27.225.223h.448l.448-.298.598-.598.448-.224 1.42-.074.448-.15.075-.522-1.27-3.584-.075-.448.747.3.971.596.747.374.374-.075-.075-.672-.672-1.94-.673-1.494-1.42-2.837L35.66 15l-.597-.97-.822-1.344-.897-1.419-.896-1.344-.972-1.343-.747-.896-.523-.597-.672-.672-.598-.523-.896-.746-.748-.598-.672-.672-.672-.82-.822-.897-.822-.746-.598-.299L22.51.89h-.3Z"/><path fill="url(#f)" d="M20.417 32.855h1.121l.822.15.748.298.822.747.224.449v.597l-.224.15h-1.345l-.374-.374-.523-.373-.972-.075-.523.224-.15.15v.447l.599.3 2.391.672.598.373.523.597.224.673v.821l-.373.747-.673.673-.673.298-.672.15h-1.868l-.972-.299-.822-.523-.448-.597-.15-.449.075-.523.224-.224h1.046l.449.15.448.523.598.299h1.046l.374-.225h.15l.074-.597-.224-.224-2.69-.747-.748-.448-.523-.673-.15-.448v-.597l.225-.747.448-.598.673-.448.672-.224.523-.075Z"/><path fill="url(#g)" d="M6.374 11.19h.97l-.074.373-.224.299-1.418.224-.97.299-.523.299-.074.374.373.373 1.045.523.746.225.597-.075.671-.299.299-.075h.746l1.194.3 1.418.597.671.374-.223.373-.15.15-.522-.075-.895-.373-1.418-.374H7.94l-1.12.373h-.97l-.895-.298-1.044-.524.074.598.448.598.82.673 1.419.747.074.075v.523l-.224.075-1.343-.449-.82-.373.149.598.522.747.671.747.374.3.746-.076.373-.074h.522l.97.299 1.194.672.97.822.299.3-.15.298-.298.224-.298-.074-1.12-.897-1.119-.598-.522-.15h-.597l-1.12.374-2.462 1.047-.896.373-.447.3-.224.298-.075.374-.074 1.42-.448.299-.373-.075-.075-.224v-1.72l.373-.747.523-.448 1.193-.598 2.015-.822h.15l-.075-.224-.373-.374-.672-.747-.448-.822-.074-.374v-.598l.074-.672-.522-.748-.15-.373v-.673l.075-.673-.074-.224v-.598l.373-.448.746-.449 1.269-.373 1.12-.15Z"/><path fill="url(#h)" d="M2.195.741h.746l.597.224.224.15h.672l.746.298.672.597.298.672.448.223.224.224.224.075.074-.522.373-.598.523-.447.895-.448.373-.299.448-.149h.746l.597.224.373.298.299.598.075.223v.523l-.224.597-.15.373v.597l-.447.747-.672.522-.224.448-.448.373-.746.224h-.447V6.19l.82-.523.448-.746.672-.523.224-.522-.075-.672.373-.597-.075-.523-.298-.373-.15-.074h-.522l-.447.298-.373.224-.672.224-.373.448-.373.97-.299.597-.224.523-.298-.15-.299-.746-.373-.448-.597-.298-.447-.747-.597-.448-.224-.074h-.97L2.94 1.71l-.522-.074-.448.298-.149.299v.522l.522.747.224.671.299.448.746.373.522.224.448.523.597.298.373.15v.298l-.746.224-.522.373h-.672l-.672.224-.373.299-.298.597-.373.373-.075.15v.522l.299.448.224.074h.522l.298-.224.373.075.224.075h.672l.448-.299.149-.224 1.12-.224.596-.373.15-.15h.223v.449l-.671.746-.523.224-.522.15-.522.447-.299.075-1.268.074-.448.15h-.672l-.597-.224-.522-.597-.224-.523v-.746l.299-.597.522-.598.448-.597.671-.373 1.12-.224-.224-.298-.97-.374-.672-.522-.373-.672-.15-.597-.522-.597-.149-.373V2.01l.299-.597.597-.523.447-.149Z"/><path fill="url(#i)" d="m28.793 17.617.373.15.374.223-.598 1.195-.523.821-.672.822-1.195 1.194-1.046.747-1.27.672-1.12.298-.597.075-4.93.075-1.194.224-.897.224-1.12.074-.971-.149-1.195-.597-.448-.299-.822.597-1.045.822-.747.597-1.046.672-.747.299-.373.074H5.938v-.522l.224-.224 1.046-.15.747-.298.373-.299.224-.448.075-.373-.075-.97-.299-.524-.672-.373-.672-.299.373-.373.374-.15 1.045.523.449.523.224.597v.971l1.344-.97.971-.747 1.046-.747.299.15.149.223-.075.3-.448.372.15.3.746.372.523.15h1.046l1.867-.448.747-.075 4.855-.075 1.195-.298 1.195-.598.821-.597.747-.672.747-.747.747-1.045.523-.821.224-.448Z"/><path fill="url(#j)" d="M25.652 30.324h1.198l.374.298.075 2.389.075.075 1.422.074.15.224v.896l-.225.298-1.422.075v3.358l.224.523.45.299.748.149.225.373v.672l-.225.373-.15.075H27.45l-.824-.15-.674-.448-.449-.671-.224-.672-.075-3.881-.524-.075-.225-.224-.075-.522.075-.523.15-.149.599-.15.075-2.313.374-.373Z"/><path fill="url(#k)" d="M29.838 30.324h1.117l.372.224.074.075.075 2.09v7.164l-.15.374-.371.224h-1.043l-.297-.15-.224-.373v-9.03l.224-.449.223-.149Z"/><path fill="url(#l)" d="m26.387 16.277.522.3v.298l-.895.598-.97.898-.745.971-.448.748h.671l.746-.299.97-.673h.15l.074.15v.448l-.448.524-1.193.598-.523.15h-1.193l-1.268.523-1.343.373-1.268.225-2.238.15h-.746l-.075-.375.224-.373 2.313-.15.82-.075-.373-.747-.298-.374-.373-.224h-.522l-.97.299-1.343.598-.97.448-.373-.075-.223-.298.074-.225 1.716-.897 1.417-.598.597-.15h.895l.448.225.522.448.522.823.15.299v.224l1.342-.449.82-.448.523-.598.597-.898.97-1.12.97-.823.745-.449Z"/><path fill="url(#m)" d="M1.45 30.25h1.419l.672.224.448.597 1.046 1.866.97 1.716.748 1.344.448.82.15.075-.075-.746v-5.3l.224-.372.224-.15h16.134l.224.374v.82l-.224.374H9.442v7.986l-.224.447-.224.15H7.276l-.449-.224-.373-.448-1.195-2.09-1.046-1.866-.97-1.716-.225-.299-.075 6.195-.298.373-.15.075h-1.12l-.224-.15 1.494-.074.074-6.493.224-.224.374.298.822 1.418.97 1.717.598 1.045.747 1.343.448.672.224.15h1.942l.075-2.688V32.19l.15-.448.223-.074h14.416v-.821l-.15-.373H12.132l-4.333.074-.149.075-.075 6.12-.074.448-.374-.075-.299-.373-.597-1.12-.971-1.716-.896-1.567-.747-1.344-.3-.373-.447-.15H1.524l-.448.15-.075 9.628-.149-.075v-9.478l.299-.374.299-.074Z"/><path fill="url(#n)" d="M13.997 3.272h.672l.746.225.746.299 1.418.075-.373.673-.224.375.075.224.746.524v.15l-1.418.673-.746.673-.15.15h-.223v-.449l.522-.748.448-.374.224-.225-.448-.3.373-.673h-.672l-.671-.299-.821-.075-.597.225-.448.524-.299.748-.298 1.122-.523.973-.97 1.197-.746.898-.597.973-.896 1.721-.224.45-.373.074L7.653 13l.597-1.496.597-1.123.597-.898.821-.973.672-.823.448-.673.373-.898.522-1.572.299-.449.597-.523.82-.3Z"/><path fill="url(#o)" d="M6.374 11.19h.97l-.074.373-.224.299-1.418.224-.97.299-.523.299-.074.374.373.373 1.045.523.746.225.597-.075.671-.299.299-.075h.746l1.194.3 1.418.597.671.374-.223.373-.15.15-.522-.075-.895-.373-1.418-.374H7.94l-1.12.373h-.97l-.895-.298-1.044-.524.074.598.448.598.82.673 1.419.747.074.075v.523l-.224.075-1.343-.449-.82-.373.149.598.522.747.671.747.374.3.746-.076.373-.074h.522l.97.299 1.194.672.97.822.299.3-.15.298-.298.224-.298-.074-1.12-.897-1.119-.598-.522-.15h-.597l-1.12.374-2.462 1.047-.299.074.075-.224 3.134-1.345.597-.15h.896l.97.374.671.448.672.524.298.224.299-.075-.373-.374-.597-.523-1.045-.672-.746-.225h-1.12l-.82.075-.597-.374-.896-1.046-.298-.523-.075-.224v-.523l.075-.15.298-.075 1.269.598.746.15v-.224l-.672-.225-1.194-.672-.597-.598-.149-.374h-.15l-.148-.299v-.672l.298-.15 1.567.673.224.075h1.045l1.045-.3h.97l1.194.3.82.373.523.15v-.225l-1.418-.672-.895-.3H7.643l-.97.3h-.747l-.97-.3-.671-.373-.448-.448v-.673l.373-.299.746-.299 1.791-.373.224-.15h-.746l-1.12.224-1.193.374-.672.448-.075.598.075 1.794.298.598.15.15.074.747v.672l.15.673.447.673.97.971-.074.374-.597.373-1.791.748-1.045.523-.298.224H1.3v.224h-.15l-.074.598v1.57h.373l.15-1.794.223-.374.821-.523h.224v.15l-.672.373-.298.374-.075.374-.074 1.42-.448.299-.373-.075-.075-.224v-1.72l.373-.747.523-.448 1.193-.598 2.015-.822h.15l-.075-.224-.373-.374-.672-.747-.448-.822-.074-.374v-.598l.074-.672-.522-.748-.15-.373v-.673l.075-.673-.074-.224v-.598l.373-.448.746-.449 1.269-.373 1.12-.15Z"/><path fill="url(#p)" d="M2.045.965h.97l.821.298.821.075.373.15.374.372.298.374.448.671.448.3.298.223.299-.15.373-.895.373-.448 1.194-.672.522-.298h.821l.523.149.597.821v.821l-.299.597-.15.896-.223.448-.522.448h-.15v.15h-.149l-.15.372-.372.374-.373.149.149-.299.448-.671.223-.299h.15v-.15h.224v-.149h.149l.15-.373.074-.15.15-1.044.148-.299V2.16l-.298-.448-.523-.224-.597.075-1.194.597-.522.448-.299.522-.298.822-.299.373h-.149l-.224-.448-.671-.597-.523-.448-.298-.448-.15-.299-.447-.149-.523-.15-.895-.149-.224-.074h-.672l-.448.298-.223.448.074.672.373.448.299.821.522.672.373.224.672.224.597.597.597.299-.075.224-.746.373-1.269.224-.597.373-.522.747-.298.522V9.4l.223.373.448.224h.672l.224-.075h.597l.448.075.671-.298.672-.374.597-.149.448-.15-.224.374-.97.373-.672.448-1.717.224h-.97l-.671-.448-.299-.448v-.896l.373-.597h.15v-.224h.149l.149-.373.299-.373.746-.373.895-.15.299-.074-.075-.374-.448-.373-1.194-.597-.447-.597-.373-.896-.075-.224h-.15l-.298-.597L1 2.01l.224-.448.597-.523.224-.074Z"/><path fill="url(#q)" d="m15.558 7.54.97.075.374.075h.672l.672-.15h.449l-.448 1.047v.15l1.045.522-1.046 1.046-.522.822-.374.972-.15.897-.074.971h-.299l-.149-.598v-1.718l.373-1.047.523-.747.299-.299.075-.224-.448-.15-.075-.298.15-.374h-2.017l-.523.224-.448.598-.15.523-.15 1.345-.746 1.345-.822 1.121-.522.747-.747-.373.074-.3.673-.97.896-1.27.299-.823.149-1.27.299-.747.448-.523.747-.449.523-.15Z"/><path fill="url(#r)" d="m28.793 17.617.373.15.374.223-.598 1.195-.523.821-.672.822-1.195 1.194-1.046.747-1.27.672-1.12.298-.597.075-4.93.075-1.194.224-.897.224-1.12.074-.971-.149-1.195-.597-.448-.299-.822.597-1.045.822-.747.597-1.046.672-.747.299-.373.074H5.938v-.522l.224-.224 1.046-.15.747-.298.373-.299.224-.448.075-.373-.075-.97-.299-.524-.672-.373-.672-.299.373-.373.374-.15 1.045.523.449.523.224.597v.971l1.344-.97.971-.747 1.046-.747.299.15.149.223-.075.3-.448.372.15.3.746.372.523.15h1.046l1.867-.448.747-.075 4.855-.075 1.195-.298 1.195-.598.821-.597.747-.672.747-.747.747-1.045.523-.821.224-.448Zm.075.299-.747 1.269-.523.672-.822.896v.15h-.15v.149l-.298.149-1.12.896-.747.448-.896.373-.374.075-4.63.074-1.644.15-1.792.448H13.93l-.672-.224-.598-.374-.224-.298.075-.299.373-.373v-.224l-.373.074-.822.672-.896.672-1.27.896-.224-.074-.224-1.27-.523-.746-.448-.299-.224-.074h-.598l.224.223.747.448.3.374.223.597v1.12l-.224.523-.448.373-.598.299-.597.149-.672.075-.075.298 1.344-.074 1.046-.523.971-.821 1.046-.747.896-.747.373-.149.449.299.597.373.971.299h1.344l2.092-.374 2.24-.074h2.166l1.195-.075.822-.224 1.12-.448.897-.523.821-.671.747-.672.672-.747.747-1.12.374-.672.149-.448-.299-.15h-.074Z"/><path fill="url(#s)" d="M21.987.741h.449l-.224.075v.15l-.748.149-.896.448-.524.523-.597 1.27-.598 1.195-.224.3.074.074.748.075.074.298-.224.673.3-.075h2.017l.448.299.3.672.149.673.298 2.167.3 1.195.747 1.42.822 1.046.598.597-.075-.224-.598-.896-.747-1.27-.374-.822-.374-1.57-.299-2.316-.299-.747-.373-.373-.448-.15-1.645-.074-.149-.075L19.97 5v-.3l-.449-.149.075-.373.598-1.42.523-.672.374-.299.523-.224.373-.075h1.121l.748.299.672.448.972 1.046.747.971.598.598.971.747.748.598 1.868 1.868.971 1.27 1.046 1.494.748 1.12.971 1.645.673 1.12.597.972.897 1.718.598 1.12.971 2.093.449 1.12.075.449h-.15l-.897-2.167-.597-1.27-.748-1.42-.822-1.569-.971-1.643-1.196-1.943-1.57-2.316-.746-.971-.822-.972-.897-.97-.747-.673-1.196-.972-.598-.523-.523-.523-.672-.821-.673-.748-.673-.597-.896-.374h-1.196l-.897.449-.373.448-.598 1.345-.3.523h.748l.075.149-.448.747 1.12-.15.897.15.448.299.374.598.224.896.449 2.84.373 1.12.748 1.42.747.97.672.748.524.598v.299l-.374-.075-1.046-.897-.748-.747-.822-1.046-.747-1.42-.299-1.045-.523-3.138-.299-.523-.299-.15h-1.569l-.747.15h-.3l.15-.449.224-.373.075-.299h-1.12l.298-.598.598-1.046.673-1.42.672-.746.598-.374.448-.15.523-.074Z"/><path fill="url(#t)" d="m34.543 1.485.224.15-.597 1.496-.224 1.047.074.599.15.15.523.074 1.195-.3 2.614-.897.224.075-.075.748-.896.374-2.092.673-1.045.225-.747-.075-.598-.524-.224-.748-.298.3-.747 1.196-.523.674-.299-.15-.299-.3.075-.298.971-1.347 1.27-1.945.672-1.122.672-.075Z"/><path fill="url(#u)" d="M8.028 15.458h.821l.597.372.299.372.97 1.787.672.67.747.373.299.074h1.12l1.045-.298.896-.447.224.075.074.596-1.045.52-1.12.299H12.21l-.822-.298-.746-.447-.597-.596-.15-.223-1.343.075h-.822l-.224-.075-.224-.447v-.149l1.643-.148.448-.075-.448-.819-.299-.298-.15-.074H7.88l-.896.223-.224-.223-.075-.298.523-.298.82-.223Z"/><path fill="url(#v)" d="M38.124 30.175h.897l.224.148.075.447v.67l-.15.372-.149.075h-6.352l-.075-.149v-.819l.15-.149 1.12-.149 4.26-.446Z"/><path fill="url(#w)" d="m24.6 15.16.3.149.298.223-.15.298-.746.968-.822.968-.522.595-.747.596-.597.223-.523-.074-.448-.372-.298-.67-.075-.67-1.568.372-1.418.595-.598.298h-.224l-.149-.595.747-.447 1.194-.521 1.195-.373 1.12-.223h.522l.15 1.266.149.447.523-.075.746-.67.523-.521.821-1.043.598-.744Z"/><path fill="url(#x)" d="M39.318 5.456h.224V6.2l-.448.298-2.466.968-.299.149-.075.149.972-.075 1.42-.223.075.075v.446l-.15.224-1.12.223-2.542.149-1.12.298-.374.149h-.3l-.298-.447.075-.298 2.092-1.042 1.868-.82 2.466-.967Z"/><path fill="url(#y)" d="M26.39 16.575h.15l-.075.374-.745.523-.97.973-.747.972-.298.598.075.374h.746l.895-.373.746-.524h.15l-.075.3h-.15l-.074.223-.82.524-.821.224-1.418.075-1.865.748-1.045.225-1.268.15-2.163.074-.15-.3 2.835-.224.299-.15v-.448l-.522-.823-.448-.299h-.672l-.895.224-1.268.524-.746.374-.597.075-.075-.15.597-.374 1.492-.673 1.045-.449.298-.075h.895l.448.225.522.523.448.674.224.448h.746l1.194-.523.596-.449.97-1.346.523-.599.447-.523.82-.673.523-.374.224-.075Z"/><path fill="url(#z)" d="M20.417 32.855h1.121l.822.15.748.298.822.747.224.449v.597l-.224.15h-1.345l-.374-.374-.523-.373-.972-.075-.523.224-.15.15v.447l.599.3 2.391.672.598.373.523.597.224.673v.821l-.373.747-.673.673-.673.298-.672.15h-1.868l-.972-.299-.822-.523-.448-.597-.15-.449.075-.523.224-.224h1.046l.449.15.448.523.598.299h1.046l.374-.225h.15l.074-.597-.224-.224-2.69-.747-.748-.448-.523-.673-.15-.448v-.597l.225-.747.448-.598.673-.448.672-.224.523-.075Zm-.074.224-.897.224-.673.374-.448.523-.224.597v.822l.299.598.598.522.822.3 1.868.522.598.299.15.373-.076.374-.523.448-.224.075h-.897l-.672-.224-.449-.374-.299-.373-.149-.075-1.196.074-.075.3.225.672.523.597 1.046.523.747.15h.897l1.121-.15.748-.299.149-.075v-.149l.299-.15.448-.597.15-.896-.15-.598-.448-.672-.448-.299-.897-.298-1.57-.374-.672-.299-.224-.299v-.448l.373-.298.374-.15h.971l.598.224.598.523h1.121l.15-.15V34.5l-.449-.598-.598-.448-.822-.299-.373-.075h-1.42Z"/><path fill="url(#A)" d="m1.749 2.007.075.224v.522l.523.747.224.672.3.448.747.373.523.224.449.523.597.299.374.149v.299l-.747.224-.524.373h-.672l-.673.224-.374.299-.299.597-.373.373-.075.15v.522l.299.448.224.075h.523l.3-.224.373.074.224.075h.673l.448-.299.15-.223 1.121-.225.598-.373.15-.15h.224v.449l-.673.746-.523.224-.523.15-.524.448-.298.074-1.271.075-.449.15h-.672l-.598-.225-.524-.597-.224-.523v-.746l.299-.597.523-.598.449-.597.673-.373 1.12-.224-.223-.3-.972-.372-.673-.523-.374-.672v-.448h.15l.299.747.299.373 1.196.597.523.448.075.224-.224.224-.15.075-.897.15-.747.373-.449.672h-.15v.224l-.298.298-.15.299v.896l.299.448.598.373h.972l1.719-.224.673-.448.822-.299h.15l.074-.298-.448.224-.598.15-.748.447-.523.15-.374-.075H3.17l-.224.074h-.673l-.523-.298-.224-.374v-.671l.299-.523.598-.821.598-.374 1.27-.224.748-.373.075-.15-.374-.074-.747-.672-.449-.224-.523-.224-.374-.299-.448-.672-.225-.821L1.75 3.2l-.224-.448v-.448l.224-.298Z"/><path fill="url(#B)" d="M13.697 3.57h1.344l.896.374.15.075 1.044.075-.074.3-.299.523v.375l.373.15.299.224v.15l-1.12.449-.224-.075.299-.3h.15l.148-.598h-.149l-.15-.375.075-.374-1.194-.374-.672-.15-.672.075-.597.374-.448.6-.522 1.72-.597 1.049-.822.973-.746.973-.896 1.422-.672 1.422-.224.3h-.373l.075-.525.82-1.721.897-1.347h.149l.15-.3.522-.673h.149l.15-.375.597-.673.447-1.198.523-1.572.597-.674.597-.299Z"/><path fill="url(#C)" d="M13.098 32.855h1.27l.897.224.672.374.673.597.448.747.299.971.074 1.046-.149.373-.224.15h-5.005l.298.747.374.448.598.299h.896l.448-.224.673-.598.224-.075h1.195l.373.15v.597l-.373.673-.598.597-.896.448-.672.15h-1.719l-.747-.224-.747-.449-.672-.746-.523-1.046-.15-.598v-1.643l.3-.896.448-.747.672-.672.598-.374.597-.224.448-.075Zm.3.224-.897.15-.897.448-.747.747-.448.896-.224.971v.897l.224.896.448.896.673.747.597.374.747.224h1.719l.672-.15.747-.373.672-.598.3-.523v-.448l-.076-.075H15.49l-.598.523-.597.374h-1.046l-.672-.374h-.15l-.448-.896v-.523l4.706-.075.523-.149.075-.672-.224-1.12-.374-.673-.523-.672-.523-.448-.597-.224-.523-.15h-1.12Z"/><path fill="url(#D)" d="m14.814 14.638.3.15.223.223-.074.223-1.72.819-.749.521-.224.372.075.298.449.15.897-.075 1.122-.372 1.047-.447.225-.15.374.075.299.298v.149l-1.72.819-1.197.372-.374.075h-1.272l-.449-.224-.299-.372-.075-.149.075-.67.449-.595.673-.522 1.047-.595.898-.373Z"/><path fill="url(#E)" d="M15.258 7.839h1.345l.747.074.373-.074h.598l-.075.373-.15.374v.374l.673.224.15.075-.15.299-.523.523-.523.673-.373.747-.3.823-.149.074V11.8l.3-1.046.522-.822.374-.449V9.11l-.299-.074-.075-.3.075-.373-1.793-.075-.747.15-.449.299-.373.448-.224.673-.15 1.196-.299.747-.672 1.047-.822 1.121-.299.15-.15-.075.075-.523.748-.972.672-.972.299-.673.224-1.57.224-.597.374-.449.598-.374.224-.074Z"/><path fill="url(#F)" d="m23.558 14.192.374.223.224.298-.448.298-1.345.447-.448.074h-1.27l-1.194-.149h-1.569l-1.12.298-.224.075-.373-.447.149-.298.896-.372.896-.149h.971l1.42.149h1.642l1.12-.298.3-.149Z"/><path fill="url(#G)" d="M35.212 32.855h1.046l.896.15.897.448.597.523.523.821.3.822.074.373v.897l-.224.373-.15.075-5.005.075.3.746.373.374.523.299.523.075.597-.15.672-.448.374-.373h.896l.747.074.075.075v.523l-.299.597-.523.598-.672.448-.672.224-.374.075h-1.793l-.821-.299-.673-.448-.523-.523-.448-.747-.299-.822-.074-.672v-.821l.224-1.046.448-.822.523-.597.597-.449.598-.298.747-.15Zm.075.224-.672.15-1.046.523-.598.522-.373.598-.3.971-.074.448v.822l.299 1.27.299.523.672.746.373.3.897.373.523.074h.822l1.045-.149.747-.299.598-.448.448-.523.15-.299v-.448l-.075-.075h-1.494l-.747.673-.523.224-1.046-.075-.896-.448-.15-.448-.149-.299.075-.523 5.08-.075.224-.298v-.672l-.15-.748-.299-.672-.523-.747-.597-.522-.673-.3-.523-.149h-1.344Z"/><path fill="url(#H)" d="M7.132 21.663h.15l.223.223.747.447.373.447.224.595v1.117l-.224.521-.522.447-.598.298-.597.149-.671.074-.075.223 1.343-.148 1.045-.522.97-.819 1.046-.744.895-.745.374-.148.447.297.598.372.97.298h1.344l2.09-.372 2.239-.074h2.164l1.195-.075.82-.223 1.12-.447.672-.372h.15l-.15.298-1.269.67-1.12.297-.597.075-4.926.074-1.194.224-.896.223-1.12.075-.97-.15-1.194-.595-.448-.298-.821.596-1.045.819-.746.596-1.045.67-.747.297-.373.075H5.938v-.521l.224-.224 1.045-.149.746-.297.374-.298.223-.447.075-.372-.075-.968-.298-.521-.672-.372-.672-.298.224-.298Z"/><path fill="url(#I)" d="M1.45 30.25h1.42l.672.224.448.597 1.046 1.866.972 1.716.747 1.344.448.821.15.075-.075-.747v-5.3l.224-.372.373-.15-.074.224-.15.075-.074 6.12-.075.448-.374-.075-.299-.373-.597-1.12-.972-1.716-.896-1.567-.747-1.344-.3-.373-.448-.15H1.525l-.449.15-.075 9.628-.149-.074v-9.48l.299-.373.299-.074Z"/><path fill="url(#J)" d="m24.677 7.69.299.074 1.046 2.24 1.046 1.794.896 1.344.673.897.672.822.673.746.523.598 1.345 1.345.822.672.747.672.971.747 1.495 1.12 1.494 1.047.971.672.075-.299.15.448-.3.075-1.045-.672-1.345-.897-.972-.747-.896-.672-1.196-.971-.822-.672-.971-.897-.523-.523-.374-.448-.373-.373-.972-1.12v-.15h-.15l-.522-.747-.972-1.42-.97-1.568-.599-1.196-.224-.672-.224.224.15.374-.075.224-.3-.672-.298-1.345.075-.075Z"/><path fill="url(#K)" d="M24.673 18.585v.225l-.747 1.124-.074.15h.671l.747-.3.97-.675h.15l.074.15v.45l-.448.525-1.194.6-.522.15h-1.195l-1.268.524-1.344.375-1.268.225-2.24.15h-.746l-.074-.375.224-.375 2.313-.15.821-.075-.373-.75-.299-.374-.373-.225h-.522l-1.045.3.15-.3.895-.225h.672l.596.45.448.75v.45l-.373.224-1.866.15h-.97l.224.225 2.09-.075 1.642-.225.895-.225.97-.375.672-.3 1.418-.074.821-.225.821-.525.075-.15h.15l.074-.3-1.194.75-.598.225h-.746l-.15-.15.076-.525.597-.825.373-.374Z"/><path fill="url(#L)" d="m29.989 12.306.298.075.52.524.67.822 1.118 1.196.67.748 2.01 2.018.372.3.15.298-.373.075-1.191-.897-.82-.673-1.19-1.121-.67-.748-.894-1.196-.596-.972-.074-.449Z"/><path fill="url(#M)" d="M8.027 15.607h.672l.448.224.597.819.672 1.265.523.67.672.521 1.12.298.896-.074 1.194-.372.672-.224.075.224-.522.297-.747.298-.299.075h-1.867l-.82-.298-.748-.521-.522-.596-.15-.074-2.165-.075v-.149l.523-.074.074-.075.971-.149.299-.074-.299-.67-.373-.521-.448-.224h-.598l-.597.15-.373-.075v-.15l.597-.297.523-.149Z"/><path fill="url(#N)" d="M25.652 30.324h1.198l.374.298.075 2.389.075.075 1.422.074.15.224v.896l-.225.298-1.422.075v3.358l.224.523.45.299.748.149.225.373v.672l-.225.373-.15.075H27.45l-.824-.15-.674-.448-.449-.671-.224-.672-.075-3.881-.524-.075-.225-.224-.075-.522.075-.523.15-.149.599-.15.075-2.313.374-.373Zm-.075.15-.15.223-.074 2.314-.075.224-.674.224v.895l.225.15.449.074.075.15.074 3.955.375.747.524.522.823.299h1.497l.075-.075v-.97l-.15-.15-.898-.149-.374-.373-.075-.224v-3.732l.15-.074 1.347-.075.15-.299-.075-.671-.075-.075-1.572-.075v-2.537l-.075-.224-.15-.075h-1.347Z"/><path fill="url(#O)" d="m24.75 15.458.15.074-.15.373-.821 1.116-.747.82-.373.371-.598.522-.448.149-.672-.075-.373-.447-.15-.223-.149-.67-.075-.149h-.597l-1.27.372-1.567.67-.374.075-.075-.224 1.195-.595 1.12-.447 1.718-.447h.373l.075.075.15 1.191.223.372.523.075.747-.521.448-.521.298-.298.672-.82.224-.371.523-.447Z"/><path fill="url(#P)" d="m34.543 1.485.224.15-.597 1.496-.224 1.047.074.599.15.15.523.074 1.195-.3 2.166-.747.15.075-.076.15-2.016.747-.672.225-.374.075h-.747l-.373-.15-.15-.374v-.599l.224-1.197.448-1.271-.522.075-.15.074.075-.224.672-.075Zm-.821.3.074.224-.448.897-.373.599h-.15l-.15.374L31.78 5.3l-.598.823.075.225.298-.075 1.046-1.496.374-.45.298.076.15.673.373.449.15.075h1.195L37.157 5l1.345-.449.15-.075-.075.225-2.615.898-1.344.299-.747-.075-.598-.524-.224-.748-.298.3-.747 1.196-.523.674-.299-.15-.299-.3.075-.298.971-1.347 1.27-1.945.523-.898Z"/><path fill="url(#Q)" d="M39.318 5.456h.224V6.2l-.448.298-2.466.968-.299.149-.075.149.972-.075 1.42-.223.075.075v.446l-.15.224-1.12.223-2.542.149-1.12.298-.374.149h-.3l-.298-.447.075-.298 2.092-1.042 1.868-.82 2.466-.967Zm-.15.149-1.045.52-2.093.894-.747.373-1.495.67-.672.372v.298l.075.074.597-.074.897-.298.374-.074 1.943-.075 1.195-.149.374-.223-.075-.15-1.27.075-1.046.075V7.54l.747-.373 2.167-.819.3-.223v-.521h-.225Z"/><path fill="url(#R)" d="M20.567 34.27h.971l.598.224.598.524h1.121l.15-.449h.149v.523l-.224.15h-1.345l-.374-.374-.523-.373-.972-.075-.523.224-.15.15v.448l.599.299 2.391.673.598.373.523.598.224.673v.823l-.373.747-.673.673-.673.299-.672.15h-1.868l-.972-.3-.822-.523-.448-.598-.15-.448v-.374l.224-.15.075.673.448.673.673.448.747.3.523.074h.897l1.121-.15.748-.299h.149v-.15l.448-.373.225-.373.149-.897-.15-.599-.448-.672-.747-.374-2.093-.523-.672-.3-.3-.373v-.448l.45-.374.373-.15Z"/><path fill="url(#S)" d="m14.146 3.942.896.075.896.3.522.15.075.299-.075.299.075.225h.15v.374l-.523.524.746-.15.075.15-.821.45-.672.673h-.224v-.45l.522-.748.448-.374.224-.225-.448-.3.374-.673h-.672l-.672-.3-.822-.074-.597.224-.448.524-.299.749-.298 1.123-.523.973-.97 1.198-.747.898-.597.973-.896 1.722-.224.45-.374.074-.149-.15h.299l.15-.3.746-1.571.672-1.048.896-1.198.522-.599.448-.599.523-1.048.448-1.497.448-.599.373-.3.523-.224Z"/><path fill="url(#T)" d="M4.28 16.723h.076l.149.6.523.747.672.749.373.3.747-.076.374-.075h.522l.971.3 1.195.673.971.824.299.299-.15.3-.298.224-.299-.075-1.12-.898-1.12-.599-.523-.15h-.598l-1.12.375-2.465 1.047-.298.075.074-.224 3.137-1.347.598-.15h.896l.97.374.673.45.672.523.299.224.299-.074-.374-.374-.597-.524-1.046-.674-.747-.224h-1.12l-.822.075-.597-.375-.896-1.047-.3-.524-.074-.674.075-.075Z"/><path fill="url(#U)" d="M25.2 9.774h.15l1.046 2.166.822 1.27.598.82.748.972.523.522.524.598 1.121 1.195.748.747.598.522 1.121.971.673.598 1.794 1.344.3.672.523 1.494.747 2.165-.074.3-.374-.897-1.122-3.286-.224-.373-1.42-1.046-.972-.821-.823-.672-1.27-1.195-1.72-1.718-.523-.598-.823-.97-.972-1.345-1.121-1.867-.598-1.418v-.15Z"/><path fill="url(#V)" d="M3.622 15.98h.15v1.12l.15.671.449.672.973.971-.075.374-.599.373-1.797.747-1.048.522-.3.225h-.224v.224h-.15l-.074.597v1.568h.374l.15-1.792.224-.373.824-.523h.224v.15l-.673.373-.3.373-.075.373-.075 1.42-.449.298-.374-.075-.075-.224v-1.717l.374-.747.524-.448 1.198-.598 2.022-.821h.15l-.075-.224-.375-.373-.674-.747-.449-.822-.075-.373v-.597l.15-.598Z"/><path fill="url(#W)" d="M23.334 14.564h.374l-.15.298-.896.372-.598.15H20.57l-1.345-.15h-1.12l-1.196.224-.373-.075v-.223l.747-.298 1.42-.149 1.718.149h1.867l1.046-.298Z"/><path fill="url(#X)" d="M38.124 30.175h.897l.224.148.075.447v.67l-.15.372-.149.075h-6.352l-.075-.149v-.819l.15-.149 1.12-.149 4.26-.446Zm.15.148-2.317.224-.971.149-1.72.149-.448.149-.149.148v.373l.15.149h6.202l.15-.224v-1.042l-.075-.075h-.822Z"/><path fill="url(#Y)" d="m16.015 8.21 1.637.075.15.075v.598l.297.15.075.374-.67.897-.224.374-.297 1.047v.523l.52-1.346.447-.598.373-.299-.15.374-.446.673-.372.972-.15.897-.074.972h-.297l-.15-.598v-1.72l.373-1.046.521-.748.298-.3.074-.224-.446-.15-.075-.298.15-.374H15.27l.223-.225.522-.074Z"/><path fill="url(#Z)" d="M14.589 15.011h.374l-.075.224-.3.298-.448.074-.899.447-.598.447-.225.372v.447l.3.223.299.074h.748l1.198-.372 1.422-.596.374-.074v.223l-1.048.596-1.272.372-.599.15h-1.272l-.524-.299-.075-.074v-.67l.225-.447h.15v-.149l.972-.67 1.048-.521.225-.075Z"/><path fill="url(#aa)" d="M2.196.741h.747l.598.223.224.15h.672l.747.297.672.596.299.67.448.223.224.223.224.075.075-.521.373-.596.523-.447.672-.223-.074.223-.747.447-.374.596-.298.67-.3.149-.597-.447-.373-.298-.448-.744-.448-.373v-.148l-1.195-.15-.822-.297h-.97l-.449.223-.448.521-.075.373.075.67.224.446v.15h.15l.223.372v.148H1.6l-.598-.744-.149-.372v-.82l.299-.595.597-.521.448-.149Z"/><path fill="url(#ab)" d="m17.28 36.428.15.15-.075.527-.3.225h-5.01l.299.752.374.45.598.301h.897l.45-.225.672-.601.225-.076h1.196l.374.15v.602l-.15.3h-.149l.075-.751h-1.421l-.598.526-.599.376h-1.047l-.822-.451-.45-.676-.074-.226v-.526l.075-.075 4.711-.075.524-.075.075-.602Z"/><path fill="url(#ac)" d="m7.056 6.2.298.075.744.894.82 1.34-.075.298-.373.521-.223-.074-.744-1.564-.67-1.117.148-.298.075-.074Z"/><path fill="url(#ad)" d="M19.672 11.263h.9l1.275.075.224.372v.298h-3.449l-.075-.149.3-.521.825-.075Z"/><path fill="url(#ae)" d="M29.838 30.324h1.117l.372.224.074.075.075 2.09v7.164l-.15.374-.371.224h-1.043l-.297-.15.074-.15h1.489l.075-.223v-8.956l-.15-.448h-1.34l-.149.224-.074 4.478-.149.075V30.92l.224-.448.223-.149Z"/><path fill="url(#af)" d="M2.269 1.485h.672l.523.15.97.15.598.3.448.6.374.45.597.45.448.525v.225l.374-.375.448-1.125.597-.675 1.195-.6.374-.075v.15l-.449.3-.373.225-.672.225-.373.45-.374.975-.299.6-.224.525-.298-.15-.3-.75-.373-.45-.597-.3-.448-.75-.598-.45-.224-.075h-.97l-.374-.3-.523-.075-.448.3-.15.15v-.3l.449-.3Z"/><path fill="url(#ag)" d="M35.208 32.855h1.046l.897.15.897.45.597.524.524.824.299.824.074.375v.898l-.15-.074-.149-1.124-.299-.75-.523-.823-.597-.525-.673-.3-.523-.15h-1.345l-.673.15-1.046.525-.523.45-.15-.075.374-.45.598-.45.598-.299.747-.15Z"/><path fill="url(#ah)" d="m1.745 2.007.075.224v.524l.524.748.225.673.3.449.749.374.524.224.45.524.599.3.374.149v.3l-.749.223-.524.375h-.674l-.675.15.15-.225 1.199-.225.749-.374.075-.15-.375-.074-.749-.673-.45-.225-.524-.224-.374-.3-.45-.673-.224-.823-.225-.074-.225-.45v-.448l.225-.3Z"/><path fill="url(#ai)" d="m14.29 15.458.225.074-.3.224-.898.446-.524.373-.224.372.075.298.449.149.898-.075 1.123-.372 1.047-.447.225-.149.374.075.3.298v.148l-1.048.522-.15-.075.748-.521h.15v-.223l-2.17.893-.824.223h-.748l-.524-.223-.15-.149v-.447l.45-.595 1.122-.67.374-.15Z"/><path fill="url(#aj)" d="m32.891 23.673.15.074.598 3.053.225 1.414h.598l.45-.297.598-.596.449-.224 1.421-.074.599-.223-.15.372-.075.074-1.72.075-.45.298-.673.67-.374.223h-.449l-.374-.298-.224-.67-.599-3.425v-.446Z"/><path fill="url(#ak)" d="m3.31 2.974.526.076.827.452.903.83.225.15-.075.377-.3.15-.828-.678-1.052-.904-.301-.302.075-.15Z"/><path fill="url(#al)" d="m27.06 30.547.148.074.074 2.39.075.075 1.415.074.148.224v.896l-.223.299-1.415.075v3.36l.224.522.447.3.52.074.075.15h-.67l-.447-.225-.297-.523V34.58l.223-.15 1.34-.074.075-.448-.075-.448-1.415-.075-.223-.224v-2.613Z"/><path fill="url(#am)" d="M36.554 7.243h.225v.149l-.45.223-.074.15.973-.075 1.422-.224.074.075v.446l-.15.224-1.122.223-2.544.15-.898.222-.224-.074.374-.223.898-.224 1.945-.074 1.198-.15.299-.222-1.272.074-.748.074-.3-.074-.075-.372.45-.298Z"/><path fill="url(#an)" d="m14.676 4.017.596.075.67.225.521.15.075.3-.075.3.075.226h.148v.375l-.52.525.744-.15.074.15-.819.45-.67.675h-.223v-.45l.521-.75.447-.375.223-.225-.447-.3.373-.676h-.67l-.67-.3-.373-.075v-.15Z"/><path fill="url(#ao)" d="M5.637 7.391h.376l.15.298-.225.224-2.328.819h-.3l.074-.298.601-.447.6-.298 1.052-.298Z"/><path fill="url(#ap)" d="M13.244 34.344h1.05l.749.373.525.819-.075.372-.3.149h-3.074l-.15-.075v-.595l.375-.596.45-.298.45-.149Zm.225.075-.675.223-.6.67-.15.447.075.075h3.224l-.075-.522-.525-.595-.75-.298h-.524Z"/><path fill="url(#aq)" d="M35.283 34.344h.974l.675.224.45.521.225.372v.447l-.3.149h-3.074l-.225-.149.075-.67.6-.67.6-.224Zm.225.075-.75.298-.45.52-.15.373v.224h3.299l-.075-.447-.3-.447-.525-.372-.525-.15h-.524Z"/><path fill="url(#ar)" d="m9.439 2.974.372.076-.372.676-1.042 1.579-.298.226-.224-.15.075-.452.447-.827.819-.902.223-.226Z"/><path fill="url(#as)" d="M3.755 14.117h.15v.521l.3.596.826.744 1.652.894.075.074v.521l-.226.075-1.35-.447-.601-.298-.3-.074v-.15l.3-.073 1.276.595.75.149v-.223l-.675-.224-1.201-.67-.6-.595-.15-.373h-.15l-.15-.298v-.67l.074-.074Z"/><path fill="url(#at)" d="M21.996.741h.449l-.225.075v.15l-.749.15-.898.449-.524.524-.6 1.273-.599 1.198-.224.3.449.149v.15h-.899l.3-.6.599-1.048.674-1.422.674-.749.599-.374.45-.15.524-.075Z"/><path fill="url(#au)" d="M24.676 18.585v.223l-.745 1.117-.074.149h.67l.744-.298.968-.67h.15l.073.149v.447l-.446.52-.67.373-.15-.075.67-.52.224-.224h.15l.074-.298-1.192.745-.595.223h-.745l-.149-.149.075-.521.595-.819.373-.372Z"/><path fill="url(#av)" d="m34.534 1.485.225.15-.599 1.499-.225 1.05.075.599.15.15.524.075 1.198-.3 2.172-.75.15.075-.076.15-2.021.75-.674.225-.374.075h-.75l-.374-.15-.15-.375v-.6l.225-1.199.45-1.274-.525.075-.15.075.076-.225.673-.075Z"/><path fill="url(#aw)" d="m39.394 36.826.075.223-.3.298-5.01.075.299.744.373.372.524.298.524.15v.074h-.673l-.599-.298-.374-.373-.299-.595.075-.521.075-.075 5.085-.074.225-.298Z"/><path fill="url(#ax)" d="m30.883 13.596.298.15v.148h.149l.521.596.745.744.52.596 1.192 1.266v.223l-.968-.744-1.117-1.117-.52-.596-.745-.968-.075-.298Z"/><path fill="url(#ay)" d="M21.4 2.677h.521l.373.223.074.298-.67.595-.447.075-.223-.298v-.447l.223-.372.15-.074Z"/><path fill="url(#az)" d="M18.025 37.943h1.048l.45.149.448.521.6.298h1.047l.374-.223h.15l.15-.373.224-.074-.074.372-.6.521-.224.075h-.898l-.674-.224-.524-.446-.374-.373h-1.273v-.148l.15-.075Z"/><path fill="url(#aA)" d="M2.192.741h.745l.595.223.298.298-.372-.074-.447-.15h-.968l-.446.224-.447.521-.075.373.075.67.223.446v.15h.15l.222.372v.148h-.148L1 3.198l-.149-.372v-.82l.298-.595.595-.521.447-.149Z"/><path fill="url(#aB)" d="M25.645 30.324h1.191l.224.223h-1.49l-.074.15-.074 2.307-.15.298-.595.149v1.117l-.223-.224-.075-.52.075-.522.149-.149.595-.149.075-2.308.372-.372Z"/><path fill="url(#aC)" d="m9.665 18.064.374.075.674.744.898.521.524.15h2.096v.148l-.599.15H12.21l-.824-.299-.748-.446-.6-.596-.373-.447Z"/><path fill="url(#aD)" d="m14.525 4.687.447.076.298.23-.075.38-.372.305-.447.076-.223-.228v-.458l.372-.38Z"/><path fill="url(#aE)" d="m16.091 8.956.522.074.223.224-.149.372-.372.298-.372.074-.224-.298.075-.52.297-.224Z"/><path fill="url(#aF)" d="m36.54 22.407.227.074h-.152l.757 1.862.681 2.084v.373h-.15l-.38-1.266-.68-1.861-.303-.82v-.446Z"/><path fill="url(#aG)" d="m8.25 17.617.149.074-.15.224h-.52v.149h1.935l.075.149-1.192.148h-.819l-.223-.074-.223-.447v-.149l.968-.074Z"/><path fill="url(#aH)" d="M24.973 20.52h.223v.153l-.893.305h-1.191l-1.266.533-.521.076.149-.228 1.489-.61 1.414-.076.596-.153Z"/><path fill="url(#aI)" d="M37.522 37.943h.9l.75.075.075.074v.521l-.15.373-.15-.15.075-.148v-.447h-1.5l-.75.67-.525.223h-.375v-.223l.6-.149.675-.447.375-.372Z"/><path fill="url(#aJ)" d="M27.357 34.419h1.265v.15l-1.34.074v3.369l.224.524.446.3.521.074.075.15h-.67l-.447-.225-.298-.524v-3.743l.224-.15Z"/><path fill="url(#aK)" d="M2.639 21.364h.223v.149l-.67.372-.298.372-.074.373-.075 1.414-.446.298-.373-.074v-.224h.521l.15-1.787.223-.372.819-.521Z"/><path fill="url(#aL)" d="M18.92 11.487h2.852l.075.298h-3.003l.075-.298Z"/><path fill="url(#aM)" d="M7.356 6.87h.149v.15h.149l.446.595.596.968-.074.298-.224.075-.744-1.415-.298-.447v-.223Z"/><path fill="url(#aN)" d="M38.12 30.175h.901l.225.148.075.447v.67h-.15l-.075-1.042h-.825l-1.275.149h-1.05v-.15l2.175-.222Z"/><path fill="url(#aO)" d="M19.07 5.01h.377l.075.297-.226.67.301-.074h1.356l.075.149-1.13.074-.753.15h-.3l.15-.447.226-.373.075-.298h-.226V5.01Z"/><path fill="url(#aP)" d="M6.385 19.776h.3v.151l-2.325.984-1.2.453.076-.226 1.574-.681 1.575-.68Z"/><path fill="url(#aQ)" d="M20.634 34.27h.9l.6.224.6.52h1.124l.15-.446h.15v.521l-.225.15h-1.35l-.375-.373-.524-.372-.975-.075-.15-.074.075-.075Z"/><path fill="url(#aR)" d="M7.876 16.053h.596l.521.298.521.745.075.447-.521.223h-.745l.075-.149.968-.149-.447-.819-.298-.298-.149-.074H7.58l.074-.15.223-.073Z"/><path fill="url(#aS)" d="M35.275 30.472h.67v.15l-.968.148-1.712.15-.67.222.074-.297.372-.15 2.234-.223Z"/><path fill="url(#aT)" d="M34.008 37.496h.15l.446.893.745.447.52.149v.074h-.67l-.595-.297-.372-.373-.298-.595.075-.298Z"/><path fill="url(#aU)" d="M21.4 2.677h.521l.373.223.074.298-.67.595-.447.075-.223-.298v-.447l.223-.372.15-.074Zm.075.148-.298.298v.521l.223.075.596-.298.149-.298-.224-.298h-.446Z"/><path fill="url(#aV)" d="m34.53 1.485.224.15-.596 1.5-.223 1.05v.6l-.15-.074v-.6l.224-1.2.447-1.276-.521.075-.15.075.075-.225.67-.075Z"/><path fill="url(#aW)" d="M32.894 34.27v.226l-.373.75-.223 1.053-.074.75h-.15v-.825l.224-1.052.372-.676.224-.226Z"/><path fill="url(#aX)" d="m18.098 8.583.596.372.596.298-.894.893-.149-.149.596-.595.074-.15-.67-.223-.223-.223.074-.223Z"/><path fill="url(#aY)" d="M36.243 23.449h.152l.84 2.382-.076.298-.382-.893-.534-1.564v-.223Z"/><path fill="url(#aZ)" d="m1.001 1.783.074.223.075.82.223.446v.149h.15l.222.372v.15h-.148L1 3.197l-.149-.373v-.819l.149-.223Z"/><path fill="url(#ba)" d="M19.516 15.234h.601l.45.075h1.729v.149l-.376.074h-1.277l-1.127-.149v-.149Z"/><path fill="url(#bb)" d="M25.198 33.004h.15l-.075.297-.596.15v1.116l-.223-.223-.075-.521.075-.522.149-.148.595-.15Z"/><path fill="url(#bc)" d="m31.326 39.879.075.297-.224.224-.223.074h-1.042l-.298-.149.074-.149h1.49l.148-.297Z"/><path fill="url(#bd)" d="M13.25 34.344h.754v.075l-.904.149-.452.298-.453.595-.075.224h-.15l.075-.447.301-.447.452-.298.453-.149Z"/><path fill="url(#be)" d="m20.484 2.453.074.149-.595 1.34-.298.372-.075-.149.596-1.414.298-.298Z"/><path fill="url(#bf)" d="m1.224 21.737.075.149h-.15l-.074.596-.074 1.563H.852v-1.712l.223-.521.15-.075Z"/><path fill="url(#bg)" d="m16.166 9.104.372.075v.372l-.298.223h-.298l-.074-.372.298-.298Z"/><path fill="url(#bh)" d="m14.528 4.935.373.075.149.074-.075.298-.223.149h-.372l-.075-.372.223-.224Z"/><path fill="url(#bi)" d="M16.684 20.074h.224v.153l-1.564.765v-.23l.447-.305.893-.383Z"/><path fill="url(#bj)" d="M7.205 15.681h.298v.15l-.447.223h-.149l.075.149h.596v.149l-.596.148-.223-.223-.075-.298.521-.298Z"/><path fill="url(#bk)" d="m33.71 1.857.075.15-.447.893-.372.595h-.223l.149-.372.595-.968.224-.298Z"/><path fill="url(#bl)" d="M38.501 6.499h.151v.149l-1.66.67-.226-.075.377-.223 1.358-.521Z"/><path fill="url(#bm)" d="M27.133 38.092h.15l.223.446.446.298.521.075.075.148h-.67l-.447-.223-.298-.521v-.223Z"/><path fill="url(#bn)" d="m19.29 17.394.298.075-.595.223-1.043.372-.223-.074.372-.223.82-.298.372-.075Z"/><path fill="url(#bo)" d="M36.55 7.243h.23v.149l-.457.223-.077.15h.99v.148l-.761.074-.305-.074-.076-.372.457-.298Z"/><path fill="url(#bp)" d="m14.676 4.017.596.075 1.117.372v.075h-.67l-.67-.298-.373-.075v-.149Z"/><path fill="url(#bq)" d="M17.578 17.989h.15v.149l-1.043.521h-.223l-.075-.447.15.075v.149l.52-.224.521-.223Z"/><path fill="url(#br)" d="M32.89 4.39v.226l-.819 1.287h-.149l.15-.378.52-.757.298-.379Z"/><path fill="url(#bs)" d="m33.86 30.622.149.074-.075.15-1.042.148-.298.149.075-.298.372-.149.819-.074Z"/><path fill="url(#bt)" d="M1.447 30.25H2.86v.149l-1.712.074v-.149l.298-.074Z"/><path fill="url(#bu)" d="M4.502 6.647h.148l-.148.298-.298.149h-.596l-.67.149.149-.224 1.191-.223.224-.149Z"/><path fill="url(#bv)" d="M39.319 5.456h.223V6.2l-.446.298-.447.15.074-.224.596-.298.075-.521-.298.074V5.53l.223-.074Z"/><path fill="url(#bw)" d="m32.149 37.05.149.074.298 1.266-.075.223-.298-.67-.074-.223v-.67Z"/><path fill="url(#bx)" d="M18.024 37.943h1.043l.074.149-.521.075h-.745v-.15l.15-.074Z"/><path fill="url(#by)" d="m38.95 38.91.074.15-.447.595-.596.447-.148-.074.893-.82.223-.297Z"/><path fill="url(#bz)" d="m14.305 15.458.223.074-.298.224-1.042.52.149-.297.819-.447.149-.074Z"/><path fill="url(#bA)" d="M4.129 20.768h.223v.15l-1.191.446.074-.223.894-.373Z"/><path fill="url(#bB)" d="m21.923 2.75.298.075.149.15-.075.297-.372.372-.15-.074.299-.373-.15-.446Z"/><path fill="url(#bC)" d="M19.516 15.234h.596l.595.149-.074.149-1.117-.149v-.149Z"/><path fill="url(#bD)" d="M5.94 11.785h.447v.149l-1.117.223.074-.223.596-.15Z"/><path fill="url(#bE)" d="m34.53 1.485.224.149-.15.372-.148-.074v-.298l-.521.074-.15.075.075-.223.67-.075Z"/><path fill="url(#bF)" d="M21.1 1.783h.154l-.077.223-.538.447h-.154l.154-.298.461-.372Z"/><path fill="url(#bG)" d="M23.112 15.011h.15v.15l-.968.297.074-.223.744-.223Z"/><path fill="url(#bH)" d="M8.92 17.543h.373v.149l-.224.074h-.744l.074-.149.521-.074Z"/><path fill="url(#bI)" d="M13.03 16.128h.157l-.156.297-.39.298v-.297l.39-.298Z"/><path fill="url(#bJ)" d="M14.155 3.942h.446l.075.149-1.043.223.298-.297.224-.075Z"/><defs><linearGradient id="a" x1="12.467" x2="12.467" y1="30.25" y2="40.475" gradientUnits="userSpaceOnUse"><stop stop-color="#EAEAF5"/><stop offset="1" stop-color="#C9D2F4"/></linearGradient><linearGradient id="b" x1="28.86" x2="28.86" y1=".741" y2="28.512" gradientUnits="userSpaceOnUse"><stop stop-color="#EAEAF5"/><stop offset="1" stop-color="#C9D2F4"/></linearGradient><linearGradient id="c" x1="35.81" x2="35.81" y1="32.855" y2="40.549" gradientUnits="userSpaceOnUse"><stop stop-color="#EAEAF5"/><stop offset="1" stop-color="#C9D2F4"/></linearGradient><linearGradient id="d" x1="13.733" x2="13.733" y1="32.855" y2="40.549" gradientUnits="userSpaceOnUse"><stop stop-color="#EAEAF5"/><stop offset="1" stop-color="#C9D2F4"/></linearGradient><linearGradient id="e" x1="28.86" x2="28.86" y1=".741" y2="28.512" gradientUnits="userSpaceOnUse"><stop stop-color="#EAEAF5"/><stop offset="1" stop-color="#C9D2F4"/></linearGradient><linearGradient id="f" x1="21.053" x2="21.053" y1="32.855" y2="40.549" gradientUnits="userSpaceOnUse"><stop stop-color="#EAEAF5"/><stop offset="1" stop-color="#C9D2F4"/></linearGradient><linearGradient id="g" x1="6.337" x2="6.337" y1="11.189" y2="24.343" gradientUnits="userSpaceOnUse"><stop stop-color="#EAEAF5"/><stop offset="1" stop-color="#C9D2F4"/></linearGradient><linearGradient id="h" x1="6.337" x2="6.337" y1=".741" y2="10.743" gradientUnits="userSpaceOnUse"><stop stop-color="#EAEAF5"/><stop offset="1" stop-color="#C9D2F4"/></linearGradient><linearGradient id="i" x1="17.739" x2="17.739" y1="17.617" y2="26.427" gradientUnits="userSpaceOnUse"><stop stop-color="#EAEAF5"/><stop offset="1" stop-color="#C9D2F4"/></linearGradient><linearGradient id="j" x1="26.663" x2="26.663" y1="30.324" y2="40.474" gradientUnits="userSpaceOnUse"><stop stop-color="#EAEAF5"/><stop offset="1" stop-color="#C9D2F4"/></linearGradient><linearGradient id="k" x1="30.433" x2="30.433" y1="30.324" y2="40.474" gradientUnits="userSpaceOnUse"><stop stop-color="#EAEAF5"/><stop offset="1" stop-color="#C9D2F4"/></linearGradient><linearGradient id="l" x1="20.494" x2="20.494" y1="16.277" y2="22.258" gradientUnits="userSpaceOnUse"><stop stop-color="#EAEAF5"/><stop offset="1" stop-color="#C9D2F4"/></linearGradient><linearGradient id="m" x1="12.467" x2="12.467" y1="30.25" y2="40.475" gradientUnits="userSpaceOnUse"><stop stop-color="#EAEAF5"/><stop offset="1" stop-color="#C9D2F4"/></linearGradient><linearGradient id="n" x1="12.728" x2="12.728" y1="3.272" y2="13.075" gradientUnits="userSpaceOnUse"><stop stop-color="#EAEAF5"/><stop offset="1" stop-color="#C9D2F4"/></linearGradient><linearGradient id="o" x1="6.337" x2="6.337" y1="11.189" y2="24.343" gradientUnits="userSpaceOnUse"><stop stop-color="#EAEAF5"/><stop offset="1" stop-color="#C9D2F4"/></linearGradient><linearGradient id="p" x1="6.299" x2="6.299" y1=".965" y2="10.445" gradientUnits="userSpaceOnUse"><stop stop-color="#EAEAF5"/><stop offset="1" stop-color="#C9D2F4"/></linearGradient><linearGradient id="q" x1="15.371" x2="15.371" y1="7.541" y2="14.415" gradientUnits="userSpaceOnUse"><stop stop-color="#EAEAF5"/><stop offset="1" stop-color="#C9D2F4"/></linearGradient><linearGradient id="r" x1="17.739" x2="17.739" y1="17.617" y2="26.427" gradientUnits="userSpaceOnUse"><stop stop-color="#EAEAF5"/><stop offset="1" stop-color="#C9D2F4"/></linearGradient><linearGradient id="s" x1="28.302" x2="28.302" y1=".741" y2="22.184" gradientUnits="userSpaceOnUse"><stop stop-color="#EAEAF5"/><stop offset="1" stop-color="#C9D2F4"/></linearGradient><linearGradient id="t" x1="34.804" x2="34.804" y1="1.485" y2="6.722" gradientUnits="userSpaceOnUse"><stop stop-color="#EAEAF5"/><stop offset="1" stop-color="#C9D2F4"/></linearGradient><linearGradient id="u" x1="11.238" x2="11.238" y1="15.458" y2="19.851" gradientUnits="userSpaceOnUse"><stop stop-color="#EAEAF5"/><stop offset="1" stop-color="#C9D2F4"/></linearGradient><linearGradient id="v" x1="35.957" x2="35.957" y1="30.175" y2="31.887" gradientUnits="userSpaceOnUse"><stop stop-color="#EAEAF5"/><stop offset="1" stop-color="#C9D2F4"/></linearGradient><linearGradient id="w" x1="20.755" x2="20.755" y1="15.16" y2="19.18" gradientUnits="userSpaceOnUse"><stop stop-color="#EAEAF5"/><stop offset="1" stop-color="#C9D2F4"/></linearGradient><linearGradient id="x" x1="36.18" x2="36.18" y1="5.456" y2="9.03" gradientUnits="userSpaceOnUse"><stop stop-color="#EAEAF5"/><stop offset="1" stop-color="#C9D2F4"/></linearGradient><linearGradient id="y" x1="20.46" x2="20.46" y1="16.575" y2="22.035" gradientUnits="userSpaceOnUse"><stop stop-color="#EAEAF5"/><stop offset="1" stop-color="#C9D2F4"/></linearGradient><linearGradient id="z" x1="21.053" x2="21.053" y1="32.855" y2="40.549" gradientUnits="userSpaceOnUse"><stop stop-color="#EAEAF5"/><stop offset="1" stop-color="#C9D2F4"/></linearGradient><linearGradient id="A" x1="3.992" x2="3.992" y1="2.007" y2="10.742" gradientUnits="userSpaceOnUse"><stop stop-color="#EAEAF5"/><stop offset="1" stop-color="#C9D2F4"/></linearGradient><linearGradient id="B" x1="12.727" x2="12.727" y1="3.57" y2="12.926" gradientUnits="userSpaceOnUse"><stop stop-color="#EAEAF5"/><stop offset="1" stop-color="#C9D2F4"/></linearGradient><linearGradient id="C" x1="13.733" x2="13.733" y1="32.855" y2="40.549" gradientUnits="userSpaceOnUse"><stop stop-color="#EAEAF5"/><stop offset="1" stop-color="#C9D2F4"/></linearGradient><linearGradient id="D" x1="14.365" x2="14.365" y1="14.638" y2="18.138" gradientUnits="userSpaceOnUse"><stop stop-color="#EAEAF5"/><stop offset="1" stop-color="#C9D2F4"/></linearGradient><linearGradient id="E" x1="15.37" x2="15.37" y1="7.839" y2="14.117" gradientUnits="userSpaceOnUse"><stop stop-color="#EAEAF5"/><stop offset="1" stop-color="#C9D2F4"/></linearGradient><linearGradient id="F" x1="20.16" x2="20.16" y1="14.192" y2="15.756" gradientUnits="userSpaceOnUse"><stop stop-color="#EAEAF5"/><stop offset="1" stop-color="#C9D2F4"/></linearGradient><linearGradient id="G" x1="35.81" x2="35.81" y1="32.855" y2="40.549" gradientUnits="userSpaceOnUse"><stop stop-color="#EAEAF5"/><stop offset="1" stop-color="#C9D2F4"/></linearGradient><linearGradient id="H" x1="15.791" x2="15.791" y1="21.663" y2="26.428" gradientUnits="userSpaceOnUse"><stop stop-color="#EAEAF5"/><stop offset="1" stop-color="#C9D2F4"/></linearGradient><linearGradient id="I" x1="4.364" x2="4.364" y1="30.25" y2="40.251" gradientUnits="userSpaceOnUse"><stop stop-color="#EAEAF5"/><stop offset="1" stop-color="#C9D2F4"/></linearGradient><linearGradient id="J" x1="31.588" x2="31.588" y1="7.689" y2="22.704" gradientUnits="userSpaceOnUse"><stop stop-color="#EAEAF5"/><stop offset="1" stop-color="#C9D2F4"/></linearGradient><linearGradient id="K" x1="21.314" x2="21.314" y1="18.585" y2="22.258" gradientUnits="userSpaceOnUse"><stop stop-color="#EAEAF5"/><stop offset="1" stop-color="#C9D2F4"/></linearGradient><linearGradient id="L" x1="32.892" x2="32.892" y1="12.306" y2="18.362" gradientUnits="userSpaceOnUse"><stop stop-color="#EAEAF5"/><stop offset="1" stop-color="#C9D2F4"/></linearGradient><linearGradient id="M" x1="11.238" x2="11.238" y1="15.607" y2="19.628" gradientUnits="userSpaceOnUse"><stop stop-color="#EAEAF5"/><stop offset="1" stop-color="#C9D2F4"/></linearGradient><linearGradient id="N" x1="26.663" x2="26.663" y1="30.324" y2="40.474" gradientUnits="userSpaceOnUse"><stop stop-color="#EAEAF5"/><stop offset="1" stop-color="#C9D2F4"/></linearGradient><linearGradient id="O" x1="20.68" x2="20.68" y1="15.458" y2="18.883" gradientUnits="userSpaceOnUse"><stop stop-color="#EAEAF5"/><stop offset="1" stop-color="#C9D2F4"/></linearGradient><linearGradient id="P" x1="34.767" x2="34.767" y1="1.485" y2="6.722" gradientUnits="userSpaceOnUse"><stop stop-color="#EAEAF5"/><stop offset="1" stop-color="#C9D2F4"/></linearGradient><linearGradient id="Q" x1="36.18" x2="36.18" y1="5.456" y2="9.03" gradientUnits="userSpaceOnUse"><stop stop-color="#EAEAF5"/><stop offset="1" stop-color="#C9D2F4"/></linearGradient><linearGradient id="R" x1="21.053" x2="21.053" y1="34.27" y2="40.549" gradientUnits="userSpaceOnUse"><stop stop-color="#EAEAF5"/><stop offset="1" stop-color="#C9D2F4"/></linearGradient><linearGradient id="S" x1="12.54" x2="12.54" y1="3.942" y2="13.075" gradientUnits="userSpaceOnUse"><stop stop-color="#EAEAF5"/><stop offset="1" stop-color="#C9D2F4"/></linearGradient><linearGradient id="T" x1="7.156" x2="7.156" y1="16.723" y2="21.588" gradientUnits="userSpaceOnUse"><stop stop-color="#EAEAF5"/><stop offset="1" stop-color="#C9D2F4"/></linearGradient><linearGradient id="U" x1="31.218" x2="31.218" y1="9.774" y2="26.129" gradientUnits="userSpaceOnUse"><stop stop-color="#EAEAF5"/><stop offset="1" stop-color="#C9D2F4"/></linearGradient><linearGradient id="V" x1="3.098" x2="3.098" y1="15.979" y2="24.343" gradientUnits="userSpaceOnUse"><stop stop-color="#EAEAF5"/><stop offset="1" stop-color="#C9D2F4"/></linearGradient><linearGradient id="W" x1="20.122" x2="20.122" y1="14.564" y2="15.458" gradientUnits="userSpaceOnUse"><stop stop-color="#EAEAF5"/><stop offset="1" stop-color="#C9D2F4"/></linearGradient><linearGradient id="X" x1="35.957" x2="35.957" y1="30.175" y2="31.887" gradientUnits="userSpaceOnUse"><stop stop-color="#EAEAF5"/><stop offset="1" stop-color="#C9D2F4"/></linearGradient><linearGradient id="Y" x1="16.796" x2="16.796" y1="8.211" y2="13.968" gradientUnits="userSpaceOnUse"><stop stop-color="#EAEAF5"/><stop offset="1" stop-color="#C9D2F4"/></linearGradient><linearGradient id="Z" x1="14.364" x2="14.364" y1="15.011" y2="17.915" gradientUnits="userSpaceOnUse"><stop stop-color="#EAEAF5"/><stop offset="1" stop-color="#C9D2F4"/></linearGradient><linearGradient id="aa" x1="4.773" x2="4.773" y1=".741" y2="3.942" gradientUnits="userSpaceOnUse"><stop stop-color="#EAEAF5"/><stop offset="1" stop-color="#C9D2F4"/></linearGradient><linearGradient id="ab" x1="14.662" x2="14.662" y1="36.428" y2="39.134" gradientUnits="userSpaceOnUse"><stop stop-color="#EAEAF5"/><stop offset="1" stop-color="#C9D2F4"/></linearGradient><linearGradient id="ac" x1="7.875" x2="7.875" y1="6.201" y2="9.328" gradientUnits="userSpaceOnUse"><stop stop-color="#EAEAF5"/><stop offset="1" stop-color="#C9D2F4"/></linearGradient><linearGradient id="ad" x1="20.309" x2="20.309" y1="11.263" y2="12.008" gradientUnits="userSpaceOnUse"><stop stop-color="#EAEAF5"/><stop offset="1" stop-color="#C9D2F4"/></linearGradient><linearGradient id="ae" x1="30.433" x2="30.433" y1="30.324" y2="40.474" gradientUnits="userSpaceOnUse"><stop stop-color="#EAEAF5"/><stop offset="1" stop-color="#C9D2F4"/></linearGradient><linearGradient id="af" x1="5.854" x2="5.854" y1="1.485" y2="4.935" gradientUnits="userSpaceOnUse"><stop stop-color="#EAEAF5"/><stop offset="1" stop-color="#C9D2F4"/></linearGradient><linearGradient id="ag" x1="36.217" x2="36.217" y1="32.855" y2="36.901" gradientUnits="userSpaceOnUse"><stop stop-color="#EAEAF5"/><stop offset="1" stop-color="#C9D2F4"/></linearGradient><linearGradient id="ah" x1="3.543" x2="3.543" y1="2.007" y2="7.243" gradientUnits="userSpaceOnUse"><stop stop-color="#EAEAF5"/><stop offset="1" stop-color="#C9D2F4"/></linearGradient><linearGradient id="ai" x1="14.702" x2="14.702" y1="15.458" y2="17.691" gradientUnits="userSpaceOnUse"><stop stop-color="#EAEAF5"/><stop offset="1" stop-color="#C9D2F4"/></linearGradient><linearGradient id="aj" x1="35.435" x2="35.435" y1="23.673" y2="28.512" gradientUnits="userSpaceOnUse"><stop stop-color="#EAEAF5"/><stop offset="1" stop-color="#C9D2F4"/></linearGradient><linearGradient id="ak" x1="4.513" x2="4.513" y1="2.974" y2="5.009" gradientUnits="userSpaceOnUse"><stop stop-color="#EAEAF5"/><stop offset="1" stop-color="#C9D2F4"/></linearGradient><linearGradient id="al" x1="27.99" x2="27.99" y1="30.547" y2="39.059" gradientUnits="userSpaceOnUse"><stop stop-color="#EAEAF5"/><stop offset="1" stop-color="#C9D2F4"/></linearGradient><linearGradient id="am" x1="36.255" x2="36.255" y1="7.243" y2="8.806" gradientUnits="userSpaceOnUse"><stop stop-color="#EAEAF5"/><stop offset="1" stop-color="#C9D2F4"/></linearGradient><linearGradient id="an" x1="15.83" x2="15.83" y1="4.017" y2="7.318" gradientUnits="userSpaceOnUse"><stop stop-color="#EAEAF5"/><stop offset="1" stop-color="#C9D2F4"/></linearGradient><linearGradient id="ao" x1="4.736" x2="4.736" y1="7.391" y2="8.732" gradientUnits="userSpaceOnUse"><stop stop-color="#EAEAF5"/><stop offset="1" stop-color="#C9D2F4"/></linearGradient><linearGradient id="ap" x1="13.768" x2="13.768" y1="34.344" y2="36.057" gradientUnits="userSpaceOnUse"><stop stop-color="#EAEAF5"/><stop offset="1" stop-color="#C9D2F4"/></linearGradient><linearGradient id="aq" x1="35.808" x2="35.808" y1="34.344" y2="36.057" gradientUnits="userSpaceOnUse"><stop stop-color="#EAEAF5"/><stop offset="1" stop-color="#C9D2F4"/></linearGradient><linearGradient id="ar" x1="8.843" x2="8.843" y1="2.974" y2="5.531" gradientUnits="userSpaceOnUse"><stop stop-color="#EAEAF5"/><stop offset="1" stop-color="#C9D2F4"/></linearGradient><linearGradient id="as" x1="5.219" x2="5.219" y1="14.117" y2="17.542" gradientUnits="userSpaceOnUse"><stop stop-color="#EAEAF5"/><stop offset="1" stop-color="#C9D2F4"/></linearGradient><linearGradient id="at" x1="20.311" x2="20.311" y1=".741" y2="5.159" gradientUnits="userSpaceOnUse"><stop stop-color="#EAEAF5"/><stop offset="1" stop-color="#C9D2F4"/></linearGradient><linearGradient id="au" x1="25.048" x2="25.048" y1="18.585" y2="20.595" gradientUnits="userSpaceOnUse"><stop stop-color="#EAEAF5"/><stop offset="1" stop-color="#C9D2F4"/></linearGradient><linearGradient id="av" x1="35.994" x2="35.994" y1="1.485" y2="5.233" gradientUnits="userSpaceOnUse"><stop stop-color="#EAEAF5"/><stop offset="1" stop-color="#C9D2F4"/></linearGradient><linearGradient id="aw" x1="36.701" x2="36.701" y1="36.826" y2="39.059" gradientUnits="userSpaceOnUse"><stop stop-color="#EAEAF5"/><stop offset="1" stop-color="#C9D2F4"/></linearGradient><linearGradient id="ax" x1="32.596" x2="32.596" y1="13.596" y2="17.319" gradientUnits="userSpaceOnUse"><stop stop-color="#EAEAF5"/><stop offset="1" stop-color="#C9D2F4"/></linearGradient><linearGradient id="ay" x1="21.698" x2="21.698" y1="2.677" y2="3.868" gradientUnits="userSpaceOnUse"><stop stop-color="#EAEAF5"/><stop offset="1" stop-color="#C9D2F4"/></linearGradient><linearGradient id="az" x1="20.196" x2="20.196" y1="37.943" y2="39.209" gradientUnits="userSpaceOnUse"><stop stop-color="#EAEAF5"/><stop offset="1" stop-color="#C9D2F4"/></linearGradient><linearGradient id="aA" x1="2.341" x2="2.341" y1=".741" y2="3.942" gradientUnits="userSpaceOnUse"><stop stop-color="#EAEAF5"/><stop offset="1" stop-color="#C9D2F4"/></linearGradient><linearGradient id="aB" x1="25.72" x2="25.72" y1="30.324" y2="34.568" gradientUnits="userSpaceOnUse"><stop stop-color="#EAEAF5"/><stop offset="1" stop-color="#C9D2F4"/></linearGradient><linearGradient id="aC" x1="11.948" x2="11.948" y1="18.064" y2="19.851" gradientUnits="userSpaceOnUse"><stop stop-color="#EAEAF5"/><stop offset="1" stop-color="#C9D2F4"/></linearGradient><linearGradient id="aD" x1="14.711" x2="14.711" y1="4.687" y2="5.754" gradientUnits="userSpaceOnUse"><stop stop-color="#EAEAF5"/><stop offset="1" stop-color="#C9D2F4"/></linearGradient><linearGradient id="aE" x1="16.278" x2="16.278" y1="8.956" y2="9.998" gradientUnits="userSpaceOnUse"><stop stop-color="#EAEAF5"/><stop offset="1" stop-color="#C9D2F4"/></linearGradient><linearGradient id="aF" x1="37.297" x2="37.297" y1="22.407" y2="26.8" gradientUnits="userSpaceOnUse"><stop stop-color="#EAEAF5"/><stop offset="1" stop-color="#C9D2F4"/></linearGradient><linearGradient id="aG" x1="8.51" x2="8.51" y1="17.617" y2="18.361" gradientUnits="userSpaceOnUse"><stop stop-color="#EAEAF5"/><stop offset="1" stop-color="#C9D2F4"/></linearGradient><linearGradient id="aH" x1="23.261" x2="23.261" y1="20.52" y2="21.587" gradientUnits="userSpaceOnUse"><stop stop-color="#EAEAF5"/><stop offset="1" stop-color="#C9D2F4"/></linearGradient><linearGradient id="aI" x1="37.559" x2="37.559" y1="37.943" y2="39.134" gradientUnits="userSpaceOnUse"><stop stop-color="#EAEAF5"/><stop offset="1" stop-color="#C9D2F4"/></linearGradient><linearGradient id="aJ" x1="27.878" x2="27.878" y1="34.419" y2="39.06" gradientUnits="userSpaceOnUse"><stop stop-color="#EAEAF5"/><stop offset="1" stop-color="#C9D2F4"/></linearGradient><linearGradient id="aK" x1="1.894" x2="1.894" y1="21.364" y2="24.342" gradientUnits="userSpaceOnUse"><stop stop-color="#EAEAF5"/><stop offset="1" stop-color="#C9D2F4"/></linearGradient><linearGradient id="aL" x1="20.346" x2="20.346" y1="11.487" y2="11.785" gradientUnits="userSpaceOnUse"><stop stop-color="#EAEAF5"/><stop offset="1" stop-color="#C9D2F4"/></linearGradient><linearGradient id="aM" x1="8.026" x2="8.026" y1="6.871" y2="8.956" gradientUnits="userSpaceOnUse"><stop stop-color="#EAEAF5"/><stop offset="1" stop-color="#C9D2F4"/></linearGradient><linearGradient id="aN" x1="37.633" x2="37.633" y1="30.175" y2="31.44" gradientUnits="userSpaceOnUse"><stop stop-color="#EAEAF5"/><stop offset="1" stop-color="#C9D2F4"/></linearGradient><linearGradient id="aO" x1="19.936" x2="19.936" y1="5.01" y2="6.275" gradientUnits="userSpaceOnUse"><stop stop-color="#EAEAF5"/><stop offset="1" stop-color="#C9D2F4"/></linearGradient><linearGradient id="aP" x1="4.923" x2="4.923" y1="19.776" y2="21.364" gradientUnits="userSpaceOnUse"><stop stop-color="#EAEAF5"/><stop offset="1" stop-color="#C9D2F4"/></linearGradient><linearGradient id="aQ" x1="22.358" x2="22.358" y1="34.27" y2="35.238" gradientUnits="userSpaceOnUse"><stop stop-color="#EAEAF5"/><stop offset="1" stop-color="#C9D2F4"/></linearGradient><linearGradient id="aR" x1="8.584" x2="8.584" y1="16.053" y2="17.766" gradientUnits="userSpaceOnUse"><stop stop-color="#EAEAF5"/><stop offset="1" stop-color="#C9D2F4"/></linearGradient><linearGradient id="aS" x1="34.27" x2="34.27" y1="30.472" y2="31.142" gradientUnits="userSpaceOnUse"><stop stop-color="#EAEAF5"/><stop offset="1" stop-color="#C9D2F4"/></linearGradient><linearGradient id="aT" x1="34.902" x2="34.902" y1="37.496" y2="39.059" gradientUnits="userSpaceOnUse"><stop stop-color="#EAEAF5"/><stop offset="1" stop-color="#C9D2F4"/></linearGradient><linearGradient id="aU" x1="21.698" x2="21.698" y1="2.677" y2="3.868" gradientUnits="userSpaceOnUse"><stop stop-color="#EAEAF5"/><stop offset="1" stop-color="#C9D2F4"/></linearGradient><linearGradient id="aV" x1="34.27" x2="34.27" y1="1.485" y2="4.786" gradientUnits="userSpaceOnUse"><stop stop-color="#EAEAF5"/><stop offset="1" stop-color="#C9D2F4"/></linearGradient><linearGradient id="aW" x1="32.484" x2="32.484" y1="34.27" y2="37.05" gradientUnits="userSpaceOnUse"><stop stop-color="#EAEAF5"/><stop offset="1" stop-color="#C9D2F4"/></linearGradient><linearGradient id="aX" x1="18.657" x2="18.657" y1="8.583" y2="10.146" gradientUnits="userSpaceOnUse"><stop stop-color="#EAEAF5"/><stop offset="1" stop-color="#C9D2F4"/></linearGradient><linearGradient id="aY" x1="36.739" x2="36.739" y1="23.449" y2="26.129" gradientUnits="userSpaceOnUse"><stop stop-color="#EAEAF5"/><stop offset="1" stop-color="#C9D2F4"/></linearGradient><linearGradient id="aZ" x1="1.299" x2="1.299" y1="1.783" y2="3.942" gradientUnits="userSpaceOnUse"><stop stop-color="#EAEAF5"/><stop offset="1" stop-color="#C9D2F4"/></linearGradient><linearGradient id="ba" x1="20.906" x2="20.906" y1="15.234" y2="15.532" gradientUnits="userSpaceOnUse"><stop stop-color="#EAEAF5"/><stop offset="1" stop-color="#C9D2F4"/></linearGradient><linearGradient id="bb" x1="24.863" x2="24.863" y1="33.004" y2="34.567" gradientUnits="userSpaceOnUse"><stop stop-color="#EAEAF5"/><stop offset="1" stop-color="#C9D2F4"/></linearGradient><linearGradient id="bc" x1="30.507" x2="30.507" y1="39.879" y2="40.474" gradientUnits="userSpaceOnUse"><stop stop-color="#EAEAF5"/><stop offset="1" stop-color="#C9D2F4"/></linearGradient><linearGradient id="bd" x1="12.987" x2="12.987" y1="34.344" y2="35.685" gradientUnits="userSpaceOnUse"><stop stop-color="#EAEAF5"/><stop offset="1" stop-color="#C9D2F4"/></linearGradient><linearGradient id="be" x1="20.074" x2="20.074" y1="2.453" y2="4.314" gradientUnits="userSpaceOnUse"><stop stop-color="#EAEAF5"/><stop offset="1" stop-color="#C9D2F4"/></linearGradient><linearGradient id="bf" x1="1.075" x2="1.075" y1="21.737" y2="24.045" gradientUnits="userSpaceOnUse"><stop stop-color="#EAEAF5"/><stop offset="1" stop-color="#C9D2F4"/></linearGradient><linearGradient id="bg" x1="16.203" x2="16.203" y1="9.104" y2="9.774" gradientUnits="userSpaceOnUse"><stop stop-color="#EAEAF5"/><stop offset="1" stop-color="#C9D2F4"/></linearGradient><linearGradient id="bh" x1="14.677" x2="14.677" y1="4.935" y2="5.531" gradientUnits="userSpaceOnUse"><stop stop-color="#EAEAF5"/><stop offset="1" stop-color="#C9D2F4"/></linearGradient><linearGradient id="bi" x1="16.126" x2="16.126" y1="20.074" y2="20.992" gradientUnits="userSpaceOnUse"><stop stop-color="#EAEAF5"/><stop offset="1" stop-color="#C9D2F4"/></linearGradient><linearGradient id="bj" x1="7.131" x2="7.131" y1="15.681" y2="16.5" gradientUnits="userSpaceOnUse"><stop stop-color="#EAEAF5"/><stop offset="1" stop-color="#C9D2F4"/></linearGradient><linearGradient id="bk" x1="33.264" x2="33.264" y1="1.857" y2="3.495" gradientUnits="userSpaceOnUse"><stop stop-color="#EAEAF5"/><stop offset="1" stop-color="#C9D2F4"/></linearGradient><linearGradient id="bl" x1="37.709" x2="37.709" y1="6.499" y2="7.318" gradientUnits="userSpaceOnUse"><stop stop-color="#EAEAF5"/><stop offset="1" stop-color="#C9D2F4"/></linearGradient><linearGradient id="bm" x1="27.841" x2="27.841" y1="38.092" y2="39.059" gradientUnits="userSpaceOnUse"><stop stop-color="#EAEAF5"/><stop offset="1" stop-color="#C9D2F4"/></linearGradient><linearGradient id="bn" x1="18.658" x2="18.658" y1="17.394" y2="18.064" gradientUnits="userSpaceOnUse"><stop stop-color="#EAEAF5"/><stop offset="1" stop-color="#C9D2F4"/></linearGradient><linearGradient id="bo" x1="36.665" x2="36.665" y1="7.243" y2="7.987" gradientUnits="userSpaceOnUse"><stop stop-color="#EAEAF5"/><stop offset="1" stop-color="#C9D2F4"/></linearGradient><linearGradient id="bp" x1="15.533" x2="15.533" y1="4.017" y2="4.539" gradientUnits="userSpaceOnUse"><stop stop-color="#EAEAF5"/><stop offset="1" stop-color="#C9D2F4"/></linearGradient><linearGradient id="bq" x1="17.057" x2="17.057" y1="17.989" y2="18.659" gradientUnits="userSpaceOnUse"><stop stop-color="#EAEAF5"/><stop offset="1" stop-color="#C9D2F4"/></linearGradient><linearGradient id="br" x1="32.406" x2="32.406" y1="4.389" y2="5.903" gradientUnits="userSpaceOnUse"><stop stop-color="#EAEAF5"/><stop offset="1" stop-color="#C9D2F4"/></linearGradient><linearGradient id="bs" x1="33.301" x2="33.301" y1="30.622" y2="31.143" gradientUnits="userSpaceOnUse"><stop stop-color="#EAEAF5"/><stop offset="1" stop-color="#C9D2F4"/></linearGradient><linearGradient id="bt" x1="2.005" x2="2.005" y1="30.25" y2="30.473" gradientUnits="userSpaceOnUse"><stop stop-color="#EAEAF5"/><stop offset="1" stop-color="#C9D2F4"/></linearGradient><linearGradient id="bu" x1="3.794" x2="3.794" y1="6.647" y2="7.243" gradientUnits="userSpaceOnUse"><stop stop-color="#EAEAF5"/><stop offset="1" stop-color="#C9D2F4"/></linearGradient><linearGradient id="bv" x1="39.096" x2="39.096" y1="5.456" y2="6.647" gradientUnits="userSpaceOnUse"><stop stop-color="#EAEAF5"/><stop offset="1" stop-color="#C9D2F4"/></linearGradient><linearGradient id="bw" x1="32.372" x2="32.372" y1="37.05" y2="38.613" gradientUnits="userSpaceOnUse"><stop stop-color="#EAEAF5"/><stop offset="1" stop-color="#C9D2F4"/></linearGradient><linearGradient id="bx" x1="18.508" x2="18.508" y1="37.943" y2="38.166" gradientUnits="userSpaceOnUse"><stop stop-color="#EAEAF5"/><stop offset="1" stop-color="#C9D2F4"/></linearGradient><linearGradient id="by" x1="38.428" x2="38.428" y1="38.911" y2="40.102" gradientUnits="userSpaceOnUse"><stop stop-color="#EAEAF5"/><stop offset="1" stop-color="#C9D2F4"/></linearGradient><linearGradient id="bz" x1="13.858" x2="13.858" y1="15.458" y2="16.277" gradientUnits="userSpaceOnUse"><stop stop-color="#EAEAF5"/><stop offset="1" stop-color="#C9D2F4"/></linearGradient><linearGradient id="bA" x1="3.756" x2="3.756" y1="20.768" y2="21.364" gradientUnits="userSpaceOnUse"><stop stop-color="#EAEAF5"/><stop offset="1" stop-color="#C9D2F4"/></linearGradient><linearGradient id="bB" x1="22.072" x2="22.072" y1="2.751" y2="3.644" gradientUnits="userSpaceOnUse"><stop stop-color="#EAEAF5"/><stop offset="1" stop-color="#C9D2F4"/></linearGradient><linearGradient id="bC" x1="20.112" x2="20.112" y1="15.234" y2="15.532" gradientUnits="userSpaceOnUse"><stop stop-color="#EAEAF5"/><stop offset="1" stop-color="#C9D2F4"/></linearGradient><linearGradient id="bD" x1="5.828" x2="5.828" y1="11.785" y2="12.157" gradientUnits="userSpaceOnUse"><stop stop-color="#EAEAF5"/><stop offset="1" stop-color="#C9D2F4"/></linearGradient><linearGradient id="bE" x1="34.27" x2="34.27" y1="1.485" y2="2.006" gradientUnits="userSpaceOnUse"><stop stop-color="#EAEAF5"/><stop offset="1" stop-color="#C9D2F4"/></linearGradient><linearGradient id="bF" x1="20.869" x2="20.869" y1="1.783" y2="2.453" gradientUnits="userSpaceOnUse"><stop stop-color="#EAEAF5"/><stop offset="1" stop-color="#C9D2F4"/></linearGradient><linearGradient id="bG" x1="22.777" x2="22.777" y1="15.011" y2="15.458" gradientUnits="userSpaceOnUse"><stop stop-color="#EAEAF5"/><stop offset="1" stop-color="#C9D2F4"/></linearGradient><linearGradient id="bH" x1="8.809" x2="8.809" y1="17.543" y2="17.766" gradientUnits="userSpaceOnUse"><stop stop-color="#EAEAF5"/><stop offset="1" stop-color="#C9D2F4"/></linearGradient><linearGradient id="bI" x1="12.914" x2="12.914" y1="16.128" y2="16.723" gradientUnits="userSpaceOnUse"><stop stop-color="#EAEAF5"/><stop offset="1" stop-color="#C9D2F4"/></linearGradient><linearGradient id="bJ" x1="14.155" x2="14.155" y1="3.942" y2="4.314" gradientUnits="userSpaceOnUse"><stop stop-color="#EAEAF5"/><stop offset="1" stop-color="#C9D2F4"/></linearGradient></defs></svg>