<svg xmlns="http://www.w3.org/2000/svg" width="96" height="19" fill="none"><path fill="url(#a)" d="M83.378 5.906h2.301l1.38.345 1.496.805 1.15 1.036.691 1.035.46 1.266.23 1.495-.115 1.726-.46 1.38-.575 1.036-1.036 1.15-1.61.921-1.841.46h-1.84l-1.842-.46-1.265-.69-1.15-1.036-.806-1.265-.46-1.496-.115-.92v-1.036l.345-1.61.805-1.61 1.036-1.151 1.15-.69 1.036-.46 1.035-.231Zm.23 2.991-1.15.576-.806 1.035-.345 1.15v1.15l.345 1.151.69.92.92.576.461.115h1.61l.806-.345.92-.805.576-1.15v-2.072l-.576-1.15-1.035-.92-.575-.23h-1.84Z"/><path fill="url(#b)" d="M6.758 5.906h1.955l1.266.46.92.69.69.92.46 1.497.116 1.035v7.823H8.828l-.115-7.478-.345-1.035-.46-.576-.575-.23H5.607l-.92.576-.46.575-.346.92-.115 7.248H.545V6.136h3.221l.115 1.38 1.036-.92 1.38-.575.46-.115Z"/><path fill="url(#c)" d="M70.491 5.906h2.071l1.38.345 1.611.805 1.15 1.036-.23.46-1.15 1.036-.805.575-.805-.69-1.036-.46h-1.84l-1.036.46-.575.46-.576 1.15-.115.575v1.036l.346 1.15.46.69v.23l.46.23 1.15.461h1.611l1.15-.46.69-.575.576.23 1.61 1.495.23.23-.804.806-1.381.805-1.61.46-.691.115h-1.726l-1.84-.46-1.266-.69-.805-.69-.806-1.15-.575-1.381-.23-1.151v-1.61l.46-1.841.69-1.266L67.5 7.056l1.61-.805 1.381-.345Z"/><path fill="url(#d)" d="M57.72 5.906h1.84l1.496.345 1.381.69.575.46-.23.576-1.265 1.84-.576-.344-1.38-.69-.46-.116h-1.036l-.575.345v.806l.575.46 3.107 1.265 1.15.69.805.921.23.805v1.611l-.46 1.15-.805.921-1.38.69-1.151.23h-1.84l-1.612-.345-1.84-.92-.576-.46.23-.46 1.266-1.841.46.23 1.15.69 1.151.345h1.266l.69-.345.115-.805-.345-.345-1.38-.576-1.726-.69-1.036-.575-.805-.806-.46-.92-.115-.46v-1.38l.46-1.151.805-.92 1.266-.69 1.035-.231Z"/><path fill="url(#e)" d="M31.837 1.764h.69v4.372h3.337v2.646h-3.336l.115 5.983.46.69h1.15l.92-.23.806 2.301v.345l-1.496.576-.69.114h-1.726l-1.265-.46-.805-.69-.576-1.15-.23-1.381V8.782h-1.38V6.136h1.38V2.11l2.646-.346Z"/><path fill="url(#f)" d="M14.12 6.136h3.22l.116 2.877.575 1.15.575.46.575.23h1.496l.92-.46.575-.805.23-.805.116-2.647h3.106v3.452l-.46 1.38-.69 1.151-.46.575-1.266.92-1.036.46-1.035.23H19.18l-1.38-.344-1.266-.69-1.035-.92-.806-1.266-.46-1.381-.115-.805V6.136Z"/><path fill="url(#g)" d="M44.607 5.906h.92v3.567l-1.61.115-1.15.46-.691.805-.345.805-.115 6.673h-3.337V6.136h3.337l.115 1.496.805-.806.92-.575 1.151-.345Z"/><path fill="url(#h)" d="M47.943 6.136h3.222v12.196h-3.222V6.136Z"/><path fill="url(#i)" d="M14.232 15.915h11.275l-.23.46-.575.69-1.15.806-1.496.575-1.15.115v.23h-2.072v-.23l-1.15-.115-1.61-.69-1.151-.92-.69-.806v-.115Z"/><path fill="url(#j)" d="M48.748.499h1.61l.69.46.461.69.115 1.036-.345.805-.575.575-.806.345-1.15-.115-.805-.575-.346-.69-.115-.805.23-.806.576-.69.46-.23Z"/><path fill="url(#k)" d="M93.156 14.764h1.15l.69.46.46.576v.46h.231v.575h-.23l-.115.69-.805.69-.23.116H93.04l-.69-.46-.46-.69-.116-.69.346-1.036.69-.575.345-.116Zm.23.23-.69.346-.46.575-.115.805.345.806.575.46.92.115.92-.46.346-.806-.115-.92-.575-.69-.576-.23h-.575Z"/><path fill="url(#l)" d="M93.041 15.57h.92l.46.46-.114.575h-.23l.345.576v.345l-.346-.115-.23-.46-.46-.115v.575l-.345.115V15.57Zm.345.345v.576h.575l.115-.46-.115-.116h-.575Z"/><defs><linearGradient id="a" x1="84.528" x2="84.528" y1="5.906" y2="18.561" gradientUnits="userSpaceOnUse"><stop stop-color="#EAEAF5"/><stop offset="1" stop-color="#C9D2F4"/></linearGradient><linearGradient id="b" x1="6.355" x2="6.355" y1="5.906" y2="18.331" gradientUnits="userSpaceOnUse"><stop stop-color="#EAEAF5"/><stop offset="1" stop-color="#C9D2F4"/></linearGradient><linearGradient id="c" x1="70.951" x2="70.951" y1="5.906" y2="18.561" gradientUnits="userSpaceOnUse"><stop stop-color="#EAEAF5"/><stop offset="1" stop-color="#C9D2F4"/></linearGradient><linearGradient id="d" x1="58.525" x2="58.525" y1="5.906" y2="18.561" gradientUnits="userSpaceOnUse"><stop stop-color="#EAEAF5"/><stop offset="1" stop-color="#C9D2F4"/></linearGradient><linearGradient id="e" x1="31.895" x2="31.895" y1="1.764" y2="18.561" gradientUnits="userSpaceOnUse"><stop stop-color="#EAEAF5"/><stop offset="1" stop-color="#C9D2F4"/></linearGradient><linearGradient id="f" x1="19.872" x2="19.872" y1="6.136" y2="14.305" gradientUnits="userSpaceOnUse"><stop stop-color="#EAEAF5"/><stop offset="1" stop-color="#C9D2F4"/></linearGradient><linearGradient id="g" x1="41.903" x2="41.903" y1="5.906" y2="18.331" gradientUnits="userSpaceOnUse"><stop stop-color="#EAEAF5"/><stop offset="1" stop-color="#C9D2F4"/></linearGradient><linearGradient id="h" x1="49.554" x2="49.554" y1="6.136" y2="18.332" gradientUnits="userSpaceOnUse"><stop stop-color="#EAEAF5"/><stop offset="1" stop-color="#C9D2F4"/></linearGradient><linearGradient id="i" x1="19.87" x2="19.87" y1="15.915" y2="18.791" gradientUnits="userSpaceOnUse"><stop stop-color="#EAEAF5"/><stop offset="1" stop-color="#C9D2F4"/></linearGradient><linearGradient id="j" x1="49.553" x2="49.553" y1=".499" y2="4.41" gradientUnits="userSpaceOnUse"><stop stop-color="#EAEAF5"/><stop offset="1" stop-color="#C9D2F4"/></linearGradient><linearGradient id="k" x1="93.731" x2="93.731" y1="14.764" y2="18.331" gradientUnits="userSpaceOnUse"><stop stop-color="#EAEAF5"/><stop offset="1" stop-color="#C9D2F4"/></linearGradient><linearGradient id="l" x1="93.731" x2="93.731" y1="15.57" y2="17.526" gradientUnits="userSpaceOnUse"><stop stop-color="#EAEAF5"/><stop offset="1" stop-color="#C9D2F4"/></linearGradient></defs></svg>