<svg xmlns="http://www.w3.org/2000/svg" width="103" height="20" fill="none"><path fill="url(#a)" d="M56.912.276h2.392l1.196.3 1.096.597 1.097.897.897 1.296.598 1.196.398 1.296.2.697.299 2.592-.1 1.993-.2 1.595-.597 1.993-.698 1.396-.698.896-.897.898-1.495.797-.598.2-.897.099H57.41l-.997-.1-1.196-.498-.897-.598-1.196-1.196-.598-.997-.498-1.196-.499-2.093-.1-1.794V9.047l.1-1.894.4-1.694.597-1.595.997-1.594.797-.798 1.296-.797 1.296-.399Zm.897 4.585-.698.3-.498.497-.499.897-.199.698-.1.997v3.19l.3 1.295.597.997.598.498.2.1h1.395l.598-.4.498-.597.4-.997.199-1.495.1-.698v-.996l-.2-1.794-.399-1.196-.498-.798-.698-.398-.398-.1h-.698Z"/><path fill="url(#b)" d="m66.082 1.173 2.89.2 1.097.199.1.1v6.976h2.591V1.97l.498-.1 3.589.499.1.1v16.146l-.1.1H72.86l-.1-.1v-6.18H70.17v6.18l-.2.1h-3.887V1.172Z"/><path fill="url(#c)" d="M36.28.874h.599l.598 2.093.997 3.588.697 2.591 1.396 5.083.897 3.39.199.996-.1.1h-4.086l-.2-.2-.598-2.093-3.787-.1-.2.997-.299 1.296-.199.1h-4.087l-.1-.2.3-.797 1.395-4.784 2.592-8.77.698-2.393.299-.698 2.99-.199Zm-1.494 7.375-.898 4.186v.4l.2.099h1.694l.2-.2-.2-.598-.598-3.09-.299-.797h-.1Z"/><path fill="url(#d)" d="M78.543 2.668h.797l1.595.299.498.299.499.797 1.595 3.09.996 1.894.798 1.495.1-6.578.298-.1 2.193.498.997.3.1.099v13.854l-.2.1h-2.69l-.599-.898-1.495-2.59-1.695-2.792v-.199h-.199v6.379l-.698.1h-2.79l-.1-.1V2.668Z"/><path fill="url(#e)" d="M23.823 1.871h1.495l1.595.3 1.195.497.798.598.698.798.498 1.096.2.797.099 1.495-.2 1.296-.398 1.196-.598 1.096-.897 1.097-1.096.897-1.396.797-1.196.498h-.299v4.286l-.2.1h-3.787l-.1-.1V2.57l.3-.2 1.694-.299 1.595-.199Zm.498 3.987-.1.1v3.986l.2.1.897-.499.598-.697.299-.897v-.897l-.399-.798-.399-.299-.299-.1h-.797Z"/><path fill="url(#f)" d="m15.249 3.167.399.1.498 1.794 1.196 4.485 1.097 4.186 1.196 4.485-.1.498h-3.887l-.1-.1-.299-1.495v-.299l-3.489.1-.1.897-.199.797-.199.1H7.674l-.1-.399 1.894-5.98 1.794-5.78.598-1.894.2-.698.298-.299 1.595-.299 1.296-.199Zm-1.694 6.777-.3 1.396-.398 1.893-.1.3.1.1h1.595l.1-.2-.2-.598-.299-1.894-.3-.997h-.198Z"/><path fill="url(#g)" d="M46.948.476h2.79l.698.1.1.099V14.13l-.3 1.894-.697 1.395-.498.598-1.196.698-.598.2-.698.099h-1.994l-.897-.1-.299-.299v-3.688l.4-.1.796.2h.599l.697-.399.2-.299.1-13.654.099-.1.698-.1Z"/><path fill="url(#h)" d="M3.688 5.658h2.89l1.196.499.698.598.598.996.3 1.396v.897l-.3 1.495-.797 1.594-.598.698-.798.698-.996.598-1.097.498-.996.299-.1.2v2.491l-.698.1H.1l-.1-.1V7.054l.299-.3 2.093-.797 1.296-.299Zm.598 3.09-.698.299v3.19l.499.099.797-.498.399-.499.299-.797v-.797l-.3-.598-.398-.3-.598-.1Z"/><path fill="url(#i)" d="M92.695 5.957h2.193l1.296.399 1.196.598.299.199v3.389l-.499-.2-.996-.598-1.296-.498h-.797l-.2.2.1.597.996.698 1.496.897.897.797.598.897.2.499.099.697v1.196l-.2.897-.299.698-.797.897-1.196.598-.997.2h-1.495l-1.096-.1-1.595-.498-.598-.4v-3.488l.598.2 1.595.797.897.2h.897l.398-.4-.199-.697-2.093-1.196-.997-.797-.697-.897-.3-.698-.1-.698V8.947l.2-.797.499-.997.797-.698 1.196-.498Z"/><path fill="url(#j)" d="M99.672 8.748h1.196l.199.2v.697l-.199.3.299.298v.2l-.498.1-.499-.4-.099.4-.499-.1-.1-.499v-.698l.2-.498Zm.399.3-.1.298.1.2h.398l.1-.3-.1-.199h-.398Z"/><path fill="url(#k)" d="M99.772 8.05h1.097l.598.4.498.597.1.897-.399.798-.498.398-.698.2-.897-.1-.598-.498-.3-.897.1-.897.599-.698.398-.2Zm.399.1-.698.3-.398.398-.2.399v.797l.3.598.498.399h1.295l.499-.498.299-.4v-.996l-.598-.698-.798-.299h-.199Z"/><path fill="url(#l)" d="M99.772 8.05h1.097l.598.4.498.597v.2l-.299-.1-.498-.598-.798-.299-.797.2-.399.398-.2.399-.099.797-.2-.2.1-.896.599-.698.398-.2Z"/><path fill="url(#m)" d="m101.766 9.247.299.1-.1.897-.598.797-.398.1.598-.798.099-.199.1-.897Z"/><path fill="url(#n)" d="m99.374 8.25.299.1-.499.498-.2.399-.099.797-.2-.2.1-.896.599-.698Z"/><defs><linearGradient id="a" x1="58.257" x2="58.257" y1=".276" y2="19.014" gradientUnits="userSpaceOnUse"><stop stop-color="#EAEAF5"/><stop offset="1" stop-color="#C9D2F4"/></linearGradient><linearGradient id="b" x1="71.514" x2="71.514" y1="1.173" y2="18.714" gradientUnits="userSpaceOnUse"><stop stop-color="#EAEAF5"/><stop offset="1" stop-color="#C9D2F4"/></linearGradient><linearGradient id="c" x1="34.835" x2="34.835" y1=".874" y2="18.715" gradientUnits="userSpaceOnUse"><stop stop-color="#EAEAF5"/><stop offset="1" stop-color="#C9D2F4"/></linearGradient><linearGradient id="d" x1="83.776" x2="83.776" y1="2.668" y2="18.714" gradientUnits="userSpaceOnUse"><stop stop-color="#EAEAF5"/><stop offset="1" stop-color="#C9D2F4"/></linearGradient><linearGradient id="e" x1="25.318" x2="25.318" y1="1.871" y2="18.715" gradientUnits="userSpaceOnUse"><stop stop-color="#EAEAF5"/><stop offset="1" stop-color="#C9D2F4"/></linearGradient><linearGradient id="f" x1="13.604" x2="13.604" y1="3.167" y2="18.715" gradientUnits="userSpaceOnUse"><stop stop-color="#EAEAF5"/><stop offset="1" stop-color="#C9D2F4"/></linearGradient><linearGradient id="g" x1="46.948" x2="46.948" y1=".476" y2="19.014" gradientUnits="userSpaceOnUse"><stop stop-color="#EAEAF5"/><stop offset="1" stop-color="#C9D2F4"/></linearGradient><linearGradient id="h" x1="4.685" x2="4.685" y1="5.658" y2="18.715" gradientUnits="userSpaceOnUse"><stop stop-color="#EAEAF5"/><stop offset="1" stop-color="#C9D2F4"/></linearGradient><linearGradient id="i" x1="94.14" x2="94.14" y1="5.957" y2="19.014" gradientUnits="userSpaceOnUse"><stop stop-color="#EAEAF5"/><stop offset="1" stop-color="#C9D2F4"/></linearGradient><linearGradient id="j" x1="100.32" x2="100.32" y1="8.748" y2="10.542" gradientUnits="userSpaceOnUse"><stop stop-color="#EAEAF5"/><stop offset="1" stop-color="#C9D2F4"/></linearGradient><linearGradient id="k" x1="100.37" x2="100.37" y1="8.051" y2="11.34" gradientUnits="userSpaceOnUse"><stop stop-color="#EAEAF5"/><stop offset="1" stop-color="#C9D2F4"/></linearGradient><linearGradient id="l" x1="100.32" x2="100.32" y1="8.051" y2="10.044" gradientUnits="userSpaceOnUse"><stop stop-color="#EAEAF5"/><stop offset="1" stop-color="#C9D2F4"/></linearGradient><linearGradient id="m" x1="101.517" x2="101.517" y1="9.247" y2="11.141" gradientUnits="userSpaceOnUse"><stop stop-color="#EAEAF5"/><stop offset="1" stop-color="#C9D2F4"/></linearGradient><linearGradient id="n" x1="99.174" x2="99.174" y1="8.25" y2="10.044" gradientUnits="userSpaceOnUse"><stop stop-color="#EAEAF5"/><stop offset="1" stop-color="#C9D2F4"/></linearGradient></defs></svg>