<svg xmlns="http://www.w3.org/2000/svg" width="53" height="30" fill="none"><path fill="url(#a)" d="M44.377 6.014c-7.793-4.43-17.809-3.176-26.02-.54-.99.316-4.465 1.828-5.17 1.764-.667-.059-.505-1.052-.468-1.58.067-.968.287-2.083.406-3.068.101-.83-.045-2.224 1.094-2.481 2.354-.533 1.369 2.816 1.358 4.066.143.016.276-.014.414-.045 1.378-.322 3.003-1.062 4.465-1.46 4.849-1.318 10.27-2.19 15.262-1.227 2.65.512 7.226 2.144 8.861 4.367.144.285.085.334-.204.204h.002Z"/><path fill="url(#b)" d="M1.316 16.47c.14-.14.642-.407.84-.436 1.566-.234 1.494 1.279 2.287 2.093 1.302 1.337 4.163.64 3.876-1.528-.274-2.067-4.433-3.592-5.128-5.803-.751-2.394.958-4.512 3.22-5.117 1.202-.322 3.67-.27 4.628.638.835.793.55 2.636-.707 2.555-.974-.062-1.497-1.584-2.768-1.736-1.272-.152-2.585.683-2.075 2.076.497 1.357 3.605 2.996 4.598 4.494 2.926 4.416-3.255 8.251-7.211 6.398-1.176-.551-2.746-2.44-1.56-3.632v-.001Z"/><path fill="url(#c)" d="M25.792 9.898c.378.387.094 1.114.05 1.635-.015.186-.185.351.154.306-.09.092-.087.26-.305.205-.01-.718.268-1.44.1-2.146Z"/><path fill="url(#d)" d="M44.582 5.81c.391.531.242.458-.204.204.218.025.229.013.204-.204Z"/><path fill="url(#e)" d="M52.125 10.957c.07-.874-.056-1.14-.925-1.4-3.436-1.026-7.122 1.78-8.405 4.837-.452 1.078-.536 2.565-1.38 3.421-.567.576-.547.152-.51-.408.12-1.811.699-3.807.814-5.623.053-.842 0-2.189-1.017-2.454-1.877-.49-3.366 1.434-4.496 2.608.125-1.6-.153-2.91-2.068-2.63-1.401.206-2.366 1.56-3.344 2.426.127-1.046-.042-2.622-1.473-2.45-.736.089-2.743 1.96-3.328 2.552-.09.05-.18.023-.252-.042.178-.668.194-1.301.047-1.9-.594-.607-2.312-.512-3.1-.394-2.83.423-5.016 2.415-6.178 4.957-.343.75-.45 1.4-.931 2.134-.198.302-1.545 1.954-1.54.923.009-1.323.545-3.313.707-4.72.098-.854.368-2.278-.009-3.029-.396-.788-1.493-.856-2.172-.379l-1.275 9.146c-.268 2.83 2.085 2.38 3.572.918.224-.22.49-.673.707-.904.278-.298.354.595.467.854.082.185.482.658.459.76-.03.126-1.64 1.407-1.942 1.74-3.806 4.2-.662 8.88 4.597 6.848 6.402-2.474 5.568-8.826 6.277-14.463.698-.93 1.624-1.668 2.56-2.344.15 2.076-.446 4.216-.563 6.284-.058 1.037-.145 2.47 1.275 2.483 1.33.01 1.055-.546 1.176-1.461.328-2.484.553-4.22 2.102-6.276.224-.297 1.368-1.844 1.477-.883.193 1.686-.525 4.427-.617 6.24-.098 1.936.401 2.92 2.46 2.025.193-1.887.173-3.766.993-5.52.276-.59 1.643-2.703 2.166-2.943.186-.084.468-.17.509.097.03.194.01.507-.002.718-.105 1.916-.771 3.998-.82 5.923-.062 2.399 1.421 2.706 3.16 1.426.337-.248.571-.723 1.029-.758 1.11 3.32 4.707.39 6.025-1.226.07.404-.115.784-.11 1.174.02 1.256 1.05 1.906 2.194 1.369.765-.36.402-.96.471-1.674.26-2.637 1.004-5.42 1.21-7.985l.003.003Zm-30.778 13.96c-1.466 4.792-7.931 2.239-5.341-2.279.23-.403 1.203-1.715 1.557-1.916.253-.143.956-.147 1.363-.271 1.183-.365 2.357-1.543 3.158-2.453.061-.07-.006-.196.233-.13-.239 2.267-.303 4.87-.97 7.05v-.001Zm.341-9.06c-.355.511-2.255 2.63-2.932 2.201-.32-.202.045-2.414.14-2.85.457-2.098 1.601-4.242 4.126-3.462-.004 1.442-.515 2.932-1.334 4.11Zm26.244-.003c-.35.517-2.176 2.647-2.847 2.173-.253-.18-.038-2.317.037-2.736.383-2.147 1.588-4.376 4.151-3.652-.046 1.457-.52 3.005-1.34 4.216Z"/><defs><linearGradient id="a" x1="28.665" x2="28.665" y1=".052" y2="7.24" gradientUnits="userSpaceOnUse"><stop stop-color="#EAEAF5"/><stop offset="1" stop-color="#C9D2F4"/></linearGradient><linearGradient id="b" x1="6.204" x2="6.204" y1="5.499" y2="20.581" gradientUnits="userSpaceOnUse"><stop stop-color="#EAEAF5"/><stop offset="1" stop-color="#C9D2F4"/></linearGradient><linearGradient id="c" x1="25.843" x2="25.843" y1="9.898" y2="12.055" gradientUnits="userSpaceOnUse"><stop stop-color="#EAEAF5"/><stop offset="1" stop-color="#C9D2F4"/></linearGradient><linearGradient id="d" x1="44.593" x2="44.593" y1="5.81" y2="6.208" gradientUnits="userSpaceOnUse"><stop stop-color="#EAEAF5"/><stop offset="1" stop-color="#C9D2F4"/></linearGradient><linearGradient id="e" x1="31.705" x2="31.705" y1="9.086" y2="29.238" gradientUnits="userSpaceOnUse"><stop stop-color="#EAEAF5"/><stop offset="1" stop-color="#C9D2F4"/></linearGradient></defs></svg>