<svg xmlns="http://www.w3.org/2000/svg" width="72" height="45" fill="none"><path fill="url(#a)" d="M25.8.329h.432l.54.279.43.446.378.67.216.502v.502l-.162.614-.431.892v.39l.162.335.539.558.431.39 1.295 1.228.701.726.378.446.593.725.54.781.54.837.485.837.377.781.432 1.172.27.892.161.893.054.781v.948l-.108 1.228-.27 1.339-.377 1.116-.593 1.171-.702 1.06-.647.781-.647.67-.54.446-1.132.725-1.025.503-1.187.39-1.402.335-.917.111h-1.78l-1.133-.111-.971-.223-.917-.335-.863-.447-.648-.39-.755-.558-.7-.67-.594-.725-.54-.892-.431-.837-.324-.837-.216-.948-.108-.837v-1.507l.162-.948.324-1.172.593-1.339.432-.725.485-.725.432-.614.647-.781.648-.725 1.132-1.172.594-.502.7-.614.756-.613.863-.67.54-.39.97-.67h.162l-.054.39-.377.503-1.187 1.227-.432.39-1.51 1.34-1.294 1.339-.486.613-.54.726-.97 1.506-.27.614-.431 1.283-.162.837-.054.446v1.618l.216 1.004.377.893.27.446.485.614.755.78.81.615.647.39 1.133.446.917.224.755.111h1.78l1.348-.223.917-.279.971-.446.81-.502.7-.558.216-.224h.108l.054-.167.27-.279.431-.502.54-.837.431-.892.27-.837.216-.893.054-.39v-1.73l-.162-1.004-.27-1.004-.485-1.172-.594-1.116-.593-.892-.54-.782-.7-.892-.486-.614-.593-.67-.594-.613-.108-.056-.108.502-.323.726-.378.669-.485.725-.648.949-.539.39h-.27l-.107-.446.27-.725.539-1.06.431-.893.378-.67.377-.725-.054-.279-.539-1.394-.647-1.172-.216-.558v-.558l.162-.558.323-.502.486-.446.485-.28Zm.054 1.618-.27.223-.053.502.161.502.216.223.378-.055.108-.168V2.84l.162-.167-.055-.335-.27-.334-.377-.056Z"/><path fill="url(#b)" d="M7.946 21.25h1.31l1.146.167 1.091.334 1.256.612.49.445v.389l-.6 2.225-.218.445.11.055-.11.167-.546-.334-.764-.5-.928-.5-.49-.168-.546-.11h-.983l-.6.222-.71.556-.273.334-.163.445.054.389.273.445.546.445.71.5.818.5.71.446.655.445.545.445.928.945.437.89.164.723v1.613l-.11 1.224-.382 1.168-.49.778-.492.612-.491.5-.6.446-.928.445-.983.278-.873.111H5.435l-.818-.111-1.037-.278-.874-.39-.6-.389-.546-.5-.382-.445-.436-.89-.055-.278v-1.057l.218-.89.328-.5.382.055.6.39.655.5.655.39 1.092.444 1.146.278.982.111.491-.055.546-.223.546-.333.218-.278.219-.501-.11-.612-.382-.612-.436-.445-.819-.611-1.255-.779-.874-.668-.545-.444-.546-.501-.491-.5-.546-.78-.382-.778v-1.224l.164-.778.273-.834.545-.946.6-.779.437-.445.983-.667.764-.39.71-.222.545-.111.546-.056Z"/><path fill="url(#c)" d="M26.422 28.224h2.35l.374.218.267.218.641.11.695-.219.534-.272.16-.055h.801l.855.218.855.436.8.655.482.654.213.49.107.655v1.417l-.16 1.581-.267 1.363-.267.872-.32.655-.428.654-.588.709-.64.545-.855.436-.481.163-.748.11h-1.335l-.909-.164-.908-.273-.267-.054v.545l-.374 2.453-.373 1.963-.214.436-.214.218h-1.335l-1.39-.054-.373-.11-.107-.108v-.818l.32-1.908.481-3.053.32-1.69.321-1.418.374-2.072.428-2.889.213-1.636.16-.654.214-.218.588-.109Zm4.22 2.344-.588.11-.534.272-.534.49-.214.6-.267 1.145-.267 1.363-.16 1.036v.6l.16.49.534.382.588.164.48-.055.428-.163.48-.328.535-.49.267-.545.267-.818.267-1.036.107-1.09-.054-.6-.16-.545-.267-.436-.588-.437-.48-.109Z"/><path fill="url(#d)" d="M51.08 28.224h1.031l.91.105.91.262 1.03.576.607.471.424.524.303.629.182.576v1.781l-.242 1.362-.364.943-.667 1.1-.546.629-.727.681-.728.524-.97.471-.789.262-1.03.21-.85.052-1.516-.052-.97-.21-.97-.419-.728-.576-.607-.681-.363-.576-.303-.681-.122-.472-.06-.576v-.681l.181-.838.486-1.257.545-.891.486-.629.545-.576.728-.628.606-.42 1.031-.523 1.092-.315.606-.105.85-.052Zm-.182 1.99-.667.106-.364.157-.545.576-.425.733-.606 1.572-.182.89v1.205l.182.629.242.314.303.262.486.21.363.052.668-.157.606-.314.424-.367.546-.733.243-.472.364-1.414.182-1.153-.182-.838-.303-.629-.364-.419-.364-.157-.607-.052Z"/><path fill="url(#e)" d="M19.717 28.224h1.143l.87.156.763.311.762.571.435.467.381.571.218.727.109.83v.779l-.163 1.453-.327 1.09-.327.882-.435.778-.436.52-.49.518-.544.415-.762.416-.762.31-.98.26-.87.104-1.415-.052-.871-.207-.762-.364-.762-.57-.49-.52-.436-.726-.272-.83-.054-.468v-.83l.217-1.35.273-1.037.326-.83.381-.623.545-.675.707-.623 1.143-.674.817-.364.707-.207.925-.156.436-.052Zm-.218 2.076-.599.156-.326.207-.49.52-.435.57-.382.675-.38 1.401-.055.363v.83l.109.623.218.52.326.415.327.207.38.104h.436l.599-.207.544-.416.381-.415.436-.726.38-1.35.164-.882v-.934l-.218-.779-.217-.415-.273-.311-.49-.156H19.5Z"/><path fill="url(#f)" d="M67.894 28.224h1.084l.724.104.671.26.62.363.465.519.258.467.104.363v.778l-.207.727-.413.83-.413.52-.62.622-.672.415-.826.416-.982.311-1.188.26-1.188.155h-.207l.155.467.207.312.31.207.878.312h.93l1.24-.364 1.033-.623.258-.103h.258l.052.103v.727l-.31 1.453-.31.623-.362.415-.568.26-.775.155-1.033.104h-1.756l-1.033-.207-.62-.312-.517-.467-.465-.519-.361-.623-.155-.467-.104-.623v-1.141l.155-1.402.31-1.349.465-1.09.414-.622.671-.727.93-.675.878-.467.775-.26.723-.155.517-.052Zm-.413 2.232-.569.207-.516.415-.672.727-.258.415-.052.208v.467l.103.104h.93l.827-.415.723-.416.517-.467.155-.155.051-.156v-.467l-.206-.312-.31-.155h-.723Z"/><path fill="url(#g)" d="m61.554 22.645.447.054.056.054v.702l-.391 2.7-.558 3.185-.837 4.103-.39 2.43-.39 2.645-.168.486-.223.27-.614.108h-2.678l-.502-.054-.167-.108-.056-.162v-.378l.614-1.89.446-1.997.334-2.052.558-3.51.447-2.429.279-1.404.279-1.62.111-.863.168-.216 3.235-.054Z"/><path fill="url(#h)" d="M43.72 28.224h.607l.606.105.276.158.11.158v.421l-.551 1.316-.331.632-.22.263-.332.052-.276-.052h-1.047l-.718.21-.662.632-.22.421-.331.947-.386 1.79-.497 2.684-.22 1-.221.316-.496.105-1.71-.052h-.717l-.607-.053-.166-.158-.055-.316.386-1.631.276-1 .496-2.895.276-1.948.221-1.42.11-.37.11-.578.276-.421.056-.053 2.923-.052.496.21.387.474.275.053.331-.106.607-.368.497-.369.44-.105Z"/><path fill="url(#i)" d="m18.205 14.276.39.058.224.285.056.172v.686l.167.8.279.572.279.343.725.514.614.286 1.06.286.446.057h1.228l1.171-.286.893-.343.948-.514 1.005-.744.39-.457.335-.571.335-.8.279-.23.39-.114.279.115.223.343.056.171v1.486l-.39 1.087-.447.685-.502.686-.112.172h-.111v.114l-.893.8-.892.572-.949.343-1.172.286-1.06.114h-.558l-.948-.114-.948-.229-.67-.286-.67-.343-.613-.514-.614-.629-.39-.629-.39-.914-.168-.686-.056-.629v-.572l.112-.685.223-.458.223-.228.223-.058Z"/><path fill="url(#j)" d="m62.106 40.777.499.065.348.262.449.915.547.785.35.523.149-.197.199-.719.2-1.111.248-.392.1-.066h.946l.1.131-.05.327-.349.915h.15l-.05.589.05.326h.15v.262h-.1l.1.588v.458l-.25.392-.398.131h-.399l-.448-.13-.299-.328-.2-.523-.05-.196-.148.066.05.261h-.15l-.25-.065-.348.196-.398.458-.15.065h-2.39l-.25.13h-.498l-.25-.326-.049-.13v-.982l.05-1.634.1-.589.199-.261h.697l.399.13v.197l.199-.066.847.197.15.261-.05.523-.2.392-.299.262h-.349l-.298-.261-.3-.327-.049.98.1 1.242-.05.131.797-.261.398-.523.399-.458.299-.654v-.654l-.2-.523-.348-.196.1-.327h.099v-.196l.15-.065Zm2.043 2.811-.05.13h.1l-.05-.13Z"/><path fill="url(#k)" d="m53.742 42.172.75.094.269.142.268.473.161.52.483-.047.107.142.054.33.214.095.43.52-.054.284-.215.142h-.536l-1.02-.095v-.284h-.429l-.214.284-.376.142-.268.047h-.43l-.535-.189-.054-.047h-.43l-.697.142h-1.073l-.268-.095-.322-.378-.053-.19v-1.276l.107-.189.483-.236.643-.095h.269l-.054.331-.215.757-.053.614.536.047.215-.661.214-.757h.376v-.095l.215.048.268-.095.643-.284.59-.141Zm-.537.992-.483.237-.214.662.053.236h.376l.375-.142.322-.094.215-.378-.107-.426-.269-.095h-.268Z"/><path fill="url(#l)" d="m45.578 40.777.464.06.724.425.361.425.362.485.31.424.206.546v.303l.155-.182.104-.242.051-1.092.052-.121.207-.06h.361l.362.181.155.364.052.364-.259.364-.206.545v1.092l-.155.182-.155.06h-.413l-.31-.181h-.414l.052-.243.155-.06v-.122h-.103v-.182l-.155.06v.122l-.155.121-.465.182-.31.243-.465.121-.31-.06-1.653-.061-.207-.243-.051-.546.206-1.394.362-.97.206-.364.259-.243.62-.303Zm.361.97-.258.121-.31.425-.207.606-.051.243v.728l.258.363h.517l.413-.242.155-.243v-1.516l-.155-.303-.259-.182h-.103Z"/><path fill="url(#m)" d="m68.177 40.777.624.063.75.317.624.634.25.634-.062.824-.25.571-.313.507-.25.317-.374.254-.437.063-.687-.127-.812.064h-.75v-.317h.125v.127l.687-.19.5-.444.5-.571.312-.824v-.888l-.188-.19h-.312l-.312 1.014-.25.38-.125.128h-.374l-.313-.317-.187-.254v-.127l-.312.064.062-.254.375-.444.437-.253h.125l-.063-.19.188-.127.562-.127.125-.254.125-.063Z"/><path fill="url(#n)" d="m71.29 39.382.29.105.144.21.096.527v1.21l-.24.527-.193.21-.289-.105-.433-.42-.192-.422-.048-.21v-.58l.192-.42.433-.527.24-.105Z"/><path fill="url(#o)" d="m56.748 42.172.404.065.36.324.27.454.09.324v.844l-.27.584-.135.194-.18-.065-.36-1.038-.09-.13h-.18l-.18-.324.046-.908.09-.26.135-.064Z"/><path fill="url(#p)" d="M68.927 42.172h.103v.527l-.31.679-.413.452-.517.302h-.206l-.103.301-.517.377-.517.151-.206-.075.206-.528.724-.452.62-.227h.413l.31-.678.31-.754.103-.075Z"/><defs><linearGradient id="a" x1="24.398" x2="24.398" y1=".329" y2="26.829" gradientUnits="userSpaceOnUse"><stop stop-color="#EAEAF5"/><stop offset="1" stop-color="#C9D2F4"/></linearGradient><linearGradient id="b" x1="6.963" x2="6.963" y1="21.25" y2="39.382" gradientUnits="userSpaceOnUse"><stop stop-color="#EAEAF5"/><stop offset="1" stop-color="#C9D2F4"/></linearGradient><linearGradient id="c" x1="29.28" x2="29.28" y1="28.224" y2="44.961" gradientUnits="userSpaceOnUse"><stop stop-color="#EAEAF5"/><stop offset="1" stop-color="#C9D2F4"/></linearGradient><linearGradient id="d" x1="50.201" x2="50.201" y1="28.224" y2="39.382" gradientUnits="userSpaceOnUse"><stop stop-color="#EAEAF5"/><stop offset="1" stop-color="#C9D2F4"/></linearGradient><linearGradient id="e" x1="18.819" x2="18.819" y1="28.224" y2="39.382" gradientUnits="userSpaceOnUse"><stop stop-color="#EAEAF5"/><stop offset="1" stop-color="#C9D2F4"/></linearGradient><linearGradient id="f" x1="66.938" x2="66.938" y1="28.224" y2="39.382" gradientUnits="userSpaceOnUse"><stop stop-color="#EAEAF5"/><stop offset="1" stop-color="#C9D2F4"/></linearGradient><linearGradient id="g" x1="58.57" x2="58.57" y1="22.645" y2="39.382" gradientUnits="userSpaceOnUse"><stop stop-color="#EAEAF5"/><stop offset="1" stop-color="#C9D2F4"/></linearGradient><linearGradient id="h" x1="40.438" x2="40.438" y1="28.224" y2="39.382" gradientUnits="userSpaceOnUse"><stop stop-color="#EAEAF5"/><stop offset="1" stop-color="#C9D2F4"/></linearGradient><linearGradient id="i" x1="23.701" x2="23.701" y1="14.276" y2="21.25" gradientUnits="userSpaceOnUse"><stop stop-color="#EAEAF5"/><stop offset="1" stop-color="#C9D2F4"/></linearGradient><linearGradient id="j" x1="62.754" x2="62.754" y1="40.777" y2="44.961" gradientUnits="userSpaceOnUse"><stop stop-color="#EAEAF5"/><stop offset="1" stop-color="#C9D2F4"/></linearGradient><linearGradient id="k" x1="52.991" x2="52.991" y1="42.172" y2="44.961" gradientUnits="userSpaceOnUse"><stop stop-color="#EAEAF5"/><stop offset="1" stop-color="#C9D2F4"/></linearGradient><linearGradient id="l" x1="46.714" x2="46.714" y1="40.777" y2="44.961" gradientUnits="userSpaceOnUse"><stop stop-color="#EAEAF5"/><stop offset="1" stop-color="#C9D2F4"/></linearGradient><linearGradient id="m" x1="68.333" x2="68.333" y1="40.777" y2="44.961" gradientUnits="userSpaceOnUse"><stop stop-color="#EAEAF5"/><stop offset="1" stop-color="#C9D2F4"/></linearGradient><linearGradient id="n" x1="71.122" x2="71.122" y1="39.382" y2="42.172" gradientUnits="userSpaceOnUse"><stop stop-color="#EAEAF5"/><stop offset="1" stop-color="#C9D2F4"/></linearGradient><linearGradient id="o" x1="57.175" x2="57.175" y1="42.172" y2="44.961" gradientUnits="userSpaceOnUse"><stop stop-color="#EAEAF5"/><stop offset="1" stop-color="#C9D2F4"/></linearGradient><linearGradient id="p" x1="67.635" x2="67.635" y1="42.172" y2="44.961" gradientUnits="userSpaceOnUse"><stop stop-color="#EAEAF5"/><stop offset="1" stop-color="#C9D2F4"/></linearGradient></defs></svg>