<svg xmlns="http://www.w3.org/2000/svg" width="109" height="32" fill="none"><path fill="url(#a)" d="M2.322.043h27.515l.843.21.633.528.527 1.054v27.62l-.527 1.054-.633.527-.843.211H2.322l-.949-.316-.632-.527-.422-.949V1.835L.846.78 1.48.254l.843-.211Zm14.759 5.482-1.898.316-1.265.527-1.16.738-1.053.949-.739 1.054-.632 1.265-.316 1.054-.106 1.792.106 1.37.632 1.582.633 1.054.738.738.632-.421 3.795-3.796.844-.738.843-.948.843-.738 3.163-3.163.106-.527-.422-.527-1.16-.738-1.37-.527-2.214-.316Zm2.952 7.8-1.055.95-7.59 7.59-.843.738-.633.738.211.527.738.632 1.476.738.527.211 1.16.21h1.686l1.265-.21 1.476-.633 1.055-.738.948-.843.844-1.16.632-1.37.211-.738.106-1.687-.106-1.476-.422-1.264-.843-1.476-.633-.738h-.21Z"/><path fill="url(#b)" d="M65.997 8.793h2.32l1.475.738.211.21.527-.105 1.055-.632.527-.211h2.319l1.054.421.844.633.632.738.527 1.054.211 1.16v8.328l-.316.843-.317.317-.421.21-.633-.105-.632-.422-.211-.527-.105-8.855-.317-.738-.527-.422-.738-.21-.949.105-.738.632-.21.527-.106 8.961-.316.527-.527.422-.633.105-.738-.421-.316-.95-.105-8.749-.317-.527-.632-.527-.949-.106-.949.317-.421.527-.106.21-.105 9.067-.422.738-.632.421-.633-.105-.632-.422-.106-.105-.105-1.054v-6.326l.105-2.74.527-1.055.633-.843 1.16-.738.737-.316Z"/><path fill="url(#c)" d="M94.673 8.793h2.32l1.053.421.95.738.632.844.422.949.105.421v6.642l-.527 1.37-.844 1.16-1.16.738-1.37.421h-.738l-1.37-.421-.21-.106v6.43l-.633.739-.211.105h-.844l-.738-.632V11.85l.738-1.37.527-.633 1.16-.738.738-.316Zm.527 2.424-.843.633-.422.738v6.114l.316.527.527.527 1.16.211.949-.21.632-.528.211-.421v-6.326l-.421-.632-.633-.527-.21-.106H95.2Z"/><path fill="url(#d)" d="M80.967 8.793h1.16l.527.527.105.316.106 8.75.21.633.422.527.95.421.737-.105.843-.422.422-.949.106-8.75.21-.527.527-.421h1.055l.527.527.21.316v9.172l-.316.948-.632 1.055-.738.738-.949.527-1.37.421h-.844l-1.16-.316-.843-.422-1.054-.948-.632-1.055-.317-1.265V9.847l.317-.633.421-.421Z"/><path fill="url(#e)" d="M51.764 8.793h1.16l.527.527.105.21.106 9.067.316.632.633.527.632.211.738-.105.632-.316h.211l.211-.422.211-.527.105-9.172.633-.632h1.16l.527.527.105.21v9.594l-.422 1.054-.738 1.054-1.37.844-1.37.421h-.95l-1.37-.421-.948-.633-.844-.843-.632-1.37V9.424l.632-.632Z"/><path fill="url(#f)" d="M43.755 8.793h2.425l1.16.527.843.632.738.844.105.843-.421.633-.527.316h-.739l-.527-.316-.632-.738-.949-.317-1.054.106-.633.527-.21.632.421.633.527.422 2.741 1.16 1.054.632.844.843.527 1.16v2.108l-.527 1.054-.316.422h-.211v.21l-.633.528-1.16.527-1.264.316h-1.055l-1.792-.527-1.16-.843-.526-.738v-.949l.421-.527.527-.21h.633l.632.42.738.633.738.211h.738l.949-.316.738-.738v-.949l-.422-.632-1.687-.844-1.265-.527-1.054-.527-.949-.843-.421-.633-.316-.949v-1.16l.527-1.37 1.16-1.16 1.264-.526Z"/><path fill="url(#g)" d="M105.002 8.793h1.581l.738.421.633.738.316.633v1.054l-.422.949-.843.738-.527.21h-1.371l-.632-.316-.527-.421-.422-.738-.105-.211v-1.37l.421-.844.738-.632.422-.211Zm.632.421-.737.317-.528.421-.421.844v.738l.421.843.528.422.737.21.844-.105.632-.422.422-.527.105-.421v-.844l-.316-.632-.738-.633-.949-.21Z"/><path fill="url(#h)" d="M105.214 9.846h.843l.527.422.105.422-.421.527.421.843-.527.106-.421-.633-.211-.105v.632l-.422.106-.105-.211v-1.792l.211-.317Zm.316.527.105.528h.422l.105-.317-.105-.21h-.527Z"/><defs><linearGradient id="a" x1="16.079" x2="16.079" y1=".043" y2="31.247" gradientUnits="userSpaceOnUse"><stop stop-color="#EAEAF5"/><stop offset="1" stop-color="#C9D2F4"/></linearGradient><linearGradient id="b" x1="70.267" x2="70.267" y1="8.793" y2="22.497" gradientUnits="userSpaceOnUse"><stop stop-color="#EAEAF5"/><stop offset="1" stop-color="#C9D2F4"/></linearGradient><linearGradient id="c" x1="95.833" x2="95.833" y1="8.793" y2="29.244" gradientUnits="userSpaceOnUse"><stop stop-color="#EAEAF5"/><stop offset="1" stop-color="#C9D2F4"/></linearGradient><linearGradient id="d" x1="84.657" x2="84.657" y1="8.793" y2="22.497" gradientUnits="userSpaceOnUse"><stop stop-color="#EAEAF5"/><stop offset="1" stop-color="#C9D2F4"/></linearGradient><linearGradient id="e" x1="55.454" x2="55.454" y1="8.793" y2="22.497" gradientUnits="userSpaceOnUse"><stop stop-color="#EAEAF5"/><stop offset="1" stop-color="#C9D2F4"/></linearGradient><linearGradient id="f" x1="45.126" x2="45.126" y1="8.793" y2="22.497" gradientUnits="userSpaceOnUse"><stop stop-color="#EAEAF5"/><stop offset="1" stop-color="#C9D2F4"/></linearGradient><linearGradient id="g" x1="105.845" x2="105.845" y1="8.793" y2="13.537" gradientUnits="userSpaceOnUse"><stop stop-color="#EAEAF5"/><stop offset="1" stop-color="#C9D2F4"/></linearGradient><linearGradient id="h" x1="105.846" x2="105.846" y1="9.846" y2="12.166" gradientUnits="userSpaceOnUse"><stop stop-color="#EAEAF5"/><stop offset="1" stop-color="#C9D2F4"/></linearGradient></defs></svg>