<svg xmlns="http://www.w3.org/2000/svg" width="73" height="47" fill="none"><path fill="url(#a)" d="m39.024.493 1.27.305 1.37.457 1.32.61.864.456.965.61.964.71.508.457.405.355.762.762.914 1.117.813 1.219.61 1.116.456 1.016.356.965.406 1.625.254 1.674.05 1.32-.05 1.27-.254 1.625-.406 1.573-.407 1.117-.66 1.372-.406.71L48.417 24l-.508.66-.558.61-1.167 1.168-.711.558-.61.457-.965.61-1.117.608-.965.406-.964.356-1.066.304-1.371.254-1.219.153h-2.131l-1.88-.254-1.421-.356-1.37-.457-1.016-.457-.813-.456-.558-.305-.965-.66-.71-.558-.61-.559-1.117-1.117-.558-.711-.508-.66-.66-1.066-.457-.863-.559-1.32-.355-1.117-.305-1.37-.202-1.422v-2.54l.202-1.42.356-1.473.355-1.066.508-1.168.508-.964.406-.66.508-.711.508-.66.457-.508.152-.204h.102l.101-.203.61-.609.406-.355.76-.61.711-.507.66-.406 1.118-.61 1.015-.456L31.46.95l1.066-.304 1.016-.204L34.963.29h2.386l1.675.203Zm-3.959 4.722-1.218.203-1.168.355-.761.305-.813.406-.66.407-.406.304-.559.407-.66.66-.457.508-.101.203h-.102l-.101.151-.508.711-.405.71-.407.813-.355.965-.254 1.117-.152 1.37v.915l.05.406.153 1.066.304 1.168.204.559.406.862.507.863.507.711.457.559.508.508.711.61.914.66.813.456.965.406 1.319.406 1.523.254h1.524l1.116-.153 1.066-.253 1.118-.407.761-.354.864-.508.71-.508.66-.559.406-.355.203-.254.102-.203h.101l.203-.305.407-.558.406-.66.406-.762.355-.862.356-1.32.152-1.169v-1.675l-.101-.914-.203-.914-.305-.914-.508-1.066-.457-.762-.508-.71-.457-.558-.457-.457-.406-.356-.811-.66-.61-.406-1.066-.559-1.067-.406-1.066-.305-1.116-.152h-2.032Z"/><path fill="url(#b)" d="M35.777 10.19h.61l.812.102.812.254.813.406.558.406.508.457.406.508.406.66.305.761.152.61.05.406v.965l-.152.761-.355.965-.457.71-.508.61-.71.558-.711.406-.61.254-.863.203h-1.421l-.711-.152-.66-.254-.61-.304-.558-.407-.508-.456-.406-.508-.457-.762-.253-.66-.204-.914V14.71l.153-.812.304-.813.305-.558.508-.66.406-.406.761-.559.864-.406.66-.203.761-.102Z"/><path fill="url(#c)" d="M27.294 36.643h1.574l.812.203.508.203.559.355.507.457.406.559.407.863.05.355-1.066.203-.254.051-.507-1.016-.406-.456-.559-.356-.457-.152-.304-.05h-.965l-.813.202-.507.254-.508.406-.305.406-.304.61-.203.71-.102.66v1.371l.152.863.203.66.305.61.356.406.507.355.711.305.457.102h.914l.61-.153.608-.304.508-.457.406-.66.305-.864.152-.05 1.219.304-.051.407-.254.66-.406.71-.406.508-.66.508-.711.355-.66.203-.254.051h-1.625l-.913-.203-.61-.254-.609-.406-.61-.61-.405-.66-.356-.812-.203-.66-.152-.863V41.01l.152-.863.254-.813.406-.761.355-.457.254-.254.457-.406.559-.355.812-.305.66-.152Z"/><path fill="url(#d)" d="M.489 36.795h7.97v.71l-.05.508-.152.051-3.097-.05v8.783l-.102.05h-1.27l-.05-8.783-3.25-.05v-1.22Z"/><path fill="url(#e)" d="M44.713 36.795h1.32l.05.05v8.733l4.925.051v1.168l-.05.05h-6.245V36.796Z"/><path fill="url(#f)" d="m16.176 36.998.609.305.457.406.406.66.203.762v.811l-.152.61-.305.558-.355.407-.71.457-1.067.355.508.356.608.609.559.762.61.964.812 1.27.254.456v.102h-1.574l-.153-.051-.76-1.219-.66-1.015-.407-.609-.61-.812-.456-.407-.61-.254-2.233-.05v4.366l-.05.05H9.83l-.051-.05v-9.951l.05-.051h5.433l.914.203Zm-5.03.965v3.198l.05.05h3.3l.458-.05.558-.152.457-.305.254-.355.203-.507v-.61l-.152-.406-.305-.406-.508-.305-.558-.152h-3.757Z"/><path fill="url(#g)" d="m69.891 36.998.508.254.508.457.356.559.253.71v1.066l-.203.66-.355.559-.457.406-.508.305-.762.254h-.304l.253.253.407.356.254.203.558.711.508.762.812 1.268.558.864.05.203h-1.674l-.152-.153-.61-.965-.71-1.116-.762-1.117-.559-.61-.508-.304-.304-.102-2.183-.05v4.366l-.05.05h-1.321l-.05-.05v-9.951l.05-.051h5.382l1.015.203Zm-5.027.965v3.198l.05.05h3.3l.61-.1.559-.204.457-.406.254-.608v-.711l-.102-.305-.356-.457-.457-.305-.66-.152h-3.655Z"/><path fill="url(#h)" d="M20.139 36.795h1.269l.05.05v9.85l-.05.153h-1.32V36.846l.05-.051Z"/><path fill="url(#i)" d="m39.938 36.846.813.355.66.457.61.61.507.812.305.76.254 1.067v1.828l-.203.965-.407.964-.355.559-.457.508-.406.355-.66.406-.711.305-.914.203h-1.421l-.863-.203-.813-.356-.66-.457-.508-.457-.457-.66-.508-1.065-.203-.813-.05-.304v-1.676l.202-.965.254-.76.406-.712.407-.508.406-.406.66-.457.61-.304.964-.254h1.675l.863.203Zm-1.572.812a3.635 3.635 0 0 0-1.959.671l-.06.033-.014.007-.559.457-.011.017-.343.491-.068.145-.035.057-.01.023c-.382.669-.597 1.478-.597 2.364 0 1.525.715 2.734 1.722 3.398l.003.003.003.002c.162.106.33.199.505.276l.05.027.038.009c.391.159.808.245 1.234.245.903 0 1.66-.308 2.233-.84l.092-.068.009-.006v-.024a3.24 3.24 0 0 0 .178-.196l-.078.118h.001l.305-.405.068-.11.032-.042.022-.043.132-.211.065-.185.035-.07.041-.135c.032-.082.06-.166.087-.252l.026-.07.009-.047c.091-.326.153-.674.18-1.042l.014-.129v-.66l-.007-.04-.013-.095c-.159-2.099-1.349-3.578-3.33-3.673Zm2.132 7.385-.307.23-.061.035-.09.067-.508.254-.155.04-.15.062-.452.1.602-.161.357-.143.396-.22.316-.237.082-.054-.03.027Zm-4.063.281.662.33.697.175-.647-.15-.05-.025-.066-.016-.088-.036-.505-.276-.003-.002Zm-1.175-5.64-.121.316-.155.618-.064.344-.008.047v1.676l.203.914.407.812.436.484.363.328-.343-.305-.02-.023-.031-.028-.407-.456-.406-.812-.203-.914v-1.676l.009-.047.043-.258.021-.086.08-.422.075-.196.027-.108.094-.208.048-.125c.01-.019.021-.036.032-.054l-.08.179Zm5.338 5.285-.008.006-.062.04c.024-.022.047-.045.07-.069v.023Zm0-.102v.079-.079Zm.417-.438c-.074.112-.153.219-.238.32l.024-.034.214-.286Zm.31-.558-.198.396-.054.085-.058.077c.134-.205.251-.428.348-.667l-.039.11Zm.376-1.616-.036.328-.075.375-.028.184-.026.085-.014.07-.035.117-.065.185-.022.067a4.524 4.524 0 0 1-.037.096l.059-.163.114-.372.054-.269.114-.763-.003.06Zm.014-.129-.01.07c.005-.09.008-.181.01-.273v.203Zm0-.334v.131-.16.029Zm-.006-.366.006.04v.297a6.481 6.481 0 0 0-.015-.39l.009.053Zm-2.278-3.463.761.406.356.305.076.084.075.068.306.356.305.557.052.159.048.095.096.335.057.173.01.064.04.14.083.626.004.041-.127-.807-.067-.237-.144-.43-.358-.716-.02-.024-.36-.4-.433-.389-.761-.406-.71-.153.71.153Zm-3.033.373a3.84 3.84 0 0 0-1.058 1.169l.012-.026.423-.653.559-.457.013-.007.051-.026Zm1.358-.526-.655.174-.703.352.01-.007.586-.315.107-.03.044-.021.61-.153Z"/><path fill="url(#j)" d="m58.508 36.846.813.355.66.457.61.61.506.811.305.762.254 1.066v1.828l-.203.965-.406.964-.355.559-.457.508-.406.355-.66.406-.711.305-.914.203h-1.422l-.862-.203-.813-.356-.66-.457-.508-.457-.457-.66-.508-1.065-.203-.813-.05-.304v-1.676l.202-.965.254-.762.407-.71.406-.508.406-.406.66-.457.61-.304.963-.254h1.676l.863.203Zm-1.564.812a3.636 3.636 0 0 0-1.934.654l-.093.05-.014.007-.559.457-.011.017-.343.49-.068.148-.034.055-.03.073c-.364.66-.57 1.45-.57 2.314 0 1.509.7 2.709 1.69 3.377l.027.024.045.025c.136.087.278.164.423.231l.09.049.06.015c.387.155.8.239 1.22.239.923 0 1.694-.32 2.272-.875l.045-.033.009-.006v-.015c.052-.052.102-.107.15-.163l-.05.076h.001l.114-.152c.055-.068.108-.138.158-.21l.033-.044.064-.105.036-.046.024-.048.13-.207.06-.171.012-.029.028-.053.013-.043c.23-.566.353-1.222.353-1.938 0-.094-.005-.187-.01-.279v-.076l-.003-.018c-.123-2.16-1.32-3.694-3.338-3.79Zm2.171 7.35-.354.265-.061.035-.09.067-.508.254-.155.04-.15.062-.451.1.601-.161.357-.143.396-.22.316-.237.114-.076-.015.014Zm-3.448.646.695.174-.645-.148-.05-.026-.044-.01c-.05-.02-.1-.041-.15-.064l-.423-.231-.015-.01.632.315Zm-.632-.315-.03-.015-.025-.022.055.037Zm-1.204-5.657-.122.318-.155.618-.072.39v1.677l.203.914.407.811.436.486.363.327-.342-.305-.02-.023-.032-.028-.406-.456-.407-.812-.203-.914v-1.676l.009-.047.043-.258.021-.086.08-.422.075-.196.027-.108.095-.21.027-.073.029-.05-.056.123Zm5.337 5.287-.008.006-.03.02.038-.04v.014Zm0-.102v.088-.088Zm.511-.575c-.043.073-.09.144-.137.213l-.157.21-.066.076.052-.076.268-.359.04-.064Zm.02-.03-.02.03c.013-.02.024-.042.036-.064l-.016.034Zm.587-2.72v.584l-.05.457-.076.375-.027.184-.027.085-.023.118-.092.254-.049.16a4.185 4.185 0 0 1-.04.096l-.009.017-.005.012a3.91 3.91 0 0 1-.173.344l.178-.356.098-.273.115-.372.054-.269.125-.832v-.615.031Zm-.001-.076v.045l-.002-.058.002.013ZM57.29 37.81l.71.153.763.406.355.305.076.085.075.067.269.314.037.04.305.56.052.157.048.096.096.335.057.173.01.064.04.14.096.72-.136-.86-.067-.237-.144-.43-.358-.716-.036-.042-.344-.381-.433-.39-.761-.406-.711-.153Zm-2.298.514a3.848 3.848 0 0 0-1.105 1.235l.035-.078.41-.638.014-.017.558-.457.013-.007.075-.038Zm1.333-.514-.654.174-.68.34.019-.012.554-.298.107-.03.045-.021.608-.153h.001Z"/><defs><linearGradient id="a" x1="36.156" x2="36.156" y1=".29" y2="30.144" gradientUnits="userSpaceOnUse"><stop stop-color="#EAEAF5"/><stop offset="1" stop-color="#C9D2F4"/></linearGradient><linearGradient id="b" x1="36.133" x2="36.133" y1="10.19" y2="20.192" gradientUnits="userSpaceOnUse"><stop stop-color="#EAEAF5"/><stop offset="1" stop-color="#C9D2F4"/></linearGradient><linearGradient id="c" x1="27.827" x2="27.827" y1="36.643" y2="47" gradientUnits="userSpaceOnUse"><stop stop-color="#EAEAF5"/><stop offset="1" stop-color="#C9D2F4"/></linearGradient><linearGradient id="d" x1="4.474" x2="4.474" y1="36.795" y2="46.848" gradientUnits="userSpaceOnUse"><stop stop-color="#EAEAF5"/><stop offset="1" stop-color="#C9D2F4"/></linearGradient><linearGradient id="e" x1="47.861" x2="47.861" y1="36.795" y2="46.848" gradientUnits="userSpaceOnUse"><stop stop-color="#EAEAF5"/><stop offset="1" stop-color="#C9D2F4"/></linearGradient><linearGradient id="f" x1="14.196" x2="14.196" y1="36.795" y2="46.848" gradientUnits="userSpaceOnUse"><stop stop-color="#EAEAF5"/><stop offset="1" stop-color="#C9D2F4"/></linearGradient><linearGradient id="g" x1="67.885" x2="67.885" y1="36.795" y2="46.848" gradientUnits="userSpaceOnUse"><stop stop-color="#EAEAF5"/><stop offset="1" stop-color="#C9D2F4"/></linearGradient><linearGradient id="h" x1="20.773" x2="20.773" y1="36.795" y2="46.848" gradientUnits="userSpaceOnUse"><stop stop-color="#EAEAF5"/><stop offset="1" stop-color="#C9D2F4"/></linearGradient><linearGradient id="i" x1="38.289" x2="38.289" y1="36.643" y2="47" gradientUnits="userSpaceOnUse"><stop stop-color="#EAEAF5"/><stop offset="1" stop-color="#C9D2F4"/></linearGradient><linearGradient id="j" x1="56.858" x2="56.858" y1="36.643" y2="47" gradientUnits="userSpaceOnUse"><stop stop-color="#EAEAF5"/><stop offset="1" stop-color="#C9D2F4"/></linearGradient></defs></svg>