<svg xmlns="http://www.w3.org/2000/svg" width="102" height="17" fill="none"><path fill="url(#a)" d="M53.94.48h11.362l.077.039v2.696l-.886.038H57.06l-.038 3.89h8.126l.039.039v2.58l-.039.039h-8.126v3.967l8.05-.039h.23l.077.039v2.696l-.115.038H53.94l-.078-.154V.634l.078-.154Z"/><path fill="url(#b)" d="M71.926 4.37h1.27l.925.154.693.23.732.347.54.347.23.193.116.038-.039-.154v-.77l.039-.077h3.004l.038.038v11.747l-.038.039h-3.004l-.039-.039V15.5l-.5.386-.886.462-.925.308-.616.115-.423.039h-1.04l-.694-.077-.731-.193-.732-.27-.809-.423-.616-.462-.462-.424-.309-.308-.385-.5-.385-.617-.27-.54-.269-.808-.115-.462-.078-.578V10.07l.116-.77.231-.81.347-.77.346-.577.385-.501.155-.193h.077l.077-.154.308-.308.423-.346.578-.386.732-.385 1.04-.346.963-.154Zm.731 2.619-.577.077-.655.192-.655.347-.385.308-.347.347-.23.308-.232.385-.23.54-.116.538-.039.27v.616l.116.655.192.539.347.578.423.462.386.347.539.308.424.192.654.154.347.039h.385l.77-.116.54-.192.577-.308.54-.424v-.077l.115-.039.424-.577.23-.463.193-.616.039-.154.038-.886-.115-.693-.231-.616-.231-.424-.27-.346-.462-.463-.54-.346-.5-.231-.54-.154-.615-.077h-.309Z"/><path fill="url(#c)" d="M.83.48h1.542l.808.038.039.039.038 10.36.077.501.193.693.308.617.27.423.423.462.54.386.616.308.5.154.424.077h1.156l.385-.077.693-.231.616-.347.385-.308.386-.385.385-.578.27-.616.153-.54.077-.539.039-10.399.077-.038 2.388.038.038.039v15.906l-.115.039H11.23l-.077-.038v-1.348l-.308.27-.501.384-.732.424-.809.308-.808.193-.54.077H6.223l-.732-.116-.809-.231-.577-.231-.578-.308-.54-.385-.384-.347-.501-.5-.462-.655-.424-.81-.308-.924-.116-.616-.038-1.386v-8.59L.792.519.831.48Z"/><path fill="url(#d)" d="m15.464.48 2.35.039.038 5.007-.038.693.192-.116.193-.192.385-.308.616-.385.617-.27.577-.193.732-.154.385-.038h1.04l.77.115.732.193.848.347.654.385.501.385.462.423.462.501.462.693.309.578.308.847.154.77.038.424v.925l-.077.655-.192.731-.231.655-.386.693-.385.54-.346.385-.193.23h-.077v.078l-.54.423-.577.386-.616.308-.578.23-.732.193-.731.116h-1.233l-.654-.116-.578-.154-.77-.308-.617-.346-.539-.386-.27-.27-.154-.076.039.154v1.194l-.077.038h-2.272l-.039-.038V.519l.038-.039Zm5.932 6.201-.77.154-.501.193-.462.23-.501.386-.308.27-.424.539-.23.385-.232.54-.116.423-.077.462v.847l.155.77.192.501.308.54.385.5.308.308.424.308.54.308.77.27.423.077h1.117l.655-.154.578-.231.654-.385.578-.54.27-.307.308-.501.192-.424.154-.5.116-.694v-.5l-.116-.732-.23-.694-.347-.616-.347-.423-.424-.424-.577-.385-.578-.27-.5-.154-.501-.077h-.886Z"/><path fill="url(#e)" d="M95.227 4.37h1.618l.886.115.577.116.925.308.693.385.501.385.385.385.385.578.27.578.192.731.039.193v.347l-2.966.038-.115-.038-.232-.578-.27-.385-.384-.308-.578-.231-.308-.077-.347-.039h-1.27l-.617.116-.424.23-.192.193-.154.308v.424l.154.27.308.192.578.193.616.154 1.425.27 1.695.346.885.27.694.308.539.346.385.309.347.385.308.539.077.192v2.042l-.193.5-.346.54-.463.5-.5.386-.732.385-.924.308-.77.154-.81.077h-1.386l-.847-.077-.81-.154-.924-.308-.731-.386-.462-.346-.386-.347-.346-.385-.347-.54-.27-.577-.27-.847v-.154h3.12l.155.346.23.424.155.193.385.27.424.192.616.154.809.077h.731l.694-.116.462-.154.308-.192.193-.154.154-.308.038-.27-.154-.462-.154-.077-.462-.193-1.079-.27-2.08-.462-1.27-.308-.925-.346-.731-.385-.424-.347-.308-.308-.27-.385-.23-.501-.116-.54V7.72l.115-.577.193-.501.23-.385.27-.347.385-.385.578-.385.655-.308.693-.231.809-.154.693-.077Z"/><path fill="url(#f)" d="M34.606 4.601h1.31l.885.154.924.308.732.385.54.386.462.423.385.385.462.655.231.385.308.732.193.655.115.616.077.693v1.04l-.077.039h-9.59l.308.924.231.462.347.462.308.347.385.308.694.385.654.231.424.077h1.194l.655-.154.577-.23.54-.309.5-.424.27-.27.23-.269.347.231.424.308.655.463.308.23-.115.193-.424.462-.385.386-.501.385-.578.346-.654.308-1.002.309-.693.115-.424.039h-.77l-.732-.077-.655-.154-.808-.27-.655-.308-.54-.347-.538-.423-.578-.578-.54-.732-.346-.655-.27-.693-.23-1.001-.04-.386v-.962l.116-.77.27-.925.424-.886.462-.655.308-.385.578-.577.423-.309.616-.385.655-.308.732-.23.886-.155Zm.539 2.003-.616.077-.578.154-.616.308-.424.308-.385.347-.385.5-.347.655-.192.578v.038h7.202l-.116-.423-.192-.462-.231-.424-.27-.347-.308-.346-.5-.385-.617-.309-.462-.154-.385-.077-.578-.038Z"/><path fill="url(#g)" d="M83.056 1.289H86.1l.039.038v3.35h3.389l.038.04v2.618l-.038.039h-3.39l.04 5.777.192.347.308.192.423.077h2.35l.115.039v2.657l-.038.039h-3.698l-.731-.116-.501-.192-.462-.27-.462-.424-.27-.385-.27-.577-.077-.347-.038-.809v-5.97l-2.272-.038-.039-.039v-2.58l.039-.077h2.195l.077-.039V1.404l.038-.115Z"/><path fill="url(#h)" d="M47.51 4.717h.925l.077.077v2.042l-.077.077-1.31.038-.616.154-.424.231-.346.27-.308.346-.232.386-.192.539-.077.385-.039 1.001v6.163l-.038.038-1.233.039h-1.078l-.077-.039V4.833l.077-.039h2.195l.116.077v.848l-.039.462.193-.193.27-.346.462-.386.616-.308.5-.154.655-.077Z"/><defs><linearGradient id="a" x1="59.621" x2="59.621" y1=".48" y2="16.502" gradientUnits="userSpaceOnUse"><stop stop-color="#EAEAF5"/><stop offset="1" stop-color="#C9D2F4"/></linearGradient><linearGradient id="b" x1="72.811" x2="72.811" y1="4.37" y2="16.81" gradientUnits="userSpaceOnUse"><stop stop-color="#EAEAF5"/><stop offset="1" stop-color="#C9D2F4"/></linearGradient><linearGradient id="c" x1="7.205" x2="7.205" y1=".48" y2="16.772" gradientUnits="userSpaceOnUse"><stop stop-color="#EAEAF5"/><stop offset="1" stop-color="#C9D2F4"/></linearGradient><linearGradient id="d" x1="21.839" x2="21.839" y1=".48" y2="16.772" gradientUnits="userSpaceOnUse"><stop stop-color="#EAEAF5"/><stop offset="1" stop-color="#C9D2F4"/></linearGradient><linearGradient id="e" x1="96.094" x2="96.094" y1="4.37" y2="16.81" gradientUnits="userSpaceOnUse"><stop stop-color="#EAEAF5"/><stop offset="1" stop-color="#C9D2F4"/></linearGradient><linearGradient id="f" x1="35.184" x2="35.184" y1="4.601" y2="16.772" gradientUnits="userSpaceOnUse"><stop stop-color="#EAEAF5"/><stop offset="1" stop-color="#C9D2F4"/></linearGradient><linearGradient id="g" x1="85.136" x2="85.136" y1="1.289" y2="16.502" gradientUnits="userSpaceOnUse"><stop stop-color="#EAEAF5"/><stop offset="1" stop-color="#C9D2F4"/></linearGradient><linearGradient id="h" x1="45.488" x2="45.488" y1="4.717" y2="16.503" gradientUnits="userSpaceOnUse"><stop stop-color="#EAEAF5"/><stop offset="1" stop-color="#C9D2F4"/></linearGradient></defs></svg>