<svg width="35" height="32" viewBox="0 0 35 32" fill="none" xmlns="http://www.w3.org/2000/svg">
<path fill-rule="evenodd" clip-rule="evenodd" d="M0.535367 18.1062L3.12915 15.5275C3.8434 14.8174 5.00868 14.8174 5.72293 15.5275L13.0126 22.7749C13.0281 22.7903 13.0494 22.798 13.0726 22.798C13.0958 22.7961 13.1152 22.7865 13.1287 22.7691L30.1605 1.20423C30.8109 0.380564 32.0013 0.261244 32.8007 0.942509L34.3589 2.27228C35.0925 2.89962 35.2144 3.98312 34.6318 4.75092L15.2756 30.2344C14.7006 30.9926 13.909 31.4237 12.9566 31.4911C12.0043 31.5584 11.1584 31.2447 10.4829 30.5731C7.16712 27.2766 3.85125 23.9799 0.535688 20.6836C-0.178563 19.9754 -0.178563 18.8169 0.535688 18.1067L0.535367 18.1062Z" fill="#F98B6B"/>
</svg>
