<svg xmlns="http://www.w3.org/2000/svg" width="181" height="56" fill="none"><path fill="#EAEAF5" d="m28.29 4.759-3.732 3.438c-2.116-2.04-4.722-3.074-7.915-3.074-3.194 0-5.8 1.084-7.915 3.212-2.116 2.128-3.145 4.799-3.145 8.01 0 3.213 1.039 5.883 3.145 8.01 2.106 2.129 4.77 3.163 7.915 3.163 3.144 0 5.485-.906 7.513-2.719v-5.793h-8.728V13.98h14.037v12.71c-3.017 3.665-7.65 5.931-12.822 5.931-5.172 0-8.591-1.537-11.833-4.61C1.616 24.887 0 20.995 0 16.335S1.616 7.784 4.81 4.66C8.052 1.537 12.01 0 16.643 0s8.502 1.586 11.647 4.749v.01ZM34.736 32.612V9.922h5.245v3.373c1.057-2.383 3.488-3.824 6.62-3.824 3.131 0 1.143.049 1.584.137v5.227a10.954 10.954 0 0 0-2.209-.226c-3.66 0-6.004 2.344-6.004 6.08v11.933h-5.245l.01-.01ZM72.522 22.402c.05-.57.088-1.18.088-1.836 0-3.15-1.042-5.766-3.155-7.907-2.074-2.141-4.788-3.188-8.081-3.188-3.293 0-6.321 1.047-8.572 3.188-2.212 2.14-3.343 4.938-3.343 8.43v.172c0 3.454 1.13 6.204 3.343 8.259 2.212 2.055 5.141 3.102 8.71 3.102 3.568 0 7-1.313 9.565-3.93l-3.254-3.054c-1.76 1.703-3.795 2.53-6.144 2.53-4.011 0-6.675-2.264-6.862-5.756v-.01h17.705ZM56.99 15.323c1.219-.914 2.703-1.399 4.374-1.399 1.671 0 2.89.476 4.02 1.447.827.675 1.358 1.455 1.594 2.35H55.18c.305-.914.914-1.713 1.818-2.389l-.01-.009ZM122.699 13.162V9.95h5.685v22.183h-5.685v-3.211c-.805 2.157-3.693 3.7-7.624 3.7-3.931 0-6.211-1.102-8.532-3.298-2.27-2.243-3.415-4.975-3.415-8.273 0-3.297 1.135-6.03 3.415-8.234 2.321-2.244 5.169-3.346 8.532-3.346 3.931 0 6.819 1.543 7.624 3.7v-.01Zm-1.702 12.72c1.424-1.274 2.135-2.904 2.135-4.84 0-1.937-.711-3.566-2.135-4.841-1.372-1.275-3.126-1.937-5.169-1.937-2.043 0-3.693.662-5.066 1.937-1.33 1.275-1.991 2.904-1.991 4.84 0 1.937.661 3.567 1.991 4.842 1.373 1.275 3.034 1.936 5.066 1.936s3.786-.661 5.169-1.936ZM130.499 32.612V9.922h5.648v3.373c1.138-2.383 3.756-3.824 7.128-3.824 3.373 0 1.232.049 1.707.137v5.227a12.657 12.657 0 0 0-2.379-.226c-3.942 0-6.466 2.344-6.466 6.08v11.933h-5.649l.011-.01ZM147.326 3.285c0-1.854 1.412-3.285 3.181-3.285 1.768 0 3.133 1.431 3.133 3.285 0 1.855-1.413 3.286-3.133 3.286-1.721 0-3.181-1.431-3.181-3.286Zm.528 29.337V9.302h5.295v23.32h-5.295ZM156.797 21.047c0-3.248 1.189-6.024 3.519-8.234s5.197-3.342 8.582-3.342c3.385 0 6.253 1.123 8.583 3.342 2.33 2.22 3.519 4.986 3.519 8.234 0 3.247-1.189 6.023-3.519 8.233-2.33 2.21-5.198 3.342-8.583 3.342s-6.252-1.123-8.582-3.342c-2.33-2.21-3.519-4.986-3.519-8.233Zm16.992 4.9c1.323-1.34 1.985-2.946 1.985-4.9 0-1.955-.662-3.56-1.985-4.854-1.324-1.34-2.954-1.992-4.891-1.992-1.937 0-3.615.652-4.929 1.992-1.275 1.303-1.937 2.909-1.937 4.854 0 1.944.662 3.56 1.937 4.9 1.324 1.303 2.954 1.954 4.929 1.954 1.976 0 3.567-.651 4.891-1.954ZM97.966 36.325l-6.124-4.198c1.823-.557 3.448-1.523 4.885-2.88 2.408-2.285 3.637-5.155 3.637-8.514 0-3.359-1.23-6.229-3.637-8.514-.089-.078-.168-.156-.257-.234 3.27-2.109 5.439-5.75 5.439-9.88h-4.895c0 3.602-2.774 6.57-6.33 6.951a13.985 13.985 0 0 0-2.825-.273c-3.507 0-6.46 1.162-8.868 3.456-2.407 2.284-3.636 5.155-3.636 8.514 0 3.358 1.229 6.228 3.636 8.513.486.459.991.869 1.516 1.24.05.03.1.068.14.098l.029.02 6.311 4.217h-3.755c-5.856 0-10.621 4.696-10.621 10.466s4.765 10.466 10.621 10.466h9.274c5.856 0 10.622-4.696 10.622-10.466 0-3.798-2.061-7.127-5.133-8.963l-.03-.02Zm-15.21-20.61c1.368-1.387 3.052-2.06 5.093-2.06s3.686.673 5.054 2.06c1.367 1.347 2.05 3.007 2.05 5.018 0 2.011-.683 3.68-2.05 5.067-1.368 1.347-3.052 2.021-5.054 2.021-2.001 0-3.735-.674-5.093-2.02-1.317-1.387-2-3.047-2-5.068 0-2.021.683-3.68 2-5.018Zm9.73 35.216h-9.274c-3.16 0-5.727-2.529-5.727-5.643 0-3.115 2.567-5.644 5.727-5.644h9.274c3.161 0 5.727 2.529 5.727 5.644 0 3.114-2.566 5.643-5.727 5.643Z"/></svg>