<svg xmlns="http://www.w3.org/2000/svg" width="40" height="41" fill="none"><rect width="40" height="40" y=".5" fill="url(#a)" rx="9"/><path fill="#EAEAF5" d="m29.162 11.855-2.66 2.425c-1.508-1.438-3.365-2.168-5.64-2.168-2.277 0-4.134.764-5.642 2.265-1.508 1.5-2.24 3.383-2.24 5.647 0 2.265.74 4.147 2.24 5.648 1.501 1.5 3.4 2.23 5.641 2.23s3.91-.64 5.355-1.918V21.9h-6.22v-3.543H30v8.961c-2.15 2.584-5.453 4.182-9.139 4.182-3.686 0-6.122-1.084-8.433-3.251C10.152 26.047 9 23.303 9 20.017c0-3.285 1.152-6.03 3.428-8.231C14.738 9.584 17.559 8.5 20.86 8.5c3.303 0 6.06 1.118 8.301 3.348v.007Z"/><defs><linearGradient id="a" x1="20" x2="20" y1=".5" y2="40.5" gradientUnits="userSpaceOnUse"><stop stop-color="#313497"/><stop offset="1" stop-color="#232359"/></linearGradient></defs></svg>