<?xml version="1.0" encoding="UTF-8"?>
<svg xmlns="http://www.w3.org/2000/svg" version="1.1" xmlns:xlink="http://www.w3.org/1999/xlink" viewBox="0 0 200 80">
  <defs>
    <style>
      .cls-1 {
        fill: none;
      }

      .cls-2 {
        fill-rule: evenodd;
      }

      .cls-2, .cls-3 {
        fill: #8194ff;
      }

      .cls-4 {
        clip-path: url(#clippath-1);
      }

      .cls-5 {
        clip-path: url(#clippath);
      }
    </style>
    <clipPath id="clippath">
      <rect class="cls-1" x="149" y="15" width="51" height="50"/>
    </clipPath>
    <clipPath id="clippath-1">
      <rect class="cls-1" x="0" y="15" width="51" height="50"/>
    </clipPath>
  </defs>
  <!-- Generator: Adobe Illustrator 28.7.9, SVG Export Plug-In . SVG Version: 1.2.0 Build 218)  -->
  <g>
    <g id="Layer_1">
      <g class="cls-5">
        <path class="cls-3" d="M174.5,15c0,13.8-11.4,25-25.5,25,14.1,0,25.5,11.2,25.5,25,0-13.8,11.4-25,25.5-25-14.1,0-25.5-11.2-25.5-25Z"/>
      </g>
      <g class="cls-4">
        <path class="cls-3" d="M25.5,15c0,13.8-11.4,25-25.5,25,14.1,0,25.5,11.2,25.5,25,0-13.8,11.4-25,25.5-25-14.1,0-25.5-11.2-25.5-25Z"/>
      </g>
      <path class="cls-2" d="M79.1,12.5c6.7,0,12.1,5.4,12.1,12.1s-2,7.6-5.1,9.8c5.7,2.3,10.1,7.4,11.4,13.5,2.6-2.5,5.7-4.5,9.2-5.8-4.5-2.8-7.6-7.8-7.6-13.4,0-8.7,7.1-15.7,15.7-15.7s15.7,7.1,15.7,15.7-3,10.7-7.5,13.4c9.7,3.4,16.7,12.6,16.7,23.5,0,1-.8,1.8-1.8,1.8-.7,0-1.4-.4-1.7-1.1,0-.2-.1-.5-.1-.7,0-11.5-9-20.8-20.4-21.2-.3,0-.6,0-.9,0s-.6,0-.9,0c-11.3.5-20.4,9.8-20.4,21.2,0,1-.8,1.8-1.8,1.8-.7,0-1.4-.4-1.7-1.1,0-.2-.1-.5-.1-.7,0-5,1.5-9.8,4.3-13.9,0-8.2-6.6-14.8-14.7-15.1-.2,0-.4,0-.6,0s-.4,0-.6,0c-8.2.3-14.7,7-14.7,15.2,0,1-.8,1.8-1.8,1.8-.2,0-.5,0-.7-.1-.7-.3-1.1-1-1.1-1.7,0-7.9,4.9-14.7,11.8-17.5-3.1-2.2-5.1-5.8-5.1-9.8,0-6.7,5.5-12.1,12.1-12.1h0ZM79.1,16.1c-4.7,0-8.5,3.8-8.5,8.5,0,4.5,3.5,8.2,7.9,8.5.2,0,.4,0,.6,0s.4,0,.6,0c4.5-.3,7.9-4,7.9-8.5,0-4.7-3.7-8.5-8.4-8.5,0,0,0,0,0,0Z"/>
    </g>
  </g>
</svg>