<?xml version="1.0" encoding="UTF-8"?>
<svg xmlns="http://www.w3.org/2000/svg" version="1.1" xmlns:xlink="http://www.w3.org/1999/xlink" viewBox="0 0 200 80">
  <defs>
    <style>
      .cls-1, .cls-2 {
        fill: #ffa78e;
      }

      .cls-3 {
        fill: none;
      }

      .cls-4 {
        clip-path: url(#clippath-1);
      }

      .cls-2 {
        fill-rule: evenodd;
      }

      .cls-5 {
        clip-path: url(#clippath);
      }
    </style>
    <clipPath id="clippath">
      <rect class="cls-3" x="149" y="15" width="51" height="50"/>
    </clipPath>
    <clipPath id="clippath-1">
      <rect class="cls-3" x="0" y="15" width="51" height="50"/>
    </clipPath>
  </defs>
  <!-- Generator: Adobe Illustrator 28.7.9, SVG Export Plug-In . SVG Version: 1.2.0 Build 218)  -->
  <g>
    <g id="Layer_1">
      <g class="cls-5">
        <path class="cls-1" d="M174.5,15c0,13.8-11.4,25-25.5,25,14.1,0,25.5,11.2,25.5,25,0-13.8,11.4-25,25.5-25-14.1,0-25.5-11.2-25.5-25Z"/>
      </g>
      <g class="cls-4">
        <path class="cls-1" d="M25.5,15c0,13.8-11.4,25-25.5,25,14.1,0,25.5,11.2,25.5,25,0-13.8,11.4-25,25.5-25-14.1,0-25.5-11.2-25.5-25Z"/>
      </g>
      <path class="cls-2" d="M65,10.3v40.3c0,2.9,2.4,5.3,5.3,5.3h24.5v8.8h-12.2c-1,0-1.7.8-1.7,1.7v7c0,1,.8,1.7,1.7,1.7h35c1,0,1.7-.8,1.7-1.7v-7c0-1-.8-1.7-1.7-1.7h-12.2v-8.8h24.5c1.4,0,2.7-.6,3.7-1.5,1-1,1.5-2.3,1.5-3.7V10.3c0-2.9-2.4-5.2-5.3-5.3h-59.5c-2.9,0-5.3,2.4-5.3,5.3h0ZM131.5,43.5h-63V10.3c0-1,.8-1.7,1.7-1.7h59.5c.5,0,.9.2,1.2.5.3.3.5.8.5,1.2v33.2h0Z"/>
    </g>
  </g>
</svg>