<?xml version="1.0" encoding="UTF-8"?>
<svg xmlns="http://www.w3.org/2000/svg" version="1.1" xmlns:xlink="http://www.w3.org/1999/xlink" viewBox="0 0 200 80">
  <defs>
    <style>
      .cls-1 {
        fill: none;
      }

      .cls-2 {
        clip-path: url(#clippath-1);
      }

      .cls-3 {
        fill: #6dc6d7;
      }

      .cls-4 {
        clip-path: url(#clippath);
      }
    </style>
    <clipPath id="clippath">
      <rect class="cls-1" x="149" y="15" width="51" height="50"/>
    </clipPath>
    <clipPath id="clippath-1">
      <rect class="cls-1" x="0" y="15" width="51" height="50"/>
    </clipPath>
  </defs>
  <!-- Generator: Adobe Illustrator 28.7.9, SVG Export Plug-In . SVG Version: 1.2.0 Build 218)  -->
  <g>
    <g id="Layer_1">
      <g class="cls-4">
        <path class="cls-3" d="M174.5,15c0,13.8-11.4,25-25.5,25,14.1,0,25.5,11.2,25.5,25,0-13.8,11.4-25,25.5-25-14.1,0-25.5-11.2-25.5-25Z"/>
      </g>
      <g class="cls-2">
        <path class="cls-3" d="M25.5,15c0,13.8-11.4,25-25.5,25,14.1,0,25.5,11.2,25.5,25,0-13.8,11.4-25,25.5-25-14.1,0-25.5-11.2-25.5-25Z"/>
      </g>
      <path class="cls-3" d="M115.1,0h-28.6C81.8,0,78,3.8,78,8.5v63c0,4.7,3.8,8.5,8.5,8.5h28.6c4.7,0,8.5-3.8,8.5-8.5V8.5C123.6,3.8,119.8,0,115.1,0ZM109.5,74.4c0,1.1-.9,2-2,2h-13.5c-1.1,0-2-.9-2-2s.9-2,2-2h13.5c1.1,0,2,.9,2,2ZM115.1,69.3h-28.6c-2.7,0-4.9-2.2-4.9-4.9V8.5c0-2.7,2.2-4.9,4.9-4.9h6.8c2.1,0,3.8,1.7,3.8,3.8,0,2.1,1.7,3.8,3.8,3.8,2.1,0,3.8-1.7,3.8-3.8,0-2.1,1.7-3.8,3.8-3.8h6.6c2.7,0,4.9,2.2,4.9,4.9v55.9c0,2.7-2.2,4.9-4.9,4.9h0,0ZM100.9,9c-.8,0-1.5-.7-1.5-1.5s.7-1.5,1.5-1.5,1.5.7,1.5,1.5-.7,1.5-1.5,1.5Z"/>
    </g>
  </g>
</svg>